solid Merged surface
facet normal -0.497753 0.599353 -0.626912
outer loop
vertex -56.14110000 203.40040000 -1344.35470000
vertex -57.40380000 203.79060000 -1342.97910000
vertex -55.98550000 205.02820000 -1342.92200000
endloop
endfacet
facet normal -0.357178 0.636114 -0.683946
outer loop
vertex -56.14110000 203.40040000 -1344.35470000
vertex -55.98550000 205.02820000 -1342.92200000
vertex -54.20500000 204.84470000 -1344.02250000
endloop
endfacet
facet normal -0.352073 0.645965 -0.677328
outer loop
vertex -54.20500000 204.84470000 -1344.02250000
vertex -55.98550000 205.02820000 -1342.92200000
vertex -53.98190000 206.46730000 -1342.59100000
endloop
endfacet
facet normal -0.374793 0.669353 -0.641480
outer loop
vertex -56.09790000 206.18420000 -1341.65010000
vertex -53.98190000 206.46730000 -1342.59100000
vertex -55.98550000 205.02820000 -1342.92200000
endloop
endfacet
facet normal -0.541747 0.656250 -0.525211
outer loop
vertex -69.46560000 198.39990000 -1343.20530000
vertex -70.83100000 197.73020000 -1342.63370000
vertex -70.48010000 199.47670000 -1340.81340000
endloop
endfacet
facet normal -0.265097 0.832160 -0.487065
outer loop
vertex -68.07310000 199.73000000 -1341.69070000
vertex -69.46560000 198.39990000 -1343.20530000
vertex -70.48010000 199.47670000 -1340.81340000
endloop
endfacet
facet normal -0.366794 0.839922 -0.399991
outer loop
vertex -60.30710000 202.70680000 -1341.92710000
vertex -61.59570000 201.70280000 -1342.85370000
vertex -61.87060000 202.57020000 -1340.78020000
endloop
endfacet
facet normal -0.500680 0.673965 -0.543222
outer loop
vertex -58.81580000 203.27780000 -1342.31390000
vertex -57.80190000 204.83920000 -1341.31120000
vertex -57.40380000 203.79060000 -1342.97910000
endloop
endfacet
facet normal -0.542672 0.646639 -0.536065
outer loop
vertex -57.40380000 203.79060000 -1342.97910000
vertex -57.80190000 204.83920000 -1341.31120000
vertex -55.98550000 205.02820000 -1342.92200000
endloop
endfacet
facet normal -0.573227 0.580521 -0.578279
outer loop
vertex -55.98550000 205.02820000 -1342.92200000
vertex -57.80190000 204.83920000 -1341.31120000
vertex -56.09790000 206.18420000 -1341.65010000
endloop
endfacet
facet normal -0.408517 0.486354 -0.772382
outer loop
vertex -53.98190000 206.46730000 -1342.59100000
vertex -56.09790000 206.18420000 -1341.65010000
vertex -55.39340000 207.85380000 -1340.97140000
endloop
endfacet
facet normal -0.580897 0.640393 -0.502450
outer loop
vertex -70.83100000 197.73020000 -1342.63370000
vertex -72.07800000 197.40350000 -1341.60840000
vertex -70.48010000 199.47670000 -1340.81340000
endloop
endfacet
facet normal -0.348106 0.557348 -0.753781
outer loop
vertex -70.48010000 199.47670000 -1340.81340000
vertex -72.07800000 197.40350000 -1341.60840000
vertex -72.72420000 199.03370000 -1340.10460000
endloop
endfacet
facet normal -0.422053 0.766520 -0.484064
outer loop
vertex -60.30710000 202.70680000 -1341.92710000
vertex -61.87060000 202.57020000 -1340.78020000
vertex -59.79570000 203.81730000 -1340.61450000
endloop
endfacet
facet normal -0.526533 0.674357 -0.517692
outer loop
vertex -58.81580000 203.27780000 -1342.31390000
vertex -59.79570000 203.81730000 -1340.61450000
vertex -57.80190000 204.83920000 -1341.31120000
endloop
endfacet
facet normal -0.419585 0.767006 -0.485437
outer loop
vertex -58.81580000 203.27780000 -1342.31390000
vertex -60.30710000 202.70680000 -1341.92710000
vertex -59.79570000 203.81730000 -1340.61450000
endloop
endfacet
facet normal -0.555941 0.546522 -0.626293
outer loop
vertex -57.38840000 206.56920000 -1340.16860000
vertex -56.09790000 206.18420000 -1341.65010000
vertex -57.80190000 204.83920000 -1341.31120000
endloop
endfacet
facet normal 0.219210 -0.054397 -0.974160
outer loop
vertex -78.35940000 205.75320000 -1340.19290000
vertex -79.09640000 207.61670000 -1340.46280000
vertex -76.99760000 207.99960000 -1340.01190000
endloop
endfacet
facet normal -0.581690 0.504743 -0.637865
outer loop
vertex -57.38840000 206.56920000 -1340.16860000
vertex -55.39340000 207.85380000 -1340.97140000
vertex -56.09790000 206.18420000 -1341.65010000
endloop
endfacet
facet normal -0.199610 0.039008 -0.979099
outer loop
vertex -78.75940000 209.34870000 -1340.46250000
vertex -79.09640000 207.61670000 -1340.46280000
vertex -80.96480000 209.13490000 -1340.02140000
endloop
endfacet
facet normal -0.199226 0.034540 -0.979345
outer loop
vertex -79.35780000 210.92710000 -1340.28510000
vertex -78.75940000 209.34870000 -1340.46250000
vertex -80.96480000 209.13490000 -1340.02140000
endloop
endfacet
facet normal -0.191511 0.027363 -0.981109
outer loop
vertex -79.35780000 210.92710000 -1340.28510000
vertex -80.96480000 209.13490000 -1340.02140000
vertex -80.94200000 212.03020000 -1339.94510000
endloop
endfacet
facet normal -0.095031 0.321028 -0.942290
outer loop
vertex -72.72420000 199.03370000 -1340.10460000
vertex -73.83220000 200.71370000 -1339.42050000
vertex -72.06440000 201.23730000 -1339.42040000
endloop
endfacet
facet normal 0.005355 0.623432 -0.781860
outer loop
vertex -70.48010000 199.47670000 -1340.81340000
vertex -72.06440000 201.23730000 -1339.42040000
vertex -70.30910000 201.70180000 -1339.03800000
endloop
endfacet
facet normal -0.345496 0.371073 -0.861938
outer loop
vertex -70.48010000 199.47670000 -1340.81340000
vertex -72.72420000 199.03370000 -1340.10460000
vertex -72.06440000 201.23730000 -1339.42040000
endloop
endfacet
facet normal -0.006118 0.623968 -0.781426
outer loop
vertex -70.30910000 201.70180000 -1339.03800000
vertex -68.89440000 200.79920000 -1339.76980000
vertex -70.48010000 199.47670000 -1340.81340000
endloop
endfacet
facet normal -0.265464 0.796201 -0.543685
outer loop
vertex -66.00000000 200.61960000 -1341.19160000
vertex -67.26390000 201.31370000 -1339.55800000
vertex -65.39150000 202.20450000 -1339.16770000
endloop
endfacet
facet normal -0.261156 0.796552 -0.545255
outer loop
vertex -65.39150000 202.20450000 -1339.16770000
vertex -64.06830000 201.56130000 -1340.74110000
vertex -66.00000000 200.61960000 -1341.19160000
endloop
endfacet
facet normal 0.295453 -0.161624 -0.941587
outer loop
vertex -73.91120000 203.21490000 -1339.34680000
vertex -75.36000000 201.69200000 -1339.54000000
vertex -76.05930000 203.21470000 -1340.02080000
endloop
endfacet
facet normal -0.324720 0.747985 -0.578857
outer loop
vertex -64.06830000 201.56130000 -1340.74110000
vertex -65.39150000 202.20450000 -1339.16770000
vertex -63.36780000 203.17320000 -1339.05120000
endloop
endfacet
facet normal -0.352437 0.745810 -0.565293
outer loop
vertex -61.87060000 202.57020000 -1340.78020000
vertex -64.06830000 201.56130000 -1340.74110000
vertex -63.36780000 203.17320000 -1339.05120000
endloop
endfacet
facet normal 0.298805 0.061373 -0.952339
outer loop
vertex -76.05930000 203.21470000 -1340.02080000
vertex -75.97480000 205.28140000 -1339.86110000
vertex -73.91120000 203.21490000 -1339.34680000
endloop
endfacet
facet normal -0.518547 0.589401 -0.619448
outer loop
vertex -59.79570000 203.81730000 -1340.61450000
vertex -59.31510000 205.43950000 -1339.47330000
vertex -57.80190000 204.83920000 -1341.31120000
endloop
endfacet
facet normal -0.549053 0.548016 -0.631047
outer loop
vertex -59.31510000 205.43950000 -1339.47330000
vertex -57.38840000 206.56920000 -1340.16860000
vertex -57.80190000 204.83920000 -1341.31120000
endloop
endfacet
facet normal 0.369300 0.087633 -0.925169
outer loop
vertex -75.97480000 205.28140000 -1339.86110000
vertex -76.99760000 207.99960000 -1340.01190000
vertex -74.30610000 207.64310000 -1338.97130000
endloop
endfacet
facet normal -0.539331 0.362622 -0.760018
outer loop
vertex -57.38840000 206.56920000 -1340.16860000
vertex -57.19640000 208.09260000 -1339.57800000
vertex -55.39340000 207.85380000 -1340.97140000
endloop
endfacet
facet normal 0.217193 -0.042091 -0.975221
outer loop
vertex -79.09640000 207.61670000 -1340.46280000
vertex -78.75940000 209.34870000 -1340.46250000
vertex -76.99760000 207.99960000 -1340.01190000
endloop
endfacet
facet normal 0.338151 0.130295 -0.932029
outer loop
vertex -76.99760000 207.99960000 -1340.01190000
vertex -78.75940000 209.34870000 -1340.46250000
vertex -77.38570000 210.67280000 -1339.77900000
endloop
endfacet
facet normal 0.383527 0.135275 -0.913569
outer loop
vertex -76.99760000 207.99960000 -1340.01190000
vertex -77.38570000 210.67280000 -1339.77900000
vertex -75.14610000 209.95890000 -1338.94450000
endloop
endfacet
facet normal 0.268177 0.207407 -0.940778
outer loop
vertex -78.75940000 209.34870000 -1340.46250000
vertex -79.35780000 210.92710000 -1340.28510000
vertex -77.38570000 210.67280000 -1339.77900000
endloop
endfacet
facet normal -0.351173 0.113750 -0.929375
outer loop
vertex -56.35740000 209.81130000 -1339.75030000
vertex -56.63230000 211.77730000 -1339.40580000
vertex -55.08880000 211.45560000 -1340.02840000
endloop
endfacet
facet normal -0.376108 0.135136 -0.916669
outer loop
vertex -56.35740000 209.81130000 -1339.75030000
vertex -55.08880000 211.45560000 -1340.02840000
vertex -54.24860000 209.65350000 -1340.63880000
endloop
endfacet
facet normal 0.272863 0.291255 -0.916906
outer loop
vertex -77.38570000 210.67280000 -1339.77900000
vertex -79.35780000 210.92710000 -1340.28510000
vertex -78.62080000 212.58640000 -1339.53870000
endloop
endfacet
facet normal -0.361232 0.066847 -0.930077
outer loop
vertex -56.63230000 211.77730000 -1339.40580000
vertex -56.03250000 213.41710000 -1339.52090000
vertex -55.08880000 211.45560000 -1340.02840000
endloop
endfacet
facet normal 0.121859 0.303158 -0.945117
outer loop
vertex -55.08880000 211.45560000 -1340.02840000
vertex -56.03250000 213.41710000 -1339.52090000
vertex -54.07350000 213.35760000 -1339.28740000
endloop
endfacet
facet normal 0.059273 0.213840 -0.975069
outer loop
vertex -55.41080000 215.34320000 -1339.06070000
vertex -56.03250000 213.41710000 -1339.52090000
vertex -57.35940000 215.43920000 -1339.15810000
endloop
endfacet
facet normal -0.104988 -0.020496 -0.994262
outer loop
vertex -82.73120000 214.07130000 -1339.51180000
vertex -84.67260000 215.22590000 -1339.33060000
vertex -83.54050000 216.37350000 -1339.47380000
endloop
endfacet
facet normal -0.002897 0.627036 -0.778985
outer loop
vertex -68.64250000 202.32880000 -1338.53950000
vertex -68.89440000 200.79920000 -1339.76980000
vertex -70.30910000 201.70180000 -1339.03800000
endloop
endfacet
facet normal -0.100266 0.633565 -0.767165
outer loop
vertex -67.26390000 201.31370000 -1339.55800000
vertex -68.89440000 200.79920000 -1339.76980000
vertex -68.64250000 202.32880000 -1338.53950000
endloop
endfacet
facet normal 0.098554 0.032420 -0.994603
outer loop
vertex -75.36000000 201.69200000 -1339.54000000
vertex -73.91120000 203.21490000 -1339.34680000
vertex -73.83220000 200.71370000 -1339.42050000
endloop
endfacet
facet normal 0.312846 0.325364 -0.892337
outer loop
vertex -71.81500000 202.88960000 -1338.73050000
vertex -72.06440000 201.23730000 -1339.42040000
vertex -73.91120000 203.21490000 -1339.34680000
endloop
endfacet
facet normal -0.008587 0.029181 -0.999537
outer loop
vertex -72.06440000 201.23730000 -1339.42040000
vertex -73.83220000 200.71370000 -1339.42050000
vertex -73.91120000 203.21490000 -1339.34680000
endloop
endfacet
facet normal 0.103252 0.369931 -0.923304
outer loop
vertex -72.06440000 201.23730000 -1339.42040000
vertex -71.81500000 202.88960000 -1338.73050000
vertex -70.30910000 201.70180000 -1339.03800000
endloop
endfacet
facet normal -0.096789 0.636388 -0.765273
outer loop
vertex -67.26390000 201.31370000 -1339.55800000
vertex -68.64250000 202.32880000 -1338.53950000
vertex -66.97030000 203.07460000 -1338.13080000
endloop
endfacet
facet normal -0.145574 0.637482 -0.756588
outer loop
vertex -65.39150000 202.20450000 -1339.16770000
vertex -67.26390000 201.31370000 -1339.55800000
vertex -66.97030000 203.07460000 -1338.13080000
endloop
endfacet
facet normal 0.307990 0.240961 -0.920369
outer loop
vertex -72.39950000 204.21230000 -1338.57980000
vertex -71.81500000 202.88960000 -1338.73050000
vertex -73.91120000 203.21490000 -1339.34680000
endloop
endfacet
facet normal 0.363119 0.133100 -0.922187
outer loop
vertex -73.91120000 203.21490000 -1339.34680000
vertex -75.97480000 205.28140000 -1339.86110000
vertex -73.60940000 205.47820000 -1338.90130000
endloop
endfacet
facet normal 0.379220 0.129767 -0.916162
outer loop
vertex -72.39950000 204.21230000 -1338.57980000
vertex -73.91120000 203.21490000 -1339.34680000
vertex -73.60940000 205.47820000 -1338.90130000
endloop
endfacet
facet normal -0.289382 0.486804 -0.824184
outer loop
vertex -61.30060000 204.24900000 -1339.14160000
vertex -63.36780000 203.17320000 -1339.05120000
vertex -63.08640000 205.15780000 -1337.97780000
endloop
endfacet
facet normal -0.467001 0.597149 -0.652168
outer loop
vertex -59.79570000 203.81730000 -1340.61450000
vertex -61.30060000 204.24900000 -1339.14160000
vertex -59.31510000 205.43950000 -1339.47330000
endloop
endfacet
facet normal 0.341348 0.088595 -0.935752
outer loop
vertex -73.60940000 205.47820000 -1338.90130000
vertex -71.81660000 205.20690000 -1338.27300000
vertex -72.39950000 204.21230000 -1338.57980000
endloop
endfacet
facet normal 0.340831 0.083699 -0.936391
outer loop
vertex -73.60940000 205.47820000 -1338.90130000
vertex -72.20640000 206.72820000 -1338.27890000
vertex -71.81660000 205.20690000 -1338.27300000
endloop
endfacet
facet normal -0.382321 0.406414 -0.829854
outer loop
vertex -61.30060000 204.24900000 -1339.14160000
vertex -61.07420000 206.21270000 -1338.28420000
vertex -59.31510000 205.43950000 -1339.47330000
endloop
endfacet
facet normal 0.368180 0.088560 -0.925527
outer loop
vertex -75.97480000 205.28140000 -1339.86110000
vertex -74.30610000 207.64310000 -1338.97130000
vertex -73.60940000 205.47820000 -1338.90130000
endloop
endfacet
facet normal 0.343547 0.080304 -0.935696
outer loop
vertex -74.30610000 207.64310000 -1338.97130000
vertex -72.20640000 206.72820000 -1338.27890000
vertex -73.60940000 205.47820000 -1338.90130000
endloop
endfacet
facet normal -0.406460 0.364040 -0.838012
outer loop
vertex -61.07420000 206.21270000 -1338.28420000
vertex -58.98880000 207.30310000 -1338.82200000
vertex -59.31510000 205.43950000 -1339.47330000
endloop
endfacet
facet normal -0.497069 0.362546 -0.788342
outer loop
vertex -59.31510000 205.43950000 -1339.47330000
vertex -58.98880000 207.30310000 -1338.82200000
vertex -57.38840000 206.56920000 -1340.16860000
endloop
endfacet
facet normal 0.347579 0.091461 -0.933179
outer loop
vertex -74.30610000 207.64310000 -1338.97130000
vertex -72.31210000 208.39710000 -1338.15470000
vertex -72.20640000 206.72820000 -1338.27890000
endloop
endfacet
facet normal -0.494216 0.367689 -0.787754
outer loop
vertex -57.38840000 206.56920000 -1340.16860000
vertex -58.98880000 207.30310000 -1338.82200000
vertex -57.19640000 208.09260000 -1339.57800000
endloop
endfacet
facet normal 0.373516 0.146085 -0.916048
outer loop
vertex -76.99760000 207.99960000 -1340.01190000
vertex -75.14610000 209.95890000 -1338.94450000
vertex -74.30610000 207.64310000 -1338.97130000
endloop
endfacet
facet normal 0.340622 0.134321 -0.930556
outer loop
vertex -73.23490000 209.53230000 -1338.30650000
vertex -74.30610000 207.64310000 -1338.97130000
vertex -75.14610000 209.95890000 -1338.94450000
endloop
endfacet
facet normal 0.328587 0.142252 -0.933700
outer loop
vertex -74.30610000 207.64310000 -1338.97130000
vertex -73.23490000 209.53230000 -1338.30650000
vertex -72.31210000 208.39710000 -1338.15470000
endloop
endfacet
facet normal -0.451776 0.191250 -0.871391
outer loop
vertex -57.19640000 208.09260000 -1339.57800000
vertex -58.98880000 207.30310000 -1338.82200000
vertex -58.52480000 209.26350000 -1338.63230000
endloop
endfacet
facet normal -0.482821 0.149186 -0.862918
outer loop
vertex -57.19640000 208.09260000 -1339.57800000
vertex -58.52480000 209.26350000 -1338.63230000
vertex -56.35740000 209.81130000 -1339.75030000
endloop
endfacet
facet normal -0.443607 0.094147 -0.891263
outer loop
vertex -56.63230000 211.77730000 -1339.40580000
vertex -56.35740000 209.81130000 -1339.75030000
vertex -58.24060000 211.34280000 -1338.65120000
endloop
endfacet
facet normal -0.468866 0.056073 -0.881488
outer loop
vertex -56.35740000 209.81130000 -1339.75030000
vertex -58.52480000 209.26350000 -1338.63230000
vertex -58.24060000 211.34280000 -1338.65120000
endloop
endfacet
facet normal 0.407224 0.251010 -0.878159
outer loop
vertex -77.38570000 210.67280000 -1339.77900000
vertex -75.81550000 212.44570000 -1338.54410000
vertex -75.14610000 209.95890000 -1338.94450000
endloop
endfacet
facet normal 0.330489 0.324597 -0.886236
outer loop
vertex -78.62080000 212.58640000 -1339.53870000
vertex -75.81550000 212.44570000 -1338.54410000
vertex -77.38570000 210.67280000 -1339.77900000
endloop
endfacet
facet normal 0.274772 0.384027 -0.881490
outer loop
vertex -80.32990000 214.31930000 -1339.31650000
vertex -77.88960000 214.64760000 -1338.41280000
vertex -78.62080000 212.58640000 -1339.53870000
endloop
endfacet
facet normal 0.327683 0.360734 -0.873209
outer loop
vertex -75.81550000 212.44570000 -1338.54410000
vertex -78.62080000 212.58640000 -1339.53870000
vertex -77.88960000 214.64760000 -1338.41280000
endloop
endfacet
facet normal -0.209367 -0.066103 -0.975600
outer loop
vertex -57.93980000 213.42250000 -1338.89690000
vertex -59.39840000 215.42850000 -1338.71980000
vertex -57.35940000 215.43920000 -1339.15810000
endloop
endfacet
facet normal -0.310856 -0.033561 -0.949864
outer loop
vertex -57.35940000 215.43920000 -1339.15810000
vertex -56.03250000 213.41710000 -1339.52090000
vertex -57.93980000 213.42250000 -1338.89690000
endloop
endfacet
facet normal 0.323696 0.314957 -0.892201
outer loop
vertex -81.63220000 216.67810000 -1338.95630000
vertex -79.79830000 216.05390000 -1338.51130000
vertex -80.32990000 214.31930000 -1339.31650000
endloop
endfacet
facet normal -0.174692 0.049626 -0.983372
outer loop
vertex -85.77080000 217.46130000 -1339.02270000
vertex -83.54050000 216.37350000 -1339.47380000
vertex -84.67260000 215.22590000 -1339.33060000
endloop
endfacet
facet normal -0.151210 -0.110560 -0.982299
outer loop
vertex -58.84150000 217.54550000 -1339.04380000
vertex -59.39840000 215.42850000 -1338.71980000
vertex -60.99750000 217.42540000 -1338.69840000
endloop
endfacet
facet normal -0.228451 -0.172674 -0.958120
outer loop
vertex -59.39840000 215.42850000 -1338.71980000
vertex -61.16590000 215.39930000 -1338.29310000
vertex -60.99750000 217.42540000 -1338.69840000
endloop
endfacet
facet normal -0.208754 -0.094066 -0.973434
outer loop
vertex -59.39840000 215.42850000 -1338.71980000
vertex -58.84150000 217.54550000 -1339.04380000
vertex -57.35940000 215.43920000 -1339.15810000
endloop
endfacet
facet normal 0.148015 0.157137 -0.976422
outer loop
vertex -57.35940000 215.43920000 -1339.15810000
vertex -58.84150000 217.54550000 -1339.04380000
vertex -56.63430000 217.49400000 -1338.71750000
endloop
endfacet
facet normal 0.058331 0.189580 -0.980131
outer loop
vertex -56.63430000 217.49400000 -1338.71750000
vertex -55.41080000 215.34320000 -1339.06070000
vertex -57.35940000 215.43920000 -1339.15810000
endloop
endfacet
facet normal 0.223438 0.215279 -0.950647
outer loop
vertex -83.36090000 218.25770000 -1339.00490000
vertex -81.63220000 216.67810000 -1338.95630000
vertex -83.54050000 216.37350000 -1339.47380000
endloop
endfacet
facet normal 0.326407 0.326630 -0.887001
outer loop
vertex -81.63220000 216.67810000 -1338.95630000
vertex -80.07710000 218.03710000 -1337.88360000
vertex -79.79830000 216.05390000 -1338.51130000
endloop
endfacet
facet normal 0.371468 0.274917 -0.886810
outer loop
vertex -81.63220000 216.67810000 -1338.95630000
vertex -81.68630000 219.40760000 -1338.13280000
vertex -80.07710000 218.03710000 -1337.88360000
endloop
endfacet
facet normal -0.208198 -0.143772 -0.967462
outer loop
vertex -60.99750000 217.42540000 -1338.69840000
vertex -63.09420000 217.96380000 -1338.32720000
vertex -62.04030000 219.31300000 -1338.75450000
endloop
endfacet
facet normal 0.055327 0.058381 -0.996760
outer loop
vertex -58.11710000 219.25950000 -1338.90320000
vertex -58.84150000 217.54550000 -1339.04380000
vertex -60.09580000 219.90540000 -1338.97520000
endloop
endfacet
facet normal 0.146655 0.019146 -0.989002
outer loop
vertex -56.63430000 217.49400000 -1338.71750000
vertex -58.84150000 217.54550000 -1339.04380000
vertex -58.11710000 219.25950000 -1338.90320000
endloop
endfacet
facet normal 0.183043 0.247550 -0.951427
outer loop
vertex -83.18920000 219.58200000 -1338.62730000
vertex -83.36090000 218.25770000 -1339.00490000
vertex -84.58510000 219.62410000 -1338.88490000
endloop
endfacet
facet normal 0.183025 0.248591 -0.951160
outer loop
vertex -83.09420000 220.77700000 -1338.29670000
vertex -83.18920000 219.58200000 -1338.62730000
vertex -84.58510000 219.62410000 -1338.88490000
endloop
endfacet
facet normal 0.184877 0.246315 -0.951393
outer loop
vertex -83.09420000 220.77700000 -1338.29670000
vertex -84.58510000 219.62410000 -1338.88490000
vertex -84.89190000 221.49980000 -1338.45890000
endloop
endfacet
facet normal -0.230626 0.012026 -0.972968
outer loop
vertex -62.04030000 219.31300000 -1338.75450000
vertex -63.61610000 219.85370000 -1338.37430000
vertex -61.95140000 221.27680000 -1338.75130000
endloop
endfacet
facet normal -0.249146 0.035051 -0.967831
outer loop
vertex -63.61610000 219.85370000 -1338.37430000
vertex -64.00140000 221.80350000 -1338.20450000
vertex -61.95140000 221.27680000 -1338.75130000
endloop
endfacet
facet normal -0.114823 0.006817 -0.993363
outer loop
vertex -60.09580000 219.90540000 -1338.97520000
vertex -62.04030000 219.31300000 -1338.75450000
vertex -61.95140000 221.27680000 -1338.75130000
endloop
endfacet
facet normal -0.084064 0.029454 -0.996025
outer loop
vertex -61.09200000 225.99660000 -1338.63710000
vertex -61.92990000 223.76070000 -1338.63250000
vertex -63.35510000 225.78340000 -1338.45240000
endloop
endfacet
facet normal -0.096987 0.181778 -0.978545
outer loop
vertex -61.09200000 225.99660000 -1338.63710000
vertex -63.35510000 225.78340000 -1338.45240000
vertex -62.19520000 227.86380000 -1338.18090000
endloop
endfacet
facet normal -0.142839 0.205975 -0.968076
outer loop
vertex -63.35510000 225.78340000 -1338.45240000
vertex -64.59550000 227.78220000 -1337.84410000
vertex -62.19520000 227.86380000 -1338.18090000
endloop
endfacet
facet normal 0.119176 0.387721 -0.914040
outer loop
vertex -70.45520000 203.69940000 -1338.20970000
vertex -70.30910000 201.70180000 -1339.03800000
vertex -71.81500000 202.88960000 -1338.73050000
endloop
endfacet
facet normal 0.127153 0.387838 -0.912915
outer loop
vertex -68.64250000 202.32880000 -1338.53950000
vertex -70.30910000 201.70180000 -1339.03800000
vertex -70.45520000 203.69940000 -1338.20970000
endloop
endfacet
facet normal 0.236539 0.212546 -0.948089
outer loop
vertex -72.39950000 204.21230000 -1338.57980000
vertex -70.45520000 203.69940000 -1338.20970000
vertex -71.81500000 202.88960000 -1338.73050000
endloop
endfacet
facet normal 0.139164 0.401836 -0.905075
outer loop
vertex -68.57120000 204.09270000 -1337.74540000
vertex -68.64250000 202.32880000 -1338.53950000
vertex -70.45520000 203.69940000 -1338.20970000
endloop
endfacet
facet normal 0.040501 0.408814 -0.911718
outer loop
vertex -66.97030000 203.07460000 -1338.13080000
vertex -68.64250000 202.32880000 -1338.53950000
vertex -68.57120000 204.09270000 -1337.74540000
endloop
endfacet
facet normal -0.236886 0.487970 -0.840102
outer loop
vertex -63.36780000 203.17320000 -1339.05120000
vertex -65.32760000 204.37660000 -1337.79960000
vertex -63.08640000 205.15780000 -1337.97780000
endloop
endfacet
facet normal 0.111692 0.224935 -0.967951
outer loop
vertex -67.24550000 204.67720000 -1337.45660000
vertex -68.57120000 204.09270000 -1337.74540000
vertex -68.41470000 205.54910000 -1337.38890000
endloop
endfacet
facet normal 0.027671 0.391659 -0.919694
outer loop
vertex -66.97030000 203.07460000 -1338.13080000
vertex -68.57120000 204.09270000 -1337.74540000
vertex -67.24550000 204.67720000 -1337.45660000
endloop
endfacet
facet normal -0.107081 0.369865 -0.922894
outer loop
vertex -65.32760000 204.37660000 -1337.79960000
vertex -66.97030000 203.07460000 -1338.13080000
vertex -67.24550000 204.67720000 -1337.45660000
endloop
endfacet
facet normal -0.343087 0.408800 -0.845680
outer loop
vertex -61.30060000 204.24900000 -1339.14160000
vertex -63.08640000 205.15780000 -1337.97780000
vertex -61.07420000 206.21270000 -1338.28420000
endloop
endfacet
facet normal 0.225947 0.084434 -0.970473
outer loop
vertex -68.86460000 207.07110000 -1337.35550000
vertex -70.12610000 205.68270000 -1337.77000000
vertex -70.64160000 207.77250000 -1337.70820000
endloop
endfacet
facet normal 0.223014 0.087229 -0.970905
outer loop
vertex -70.12610000 205.68270000 -1337.77000000
vertex -68.86460000 207.07110000 -1337.35550000
vertex -68.41470000 205.54910000 -1337.38890000
endloop
endfacet
facet normal -0.250024 0.201866 -0.946963
outer loop
vertex -61.07420000 206.21270000 -1338.28420000
vertex -63.08640000 205.15780000 -1337.97780000
vertex -62.97870000 207.38950000 -1337.53050000
endloop
endfacet
facet normal 0.288186 0.089205 -0.953410
outer loop
vertex -70.64160000 207.77250000 -1337.70820000
vertex -72.20640000 206.72820000 -1338.27890000
vertex -72.31210000 208.39710000 -1338.15470000
endloop
endfacet
facet normal 0.220436 0.069230 -0.972942
outer loop
vertex -69.37860000 208.74990000 -1337.35250000
vertex -68.86460000 207.07110000 -1337.35550000
vertex -70.64160000 207.77250000 -1337.70820000
endloop
endfacet
facet normal -0.264629 0.178672 -0.947654
outer loop
vertex -60.77530000 208.40090000 -1337.95510000
vertex -61.07420000 206.21270000 -1338.28420000
vertex -62.97870000 207.38950000 -1337.53050000
endloop
endfacet
facet normal -0.334863 0.184706 -0.923986
outer loop
vertex -61.07420000 206.21270000 -1338.28420000
vertex -60.77530000 208.40090000 -1337.95510000
vertex -58.98880000 207.30310000 -1338.82200000
endloop
endfacet
facet normal -0.214975 0.059089 -0.974830
outer loop
vertex -62.97870000 207.38950000 -1337.53050000
vertex -62.67180000 209.63780000 -1337.46190000
vertex -60.77530000 208.40090000 -1337.95510000
endloop
endfacet
facet normal -0.343320 0.170631 -0.923589
outer loop
vertex -58.98880000 207.30310000 -1338.82200000
vertex -60.77530000 208.40090000 -1337.95510000
vertex -58.52480000 209.26350000 -1338.63230000
endloop
endfacet
facet normal 0.281877 0.101559 -0.954060
outer loop
vertex -71.15760000 209.90490000 -1337.65310000
vertex -72.31210000 208.39710000 -1338.15470000
vertex -73.23490000 209.53230000 -1338.30650000
endloop
endfacet
facet normal 0.289980 0.094777 -0.952328
outer loop
vertex -70.64160000 207.77250000 -1337.70820000
vertex -72.31210000 208.39710000 -1338.15470000
vertex -71.15760000 209.90490000 -1337.65310000
endloop
endfacet
facet normal 0.214564 0.077079 -0.973664
outer loop
vertex -70.64160000 207.77250000 -1337.70820000
vertex -71.15760000 209.90490000 -1337.65310000
vertex -69.37860000 208.74990000 -1337.35250000
endloop
endfacet
facet normal -0.219446 0.051997 -0.974238
outer loop
vertex -60.38760000 210.61420000 -1337.92430000
vertex -60.77530000 208.40090000 -1337.95510000
vertex -62.67180000 209.63780000 -1337.46190000
endloop
endfacet
facet normal -0.311193 0.067702 -0.947932
outer loop
vertex -58.52480000 209.26350000 -1338.63230000
vertex -60.77530000 208.40090000 -1337.95510000
vertex -60.38760000 210.61420000 -1337.92430000
endloop
endfacet
facet normal 0.344085 0.157095 -0.925703
outer loop
vertex -75.14610000 209.95890000 -1338.94450000
vertex -73.20090000 211.33640000 -1337.98770000
vertex -73.23490000 209.53230000 -1338.30650000
endloop
endfacet
facet normal 0.269388 0.162654 -0.949196
outer loop
vertex -71.15760000 209.90490000 -1337.65310000
vertex -73.23490000 209.53230000 -1338.30650000
vertex -73.20090000 211.33640000 -1337.98770000
endloop
endfacet
facet normal -0.188217 -0.024648 -0.981818
outer loop
vertex -60.38760000 210.61420000 -1337.92430000
vertex -62.67180000 209.63780000 -1337.46190000
vertex -62.22510000 211.46480000 -1337.59340000
endloop
endfacet
facet normal -0.331637 0.036760 -0.942691
outer loop
vertex -58.24060000 211.34280000 -1338.65120000
vertex -58.52480000 209.26350000 -1338.63230000
vertex -60.38760000 210.61420000 -1337.92430000
endloop
endfacet
facet normal 0.294479 0.228669 -0.927897
outer loop
vertex -75.14610000 209.95890000 -1338.94450000
vertex -75.81550000 212.44570000 -1338.54410000
vertex -73.20090000 211.33640000 -1337.98770000
endloop
endfacet
facet normal 0.221531 0.089232 -0.971062
outer loop
vertex -70.69030000 212.44370000 -1337.31320000
vertex -71.15760000 209.90490000 -1337.65310000
vertex -73.20090000 211.33640000 -1337.98770000
endloop
endfacet
facet normal 0.174110 0.193392 -0.965549
outer loop
vertex -73.20090000 211.33640000 -1337.98770000
vertex -73.20560000 213.48250000 -1337.55870000
vertex -70.69030000 212.44370000 -1337.31320000
endloop
endfacet
facet normal -0.136639 -0.072922 -0.987933
outer loop
vertex -63.07760000 212.69300000 -1337.61070000
vertex -64.49740000 211.23620000 -1337.30680000
vertex -64.61140000 213.22050000 -1337.43750000
endloop
endfacet
facet normal -0.214259 -0.084283 -0.973134
outer loop
vertex -60.38760000 210.61420000 -1337.92430000
vertex -62.22510000 211.46480000 -1337.59340000
vertex -60.58500000 213.16660000 -1338.10190000
endloop
endfacet
facet normal 0.256847 0.296785 -0.919754
outer loop
vertex -75.81550000 212.44570000 -1338.54410000
vertex -77.88960000 214.64760000 -1338.41280000
vertex -75.20200000 214.67540000 -1337.65330000
endloop
endfacet
facet normal -0.145457 -0.099747 -0.984324
outer loop
vertex -63.08700000 214.62410000 -1337.80500000
vertex -63.07760000 212.69300000 -1337.61070000
vertex -64.61140000 213.22050000 -1337.43750000
endloop
endfacet
facet normal -0.178047 -0.063732 -0.981956
outer loop
vertex -63.08700000 214.62410000 -1337.80500000
vertex -64.61140000 213.22050000 -1337.43750000
vertex -65.45900000 214.93360000 -1337.39500000
endloop
endfacet
facet normal -0.193109 -0.133486 -0.972055
outer loop
vertex -61.16590000 215.39930000 -1338.29310000
vertex -60.58500000 213.16660000 -1338.10190000
vertex -63.08700000 214.62410000 -1337.80500000
endloop
endfacet
facet normal -0.230063 -0.142301 -0.962716
outer loop
vertex -59.39840000 215.42850000 -1338.71980000
vertex -60.58500000 213.16660000 -1338.10190000
vertex -61.16590000 215.39930000 -1338.29310000
endloop
endfacet
facet normal -0.275559 -0.116119 -0.954245
outer loop
vertex -57.93980000 213.42250000 -1338.89690000
vertex -60.58500000 213.16660000 -1338.10190000
vertex -59.39840000 215.42850000 -1338.71980000
endloop
endfacet
facet normal 0.255982 0.305849 -0.917022
outer loop
vertex -76.26480000 216.46650000 -1337.35260000
vertex -75.20200000 214.67540000 -1337.65330000
vertex -77.88960000 214.64760000 -1338.41280000
endloop
endfacet
facet normal 0.217504 0.339177 -0.915233
outer loop
vertex -76.26480000 216.46650000 -1337.35260000
vertex -77.88960000 214.64760000 -1338.41280000
vertex -78.41230000 216.95100000 -1337.68340000
endloop
endfacet
facet normal -0.223107 -0.130549 -0.966012
outer loop
vertex -62.44340000 216.35750000 -1338.18790000
vertex -63.08700000 214.62410000 -1337.80500000
vertex -64.31700000 216.59000000 -1337.78660000
endloop
endfacet
facet normal -0.188452 -0.144602 -0.971379
outer loop
vertex -61.16590000 215.39930000 -1338.29310000
vertex -63.08700000 214.62410000 -1337.80500000
vertex -62.44340000 216.35750000 -1338.18790000
endloop
endfacet
facet normal -0.210405 -0.174918 -0.961839
outer loop
vertex -61.16590000 215.39930000 -1338.29310000
vertex -62.44340000 216.35750000 -1338.18790000
vertex -60.99750000 217.42540000 -1338.69840000
endloop
endfacet
facet normal 0.319950 0.326483 -0.889405
outer loop
vertex -79.79830000 216.05390000 -1338.51130000
vertex -80.07710000 218.03710000 -1337.88360000
vertex -78.41230000 216.95100000 -1337.68340000
endloop
endfacet
facet normal 0.306861 0.304125 -0.901856
outer loop
vertex -80.07710000 218.03710000 -1337.88360000
vertex -78.62370000 218.87060000 -1337.10800000
vertex -78.41230000 216.95100000 -1337.68340000
endloop
endfacet
facet normal -0.260418 -0.143892 -0.954713
outer loop
vertex -63.09420000 217.96380000 -1338.32720000
vertex -64.31700000 216.59000000 -1337.78660000
vertex -65.09610000 218.49300000 -1337.86090000
endloop
endfacet
facet normal -0.226922 -0.175022 -0.958057
outer loop
vertex -62.44340000 216.35750000 -1338.18790000
vertex -64.31700000 216.59000000 -1337.78660000
vertex -63.09420000 217.96380000 -1338.32720000
endloop
endfacet
facet normal -0.213979 -0.170113 -0.961912
outer loop
vertex -63.09420000 217.96380000 -1338.32720000
vertex -60.99750000 217.42540000 -1338.69840000
vertex -62.44340000 216.35750000 -1338.18790000
endloop
endfacet
facet normal 0.352932 0.250482 -0.901498
outer loop
vertex -80.07710000 218.03710000 -1337.88360000
vertex -81.68630000 219.40760000 -1338.13280000
vertex -79.65540000 220.33800000 -1337.07920000
endloop
endfacet
facet normal 0.329829 0.229502 -0.915719
outer loop
vertex -83.09420000 220.77700000 -1338.29670000
vertex -81.16520000 221.69750000 -1337.37120000
vertex -81.68630000 219.40760000 -1338.13280000
endloop
endfacet
facet normal 0.328073 0.227563 -0.916833
outer loop
vertex -83.18920000 219.58200000 -1338.62730000
vertex -83.09420000 220.77700000 -1338.29670000
vertex -81.68630000 219.40760000 -1338.13280000
endloop
endfacet
facet normal 0.369638 0.216420 -0.903621
outer loop
vertex -81.16520000 221.69750000 -1337.37120000
vertex -79.65540000 220.33800000 -1337.07920000
vertex -81.68630000 219.40760000 -1338.13280000
endloop
endfacet
facet normal -0.297403 0.040065 -0.953911
outer loop
vertex -65.31350000 220.23040000 -1337.88420000
vertex -67.11180000 219.26470000 -1337.36410000
vertex -66.45570000 221.55640000 -1337.47240000
endloop
endfacet
facet normal -0.271082 0.030215 -0.962082
outer loop
vertex -64.00140000 221.80350000 -1338.20450000
vertex -63.61610000 219.85370000 -1338.37430000
vertex -65.31350000 220.23040000 -1337.88420000
endloop
endfacet
facet normal 0.186593 0.250931 -0.949851
outer loop
vertex -83.07480000 222.64690000 -1337.79890000
vertex -83.09420000 220.77700000 -1338.29670000
vertex -84.89190000 221.49980000 -1338.45890000
endloop
endfacet
facet normal 0.324344 0.240206 -0.914933
outer loop
vertex -83.09420000 220.77700000 -1338.29670000
vertex -83.07480000 222.64690000 -1337.79890000
vertex -81.16520000 221.69750000 -1337.37120000
endloop
endfacet
facet normal 0.071236 0.410266 -0.909180
outer loop
vertex -85.19680000 223.43840000 -1337.60800000
vertex -83.07480000 222.64690000 -1337.79890000
vertex -84.89190000 221.49980000 -1338.45890000
endloop
endfacet
facet normal -0.245784 0.048430 -0.968114
outer loop
vertex -61.95140000 221.27680000 -1338.75130000
vertex -64.00140000 221.80350000 -1338.20450000
vertex -61.92990000 223.76070000 -1338.63250000
endloop
endfacet
facet normal 0.069474 0.406032 -0.911214
outer loop
vertex -83.42180000 224.19350000 -1337.13620000
vertex -83.07480000 222.64690000 -1337.79890000
vertex -85.19680000 223.43840000 -1337.60800000
endloop
endfacet
facet normal 0.238421 0.427201 -0.872155
outer loop
vertex -83.07480000 222.64690000 -1337.79890000
vertex -83.42180000 224.19350000 -1337.13620000
vertex -81.45480000 223.75310000 -1336.81420000
endloop
endfacet
facet normal -0.238488 0.040228 -0.970312
outer loop
vertex -61.92990000 223.76070000 -1338.63250000
vertex -64.00140000 221.80350000 -1338.20450000
vertex -65.10400000 223.82230000 -1337.84980000
endloop
endfacet
facet normal -0.269142 -0.055428 -0.961504
outer loop
vertex -63.35510000 225.78340000 -1338.45240000
vertex -65.10400000 223.82230000 -1337.84980000
vertex -65.45600000 225.87150000 -1337.86940000
endloop
endfacet
facet normal -0.240110 -0.083064 -0.967185
outer loop
vertex -65.10400000 223.82230000 -1337.84980000
vertex -63.35510000 225.78340000 -1338.45240000
vertex -61.92990000 223.76070000 -1338.63250000
endloop
endfacet
facet normal -0.268567 0.133583 -0.953954
outer loop
vertex -65.45600000 225.87150000 -1337.86940000
vertex -66.79370000 227.26260000 -1337.29800000
vertex -64.59550000 227.78220000 -1337.84410000
endloop
endfacet
facet normal -0.260076 0.129797 -0.956825
outer loop
vertex -65.45600000 225.87150000 -1337.86940000
vertex -64.59550000 227.78220000 -1337.84410000
vertex -63.35510000 225.78340000 -1338.45240000
endloop
endfacet
facet normal 0.042120 0.133366 -0.990171
outer loop
vertex -68.41470000 205.54910000 -1337.38890000
vertex -66.95130000 206.36690000 -1337.21650000
vertex -67.24550000 204.67720000 -1337.45660000
endloop
endfacet
facet normal -0.163271 0.250751 -0.954184
outer loop
vertex -63.08640000 205.15780000 -1337.97780000
vertex -65.32760000 204.37660000 -1337.79960000
vertex -64.91270000 206.59240000 -1337.28830000
endloop
endfacet
facet normal 0.090106 0.048465 -0.994752
outer loop
vertex -66.95130000 206.36690000 -1337.21650000
vertex -68.41470000 205.54910000 -1337.38890000
vertex -68.86460000 207.07110000 -1337.35550000
endloop
endfacet
facet normal -0.203176 0.201840 -0.958113
outer loop
vertex -64.91270000 206.59240000 -1337.28830000
vertex -62.97870000 207.38950000 -1337.53050000
vertex -63.08640000 205.15780000 -1337.97780000
endloop
endfacet
facet normal 0.092583 0.055311 -0.994168
outer loop
vertex -67.47240000 208.52790000 -1337.14480000
vertex -66.95130000 206.36690000 -1337.21650000
vertex -68.86460000 207.07110000 -1337.35550000
endloop
endfacet
facet normal 0.112413 0.036192 -0.993002
outer loop
vertex -67.47240000 208.52790000 -1337.14480000
vertex -68.86460000 207.07110000 -1337.35550000
vertex -69.37860000 208.74990000 -1337.35250000
endloop
endfacet
facet normal 0.074087 0.050910 -0.995951
outer loop
vertex -66.10860000 207.63680000 -1337.08890000
vertex -66.95130000 206.36690000 -1337.21650000
vertex -67.47240000 208.52790000 -1337.14480000
endloop
endfacet
facet normal -0.049504 0.132323 -0.989970
outer loop
vertex -64.91270000 206.59240000 -1337.28830000
vertex -66.95130000 206.36690000 -1337.21650000
vertex -66.10860000 207.63680000 -1337.08890000
endloop
endfacet
facet normal 0.043897 -0.007396 -0.999009
outer loop
vertex -66.82690000 210.64360000 -1337.13210000
vertex -67.47240000 208.52790000 -1337.14480000
vertex -68.95740000 210.45240000 -1337.22430000
endloop
endfacet
facet normal 0.113567 0.046635 -0.992435
outer loop
vertex -67.47240000 208.52790000 -1337.14480000
vertex -69.37860000 208.74990000 -1337.35250000
vertex -68.95740000 210.45240000 -1337.22430000
endloop
endfacet
facet normal -0.109564 -0.028728 -0.993565
outer loop
vertex -62.67180000 209.63780000 -1337.46190000
vertex -65.09950000 208.79430000 -1337.16980000
vertex -64.49740000 211.23620000 -1337.30680000
endloop
endfacet
facet normal -0.120883 -0.041829 -0.991785
outer loop
vertex -62.22510000 211.46480000 -1337.59340000
vertex -62.67180000 209.63780000 -1337.46190000
vertex -64.49740000 211.23620000 -1337.30680000
endloop
endfacet
facet normal 0.077580 0.023015 -0.996720
outer loop
vertex -68.24730000 212.54540000 -1337.12070000
vertex -68.95740000 210.45240000 -1337.22430000
vertex -70.69030000 212.44370000 -1337.31320000
endloop
endfacet
facet normal 0.039996 0.035857 -0.998556
outer loop
vertex -66.82690000 210.64360000 -1337.13210000
vertex -68.95740000 210.45240000 -1337.22430000
vertex -68.24730000 212.54540000 -1337.12070000
endloop
endfacet
facet normal -0.037138 -0.021749 -0.999073
outer loop
vertex -66.27420000 212.85110000 -1337.20070000
vertex -66.82690000 210.64360000 -1337.13210000
vertex -68.24730000 212.54540000 -1337.12070000
endloop
endfacet
facet normal -0.115275 -0.093942 -0.988882
outer loop
vertex -63.07760000 212.69300000 -1337.61070000
vertex -62.22510000 211.46480000 -1337.59340000
vertex -64.49740000 211.23620000 -1337.30680000
endloop
endfacet
facet normal -0.124847 -0.072350 -0.989535
outer loop
vertex -64.49740000 211.23620000 -1337.30680000
vertex -66.27420000 212.85110000 -1337.20070000
vertex -64.61140000 213.22050000 -1337.43750000
endloop
endfacet
facet normal 0.038940 0.102251 -0.993996
outer loop
vertex -69.25550000 214.39270000 -1337.05650000
vertex -70.69030000 212.44370000 -1337.31320000
vertex -71.15390000 214.99610000 -1337.06880000
endloop
endfacet
facet normal -0.036878 0.014599 -0.999213
outer loop
vertex -67.49030000 214.86820000 -1337.11470000
vertex -68.24730000 212.54540000 -1337.12070000
vertex -69.25550000 214.39270000 -1337.05650000
endloop
endfacet
facet normal 0.166682 0.202426 -0.965008
outer loop
vertex -75.20200000 214.67540000 -1337.65330000
vertex -73.15910000 215.33680000 -1337.16170000
vertex -73.20560000 213.48250000 -1337.55870000
endloop
endfacet
facet normal -0.135344 -0.039389 -0.990015
outer loop
vertex -66.27420000 212.85110000 -1337.20070000
vertex -67.49030000 214.86820000 -1337.11470000
vertex -65.45900000 214.93360000 -1337.39500000
endloop
endfacet
facet normal 0.147106 0.248042 -0.957515
outer loop
vertex -76.26480000 216.46650000 -1337.35260000
vertex -74.24140000 216.40450000 -1337.05780000
vertex -75.20200000 214.67540000 -1337.65330000
endloop
endfacet
facet normal 0.150762 0.245997 -0.957474
outer loop
vertex -75.20200000 214.67540000 -1337.65330000
vertex -74.24140000 216.40450000 -1337.05780000
vertex -73.15910000 215.33680000 -1337.16170000
endloop
endfacet
facet normal 0.019282 0.040300 -0.999002
outer loop
vertex -69.26650000 217.26360000 -1336.94090000
vertex -69.25550000 214.39270000 -1337.05650000
vertex -71.15390000 214.99610000 -1337.06880000
endloop
endfacet
facet normal -0.043695 0.040028 -0.998243
outer loop
vertex -67.49030000 214.86820000 -1337.11470000
vertex -69.25550000 214.39270000 -1337.05650000
vertex -69.26650000 217.26360000 -1336.94090000
endloop
endfacet
facet normal 0.067783 0.164470 -0.984050
outer loop
vertex -72.16620000 217.05760000 -1336.80570000
vertex -73.15910000 215.33680000 -1337.16170000
vertex -74.24140000 216.40450000 -1337.05780000
endloop
endfacet
facet normal 0.073031 0.161467 -0.984172
outer loop
vertex -71.15390000 214.99610000 -1337.06880000
vertex -73.15910000 215.33680000 -1337.16170000
vertex -72.16620000 217.05760000 -1336.80570000
endloop
endfacet
facet normal -0.053465 0.100541 -0.993495
outer loop
vertex -69.26650000 217.26360000 -1336.94090000
vertex -71.15390000 214.99610000 -1337.06880000
vertex -72.16620000 217.05760000 -1336.80570000
endloop
endfacet
facet normal -0.153122 -0.041905 -0.987318
outer loop
vertex -66.54510000 216.99360000 -1337.35150000
vertex -67.49030000 214.86820000 -1337.11470000
vertex -69.26650000 217.26360000 -1336.94090000
endloop
endfacet
facet normal -0.134935 -0.050246 -0.989580
outer loop
vertex -65.45900000 214.93360000 -1337.39500000
vertex -67.49030000 214.86820000 -1337.11470000
vertex -66.54510000 216.99360000 -1337.35150000
endloop
endfacet
facet normal 0.054328 0.204629 -0.977331
outer loop
vertex -72.16620000 217.05760000 -1336.80570000
vertex -74.24140000 216.40450000 -1337.05780000
vertex -74.28030000 218.21160000 -1336.68160000
endloop
endfacet
facet normal -0.211856 -0.124581 -0.969328
outer loop
vertex -66.54510000 216.99360000 -1337.35150000
vertex -65.09610000 218.49300000 -1337.86090000
vertex -64.31700000 216.59000000 -1337.78660000
endloop
endfacet
facet normal -0.055976 0.139030 -0.988705
outer loop
vertex -69.26650000 217.26360000 -1336.94090000
vertex -72.16620000 217.05760000 -1336.80570000
vertex -71.79170000 219.39230000 -1336.49860000
endloop
endfacet
facet normal -0.236649 0.049605 -0.970328
outer loop
vertex -67.11180000 219.26470000 -1337.36410000
vertex -69.26650000 217.26360000 -1336.94090000
vertex -69.23460000 220.88590000 -1336.76350000
endloop
endfacet
facet normal -0.153287 -0.043726 -0.987214
outer loop
vertex -66.54510000 216.99360000 -1337.35150000
vertex -69.26650000 217.26360000 -1336.94090000
vertex -67.11180000 219.26470000 -1337.36410000
endloop
endfacet
facet normal -0.264343 -0.071297 -0.961790
outer loop
vertex -67.11180000 219.26470000 -1337.36410000
vertex -65.09610000 218.49300000 -1337.86090000
vertex -66.54510000 216.99360000 -1337.35150000
endloop
endfacet
facet normal 0.337359 0.254976 -0.906188
outer loop
vertex -80.07710000 218.03710000 -1337.88360000
vertex -79.65540000 220.33800000 -1337.07920000
vertex -78.62370000 218.87060000 -1337.10800000
endloop
endfacet
facet normal 0.172978 0.228848 -0.957970
outer loop
vertex -76.73210000 218.60830000 -1336.82910000
vertex -78.62370000 218.87060000 -1337.10800000
vertex -77.47940000 220.82330000 -1336.43490000
endloop
endfacet
facet normal 0.347614 0.188778 -0.918437
outer loop
vertex -81.16520000 221.69750000 -1337.37120000
vertex -79.05150000 222.97800000 -1336.30800000
vertex -79.65540000 220.33800000 -1337.07920000
endloop
endfacet
facet normal -0.226809 0.047750 -0.972768
outer loop
vertex -67.70470000 223.08220000 -1337.01240000
vertex -69.23460000 220.88590000 -1336.76350000
vertex -70.12680000 223.84140000 -1336.41040000
endloop
endfacet
facet normal -0.313876 0.029175 -0.949015
outer loop
vertex -66.45570000 221.55640000 -1337.47240000
vertex -67.70470000 223.08220000 -1337.01240000
vertex -65.10400000 223.82230000 -1337.84980000
endloop
endfacet
facet normal -0.249533 -0.028569 -0.967945
outer loop
vertex -70.12680000 223.84140000 -1336.41040000
vertex -67.40560000 225.08430000 -1337.14860000
vertex -67.70470000 223.08220000 -1337.01240000
endloop
endfacet
facet normal -0.276633 0.035287 -0.960328
outer loop
vertex -70.12680000 223.84140000 -1336.41040000
vertex -69.11990000 226.47980000 -1336.60350000
vertex -67.40560000 225.08430000 -1337.14860000
endloop
endfacet
facet normal -0.301314 -0.019839 -0.953319
outer loop
vertex -67.70470000 223.08220000 -1337.01240000
vertex -67.40560000 225.08430000 -1337.14860000
vertex -65.10400000 223.82230000 -1337.84980000
endloop
endfacet
facet normal -0.323031 -0.064519 -0.944187
outer loop
vertex -65.10400000 223.82230000 -1337.84980000
vertex -67.40560000 225.08430000 -1337.14860000
vertex -65.45600000 225.87150000 -1337.86940000
endloop
endfacet
facet normal -0.291025 0.016143 -0.956579
outer loop
vertex -66.79370000 227.26260000 -1337.29800000
vertex -67.40560000 225.08430000 -1337.14860000
vertex -69.11990000 226.47980000 -1336.60350000
endloop
endfacet
facet normal -0.359678 0.037091 -0.932339
outer loop
vertex -67.40560000 225.08430000 -1337.14860000
vertex -66.79370000 227.26260000 -1337.29800000
vertex -65.45600000 225.87150000 -1337.86940000
endloop
endfacet
facet normal -0.043268 0.113271 -0.992622
outer loop
vertex -71.82400000 221.69960000 -1336.23390000
vertex -71.79170000 219.39230000 -1336.49860000
vertex -74.52770000 220.82280000 -1336.21610000
endloop
endfacet
facet normal 0.072534 0.195284 -0.978061
outer loop
vertex -74.52770000 220.82280000 -1336.21610000
vertex -77.47940000 220.82330000 -1336.43490000
vertex -76.10690000 223.52440000 -1335.79380000
endloop
endfacet
facet normal 0.140856 0.160308 -0.976965
outer loop
vertex -76.10690000 223.52440000 -1335.79380000
vertex -77.47940000 220.82330000 -1336.43490000
vertex -79.05150000 222.97800000 -1336.30800000
endloop
endfacet
facet normal -0.048275 0.128753 -0.990501
outer loop
vertex -71.82400000 221.69960000 -1336.23390000
vertex -74.52770000 220.82280000 -1336.21610000
vertex -73.18590000 223.54610000 -1335.92750000
endloop
endfacet
facet normal -0.160055 0.045572 -0.986056
outer loop
vertex -70.12680000 223.84140000 -1336.41040000
vertex -71.82400000 221.69960000 -1336.23390000
vertex -73.18590000 223.54610000 -1335.92750000
endloop
endfacet
facet normal 0.313393 0.413383 -0.854927
outer loop
vertex -81.45480000 223.75310000 -1336.81420000
vertex -80.33480000 224.88920000 -1335.85430000
vertex -79.05150000 222.97800000 -1336.30800000
endloop
endfacet
facet normal 0.191724 0.346700 -0.918173
outer loop
vertex -78.26810000 225.15470000 -1335.32250000
vertex -79.05150000 222.97800000 -1336.30800000
vertex -80.33480000 224.88920000 -1335.85430000
endloop
endfacet
facet normal 0.089234 0.383972 -0.919023
outer loop
vertex -76.10690000 223.52440000 -1335.79380000
vertex -79.05150000 222.97800000 -1336.30800000
vertex -78.26810000 225.15470000 -1335.32250000
endloop
endfacet
facet normal -0.046253 0.213222 -0.975908
outer loop
vertex -73.18590000 223.54610000 -1335.92750000
vertex -76.10690000 223.52440000 -1335.79380000
vertex -74.14230000 225.62940000 -1335.42700000
endloop
endfacet
facet normal -0.165410 0.111026 -0.979955
outer loop
vertex -70.12680000 223.84140000 -1336.41040000
vertex -73.18590000 223.54610000 -1335.92750000
vertex -71.68050000 225.87980000 -1335.91720000
endloop
endfacet
facet normal -0.265489 0.030793 -0.963622
outer loop
vertex -69.11990000 226.47980000 -1336.60350000
vertex -70.12680000 223.84140000 -1336.41040000
vertex -71.68050000 225.87980000 -1335.91720000
endloop
endfacet
facet normal -0.308672 0.276213 -0.910180
outer loop
vertex -69.11990000 226.47980000 -1336.60350000
vertex -71.68050000 225.87980000 -1335.91720000
vertex -70.25430000 227.87660000 -1335.79490000
endloop
endfacet
facet normal -0.128134 0.042454 -0.990848
outer loop
vertex -65.09950000 208.79430000 -1337.16980000
vertex -64.91270000 206.59240000 -1337.28830000
vertex -66.10860000 207.63680000 -1337.08890000
endloop
endfacet
facet normal 0.075200 0.075597 -0.994299
outer loop
vertex -68.24730000 212.54540000 -1337.12070000
vertex -70.69030000 212.44370000 -1337.31320000
vertex -69.25550000 214.39270000 -1337.05650000
endloop
endfacet
facet normal -0.043077 0.016619 -0.998933
outer loop
vertex -66.27420000 212.85110000 -1337.20070000
vertex -68.24730000 212.54540000 -1337.12070000
vertex -67.49030000 214.86820000 -1337.11470000
endloop
endfacet
facet normal -0.131995 -0.040737 -0.990413
outer loop
vertex -64.61140000 213.22050000 -1337.43750000
vertex -66.27420000 212.85110000 -1337.20070000
vertex -65.45900000 214.93360000 -1337.39500000
endloop
endfacet
facet normal -0.046297 0.127802 -0.990719
outer loop
vertex -73.18590000 223.54610000 -1335.92750000
vertex -74.52770000 220.82280000 -1336.21610000
vertex -76.10690000 223.52440000 -1335.79380000
endloop
endfacet
facet normal -0.206884 0.137730 -0.968623
outer loop
vertex -71.68050000 225.87980000 -1335.91720000
vertex -73.18590000 223.54610000 -1335.92750000
vertex -74.14230000 225.62940000 -1335.42700000
endloop
endfacet
facet normal -0.025962 0.007673 -0.999633
outer loop
vertex -61.92990000 223.76070000 -1338.63250000
vertex -61.09200000 225.99660000 -1338.63710000
vertex -59.75080000 222.50930000 -1338.69870000
endloop
endfacet
facet normal 0.156264 0.224475 -0.961869
outer loop
vertex -83.36090000 218.25770000 -1339.00490000
vertex -83.54050000 216.37350000 -1339.47380000
vertex -84.58510000 219.62410000 -1338.88490000
endloop
endfacet
facet normal 0.244561 0.473726 -0.846034
outer loop
vertex -81.45480000 223.75310000 -1336.81420000
vertex -83.42180000 224.19350000 -1337.13620000
vertex -80.33480000 224.88920000 -1335.85430000
endloop
endfacet
facet normal -0.133060 0.246433 -0.959982
outer loop
vertex -65.32760000 204.37660000 -1337.79960000
vertex -67.24550000 204.67720000 -1337.45660000
vertex -64.91270000 206.59240000 -1337.28830000
endloop
endfacet
facet normal -0.051288 0.149246 -0.987469
outer loop
vertex -66.95130000 206.36690000 -1337.21650000
vertex -64.91270000 206.59240000 -1337.28830000
vertex -67.24550000 204.67720000 -1337.45660000
endloop
endfacet
facet normal 0.207588 0.323127 -0.923307
outer loop
vertex -78.62080000 212.58640000 -1339.53870000
vertex -79.35780000 210.92710000 -1340.28510000
vertex -80.32990000 214.31930000 -1339.31650000
endloop
endfacet
facet normal 0.037419 -0.005418 -0.999285
outer loop
vertex -67.47240000 208.52790000 -1337.14480000
vertex -66.82690000 210.64360000 -1337.13210000
vertex -66.10860000 207.63680000 -1337.08890000
endloop
endfacet
facet normal -0.049912 -0.026268 -0.998408
outer loop
vertex -65.09950000 208.79430000 -1337.16980000
vertex -66.10860000 207.63680000 -1337.08890000
vertex -66.82690000 210.64360000 -1337.13210000
endloop
endfacet
facet normal -0.104688 -0.026743 -0.994146
outer loop
vertex -60.09580000 219.90540000 -1338.97520000
vertex -58.84150000 217.54550000 -1339.04380000
vertex -62.04030000 219.31300000 -1338.75450000
endloop
endfacet
facet normal -0.151060 -0.112640 -0.982086
outer loop
vertex -60.99750000 217.42540000 -1338.69840000
vertex -62.04030000 219.31300000 -1338.75450000
vertex -58.84150000 217.54550000 -1339.04380000
endloop
endfacet
facet normal -0.078630 0.112536 -0.990532
outer loop
vertex -71.79170000 219.39230000 -1336.49860000
vertex -71.82400000 221.69960000 -1336.23390000
vertex -69.26650000 217.26360000 -1336.94090000
endloop
endfacet
facet normal 0.091768 0.204842 -0.974484
outer loop
vertex -74.28030000 218.21160000 -1336.68160000
vertex -74.24140000 216.40450000 -1337.05780000
vertex -76.73210000 218.60830000 -1336.82910000
endloop
endfacet
facet normal 0.146965 0.264994 -0.952984
outer loop
vertex -76.26480000 216.46650000 -1337.35260000
vertex -76.73210000 218.60830000 -1336.82910000
vertex -74.24140000 216.40450000 -1337.05780000
endloop
endfacet
facet normal 0.213498 0.261609 -0.941265
outer loop
vertex -81.63220000 216.67810000 -1338.95630000
vertex -80.32990000 214.31930000 -1339.31650000
vertex -83.54050000 216.37350000 -1339.47380000
endloop
endfacet
facet normal 0.076539 0.043348 -0.996124
outer loop
vertex -82.73120000 214.07130000 -1339.51180000
vertex -83.54050000 216.37350000 -1339.47380000
vertex -80.32990000 214.31930000 -1339.31650000
endloop
endfacet
facet normal 0.040024 0.179037 -0.983028
outer loop
vertex -74.28030000 218.21160000 -1336.68160000
vertex -74.52770000 220.82280000 -1336.21610000
vertex -72.16620000 217.05760000 -1336.80570000
endloop
endfacet
facet normal -0.031503 0.135315 -0.990302
outer loop
vertex -71.79170000 219.39230000 -1336.49860000
vertex -72.16620000 217.05760000 -1336.80570000
vertex -74.52770000 220.82280000 -1336.21610000
endloop
endfacet
facet normal 0.221943 0.089145 -0.970976
outer loop
vertex -71.15760000 209.90490000 -1337.65310000
vertex -70.69030000 212.44370000 -1337.31320000
vertex -69.37860000 208.74990000 -1337.35250000
endloop
endfacet
facet normal 0.106583 0.048415 -0.993124
outer loop
vertex -68.95740000 210.45240000 -1337.22430000
vertex -69.37860000 208.74990000 -1337.35250000
vertex -70.69030000 212.44370000 -1337.31320000
endloop
endfacet
facet normal -0.300743 0.041073 -0.952820
outer loop
vertex -66.45570000 221.55640000 -1337.47240000
vertex -67.11180000 219.26470000 -1337.36410000
vertex -67.70470000 223.08220000 -1337.01240000
endloop
endfacet
facet normal -0.234123 0.053072 -0.970757
outer loop
vertex -69.23460000 220.88590000 -1336.76350000
vertex -67.70470000 223.08220000 -1337.01240000
vertex -67.11180000 219.26470000 -1337.36410000
endloop
endfacet
facet normal 0.177348 0.201780 -0.963241
outer loop
vertex -73.20560000 213.48250000 -1337.55870000
vertex -73.15910000 215.33680000 -1337.16170000
vertex -70.69030000 212.44370000 -1337.31320000
endloop
endfacet
facet normal 0.064090 0.106650 -0.992229
outer loop
vertex -71.15390000 214.99610000 -1337.06880000
vertex -70.69030000 212.44370000 -1337.31320000
vertex -73.15910000 215.33680000 -1337.16170000
endloop
endfacet
facet normal -0.220002 0.556000 -0.801538
outer loop
vertex -65.39150000 202.20450000 -1339.16770000
vertex -66.97030000 203.07460000 -1338.13080000
vertex -63.36780000 203.17320000 -1339.05120000
endloop
endfacet
facet normal -0.227265 0.499403 -0.836031
outer loop
vertex -65.32760000 204.37660000 -1337.79960000
vertex -63.36780000 203.17320000 -1339.05120000
vertex -66.97030000 203.07460000 -1338.13080000
endloop
endfacet
facet normal -0.133013 0.707330 -0.694256
outer loop
vertex -68.89440000 200.79920000 -1339.76980000
vertex -67.26390000 201.31370000 -1339.55800000
vertex -70.48010000 199.47670000 -1340.81340000
endloop
endfacet
facet normal 0.321110 0.232264 -0.918119
outer loop
vertex -81.16520000 221.69750000 -1337.37120000
vertex -83.07480000 222.64690000 -1337.79890000
vertex -79.05150000 222.97800000 -1336.30800000
endloop
endfacet
facet normal 0.299927 0.350539 -0.887224
outer loop
vertex -81.45480000 223.75310000 -1336.81420000
vertex -79.05150000 222.97800000 -1336.30800000
vertex -83.07480000 222.64690000 -1337.79890000
endloop
endfacet
facet normal 0.067630 0.096487 -0.993034
outer loop
vertex -60.09580000 219.90540000 -1338.97520000
vertex -59.75080000 222.50930000 -1338.69870000
vertex -58.11710000 219.25950000 -1338.90320000
endloop
endfacet
facet normal 0.176982 0.269951 -0.946469
outer loop
vertex -76.73210000 218.60830000 -1336.82910000
vertex -76.26480000 216.46650000 -1337.35260000
vertex -78.62370000 218.87060000 -1337.10800000
endloop
endfacet
facet normal 0.211315 0.301924 -0.929617
outer loop
vertex -78.41230000 216.95100000 -1337.68340000
vertex -78.62370000 218.87060000 -1337.10800000
vertex -76.26480000 216.46650000 -1337.35260000
endloop
endfacet
facet normal 0.226992 0.174744 -0.958091
outer loop
vertex -70.12610000 205.68270000 -1337.77000000
vertex -68.41470000 205.54910000 -1337.38890000
vertex -70.45520000 203.69940000 -1338.20970000
endloop
endfacet
facet normal 0.191417 0.213911 -0.957915
outer loop
vertex -68.57120000 204.09270000 -1337.74540000
vertex -70.45520000 203.69940000 -1338.20970000
vertex -68.41470000 205.54910000 -1337.38890000
endloop
endfacet
facet normal 0.048172 0.286985 -0.956723
outer loop
vertex -80.32990000 214.31930000 -1339.31650000
vertex -79.35780000 210.92710000 -1340.28510000
vertex -82.73120000 214.07130000 -1339.51180000
endloop
endfacet
facet normal -0.168670 0.060991 -0.983784
outer loop
vertex -80.94200000 212.03020000 -1339.94510000
vertex -82.73120000 214.07130000 -1339.51180000
vertex -79.35780000 210.92710000 -1340.28510000
endloop
endfacet
facet normal 0.207655 0.207804 -0.955875
outer loop
vertex -77.47940000 220.82330000 -1336.43490000
vertex -78.62370000 218.87060000 -1337.10800000
vertex -79.05150000 222.97800000 -1336.30800000
endloop
endfacet
facet normal 0.274338 0.211294 -0.938133
outer loop
vertex -79.65540000 220.33800000 -1337.07920000
vertex -79.05150000 222.97800000 -1336.30800000
vertex -78.62370000 218.87060000 -1337.10800000
endloop
endfacet
facet normal 0.329192 0.278719 -0.902191
outer loop
vertex -81.68630000 219.40760000 -1338.13280000
vertex -81.63220000 216.67810000 -1338.95630000
vertex -83.18920000 219.58200000 -1338.62730000
endloop
endfacet
facet normal 0.242786 0.236758 -0.940745
outer loop
vertex -83.36090000 218.25770000 -1339.00490000
vertex -83.18920000 219.58200000 -1338.62730000
vertex -81.63220000 216.67810000 -1338.95630000
endloop
endfacet
facet normal -0.043398 -0.020175 -0.998854
outer loop
vertex -66.82690000 210.64360000 -1337.13210000
vertex -66.27420000 212.85110000 -1337.20070000
vertex -65.09950000 208.79430000 -1337.16980000
endloop
endfacet
facet normal -0.090020 -0.033648 -0.995371
outer loop
vertex -64.49740000 211.23620000 -1337.30680000
vertex -65.09950000 208.79430000 -1337.16980000
vertex -66.27420000 212.85110000 -1337.20070000
endloop
endfacet
facet normal -0.444677 0.100177 -0.890071
outer loop
vertex -56.63230000 211.77730000 -1339.40580000
vertex -58.24060000 211.34280000 -1338.65120000
vertex -56.03250000 213.41710000 -1339.52090000
endloop
endfacet
facet normal -0.310416 -0.067128 -0.948228
outer loop
vertex -57.93980000 213.42250000 -1338.89690000
vertex -56.03250000 213.41710000 -1339.52090000
vertex -58.24060000 211.34280000 -1338.65120000
endloop
endfacet
facet normal -0.278880 -0.088107 -0.956276
outer loop
vertex -60.58500000 213.16660000 -1338.10190000
vertex -57.93980000 213.42250000 -1338.89690000
vertex -60.38760000 210.61420000 -1337.92430000
endloop
endfacet
facet normal -0.298755 -0.069239 -0.951815
outer loop
vertex -58.24060000 211.34280000 -1338.65120000
vertex -60.38760000 210.61420000 -1337.92430000
vertex -57.93980000 213.42250000 -1338.89690000
endloop
endfacet
facet normal -0.179198 -0.073763 -0.981044
outer loop
vertex -65.45900000 214.93360000 -1337.39500000
vertex -66.54510000 216.99360000 -1337.35150000
vertex -63.08700000 214.62410000 -1337.80500000
endloop
endfacet
facet normal -0.211673 -0.123363 -0.969524
outer loop
vertex -64.31700000 216.59000000 -1337.78660000
vertex -63.08700000 214.62410000 -1337.80500000
vertex -66.54510000 216.99360000 -1337.35150000
endloop
endfacet
facet normal -0.142173 0.116146 -0.983004
outer loop
vertex -85.77080000 217.46130000 -1339.02270000
vertex -86.46020000 219.98250000 -1338.62510000
vertex -83.54050000 216.37350000 -1339.47380000
endloop
endfacet
facet normal -0.108919 0.143208 -0.983681
outer loop
vertex -84.58510000 219.62410000 -1338.88490000
vertex -83.54050000 216.37350000 -1339.47380000
vertex -86.46020000 219.98250000 -1338.62510000
endloop
endfacet
facet normal -0.505323 0.456745 -0.732143
outer loop
vertex -55.39340000 207.85380000 -1340.97140000
vertex -57.19640000 208.09260000 -1339.57800000
vertex -54.24860000 209.65350000 -1340.63880000
endloop
endfacet
facet normal -0.380616 0.093572 -0.919987
outer loop
vertex -56.35740000 209.81130000 -1339.75030000
vertex -54.24860000 209.65350000 -1340.63880000
vertex -57.19640000 208.09260000 -1339.57800000
endloop
endfacet
facet normal 0.097618 0.020993 -0.995003
outer loop
vertex -78.35940000 205.75320000 -1340.19290000
vertex -76.99760000 207.99960000 -1340.01190000
vertex -76.05930000 203.21470000 -1340.02080000
endloop
endfacet
facet normal 0.302671 0.061122 -0.951133
outer loop
vertex -75.97480000 205.28140000 -1339.86110000
vertex -76.05930000 203.21470000 -1340.02080000
vertex -76.99760000 207.99960000 -1340.01190000
endloop
endfacet
facet normal -0.277529 -0.000610 -0.960717
outer loop
vertex -65.31350000 220.23040000 -1337.88420000
vertex -63.61610000 219.85370000 -1338.37430000
vertex -67.11180000 219.26470000 -1337.36410000
endloop
endfacet
facet normal -0.265311 -0.074135 -0.961308
outer loop
vertex -65.09610000 218.49300000 -1337.86090000
vertex -67.11180000 219.26470000 -1337.36410000
vertex -63.61610000 219.85370000 -1338.37430000
endloop
endfacet
facet normal 0.298492 0.072791 -0.951632
outer loop
vertex -72.20640000 206.72820000 -1338.27890000
vertex -70.64160000 207.77250000 -1337.70820000
vertex -71.81660000 205.20690000 -1338.27300000
endloop
endfacet
facet normal 0.259946 0.092546 -0.961178
outer loop
vertex -70.12610000 205.68270000 -1337.77000000
vertex -71.81660000 205.20690000 -1338.27300000
vertex -70.64160000 207.77250000 -1337.70820000
endloop
endfacet
facet normal -0.341995 0.870660 -0.353540
outer loop
vertex -64.06830000 201.56130000 -1340.74110000
vertex -63.15600000 201.32250000 -1342.21170000
vertex -66.00000000 200.61960000 -1341.19160000
endloop
endfacet
facet normal -0.389179 0.697241 -0.601992
outer loop
vertex -61.30060000 204.24900000 -1339.14160000
vertex -59.79570000 203.81730000 -1340.61450000
vertex -63.36780000 203.17320000 -1339.05120000
endloop
endfacet
facet normal -0.384080 0.716412 -0.582441
outer loop
vertex -61.87060000 202.57020000 -1340.78020000
vertex -63.36780000 203.17320000 -1339.05120000
vertex -59.79570000 203.81730000 -1340.61450000
endloop
endfacet
facet normal -0.264907 0.024683 -0.963958
outer loop
vertex -64.00140000 221.80350000 -1338.20450000
vertex -65.31350000 220.23040000 -1337.88420000
vertex -65.10400000 223.82230000 -1337.84980000
endloop
endfacet
facet normal -0.310909 0.027233 -0.950050
outer loop
vertex -66.45570000 221.55640000 -1337.47240000
vertex -65.10400000 223.82230000 -1337.84980000
vertex -65.31350000 220.23040000 -1337.88420000
endloop
endfacet
facet normal -0.183036 -0.115325 -0.976319
outer loop
vertex -60.58500000 213.16660000 -1338.10190000
vertex -62.22510000 211.46480000 -1337.59340000
vertex -63.08700000 214.62410000 -1337.80500000
endloop
endfacet
facet normal -0.123944 -0.099936 -0.987244
outer loop
vertex -63.07760000 212.69300000 -1337.61070000
vertex -63.08700000 214.62410000 -1337.80500000
vertex -62.22510000 211.46480000 -1337.59340000
endloop
endfacet
facet normal -0.221013 0.049648 -0.974006
outer loop
vertex -69.23460000 220.88590000 -1336.76350000
vertex -69.26650000 217.26360000 -1336.94090000
vertex -70.12680000 223.84140000 -1336.41040000
endloop
endfacet
facet normal -0.173650 0.056582 -0.983181
outer loop
vertex -71.82400000 221.69960000 -1336.23390000
vertex -70.12680000 223.84140000 -1336.41040000
vertex -69.26650000 217.26360000 -1336.94090000
endloop
endfacet
facet normal -0.250848 0.805790 -0.536450
outer loop
vertex -67.26390000 201.31370000 -1339.55800000
vertex -66.00000000 200.61960000 -1341.19160000
vertex -70.48010000 199.47670000 -1340.81340000
endloop
endfacet
facet normal -0.255937 0.852325 -0.456112
outer loop
vertex -68.07310000 199.73000000 -1341.69070000
vertex -70.48010000 199.47670000 -1340.81340000
vertex -66.00000000 200.61960000 -1341.19160000
endloop
endfacet
facet normal -0.259801 -0.080502 -0.962301
outer loop
vertex -63.61610000 219.85370000 -1338.37430000
vertex -62.04030000 219.31300000 -1338.75450000
vertex -65.09610000 218.49300000 -1337.86090000
endloop
endfacet
facet normal -0.252389 -0.107411 -0.961646
outer loop
vertex -63.09420000 217.96380000 -1338.32720000
vertex -65.09610000 218.49300000 -1337.86090000
vertex -62.04030000 219.31300000 -1338.75450000
endloop
endfacet
facet normal 0.161642 0.193782 -0.967637
outer loop
vertex -73.20560000 213.48250000 -1337.55870000
vertex -73.20090000 211.33640000 -1337.98770000
vertex -75.20200000 214.67540000 -1337.65330000
endloop
endfacet
facet normal 0.311168 0.277516 -0.908933
outer loop
vertex -75.81550000 212.44570000 -1338.54410000
vertex -75.20200000 214.67540000 -1337.65330000
vertex -73.20090000 211.33640000 -1337.98770000
endloop
endfacet
facet normal 0.091700 0.204383 -0.974586
outer loop
vertex -76.73210000 218.60830000 -1336.82910000
vertex -77.47940000 220.82330000 -1336.43490000
vertex -74.28030000 218.21160000 -1336.68160000
endloop
endfacet
facet normal 0.072724 0.181713 -0.980659
outer loop
vertex -74.52770000 220.82280000 -1336.21610000
vertex -74.28030000 218.21160000 -1336.68160000
vertex -77.47940000 220.82330000 -1336.43490000
endloop
endfacet
facet normal -0.350805 0.239215 -0.905379
outer loop
vertex -69.11990000 226.47980000 -1336.60350000
vertex -70.25430000 227.87660000 -1335.79490000
vertex -66.79370000 227.26260000 -1337.29800000
endloop
endfacet
facet normal 0.228345 0.174460 -0.957822
outer loop
vertex -70.45520000 203.69940000 -1338.20970000
vertex -72.39950000 204.21230000 -1338.57980000
vertex -70.12610000 205.68270000 -1337.77000000
endloop
endfacet
facet normal 0.241768 0.153837 -0.958062
outer loop
vertex -71.81660000 205.20690000 -1338.27300000
vertex -70.12610000 205.68270000 -1337.77000000
vertex -72.39950000 204.21230000 -1338.57980000
endloop
endfacet
facet normal -0.084370 0.048332 -0.995262
outer loop
vertex -61.95140000 221.27680000 -1338.75130000
vertex -61.92990000 223.76070000 -1338.63250000
vertex -60.09580000 219.90540000 -1338.97520000
endloop
endfacet
facet normal 0.028278 0.101845 -0.994398
outer loop
vertex -59.75080000 222.50930000 -1338.69870000
vertex -60.09580000 219.90540000 -1338.97520000
vertex -61.92990000 223.76070000 -1338.63250000
endloop
endfacet
facet normal -0.144311 0.049853 -0.988276
outer loop
vertex -62.97870000 207.38950000 -1337.53050000
vertex -64.91270000 206.59240000 -1337.28830000
vertex -62.67180000 209.63780000 -1337.46190000
endloop
endfacet
facet normal -0.133706 0.041943 -0.990133
outer loop
vertex -65.09950000 208.79430000 -1337.16980000
vertex -62.67180000 209.63780000 -1337.46190000
vertex -64.91270000 206.59240000 -1337.28830000
endloop
endfacet
facet normal -0.358729 0.860290 -0.362237
outer loop
vertex -63.15600000 201.32250000 -1342.21170000
vertex -64.06830000 201.56130000 -1340.74110000
vertex -61.59570000 201.70280000 -1342.85370000
endloop
endfacet
facet normal -0.388418 0.830634 -0.398972
outer loop
vertex -61.87060000 202.57020000 -1340.78020000
vertex -61.59570000 201.70280000 -1342.85370000
vertex -64.06830000 201.56130000 -1340.74110000
endloop
endfacet
facet normal 0.329902 0.312414 -0.890821
outer loop
vertex -79.79830000 216.05390000 -1338.51130000
vertex -78.41230000 216.95100000 -1337.68340000
vertex -80.32990000 214.31930000 -1339.31650000
endloop
endfacet
facet normal 0.284176 0.347456 -0.893599
outer loop
vertex -77.88960000 214.64760000 -1338.41280000
vertex -80.32990000 214.31930000 -1339.31650000
vertex -78.41230000 216.95100000 -1337.68340000
endloop
endfacet
endsolid Merged surface
