solid Surface
facet normal -0.228430 0.741051 -0.631397
outer loop
vertex -109.24240000 214.61870000 -1467.21610000
vertex -110.72980000 215.56580000 -1465.56640000
vertex -108.13950000 215.97480000 -1466.02350000
endloop
endfacet
facet normal -0.229723 0.704912 -0.671063
outer loop
vertex -108.13950000 215.97480000 -1466.02350000
vertex -110.72980000 215.56580000 -1465.56640000
vertex -109.14770000 216.91580000 -1464.68990000
endloop
endfacet
facet normal 0.050771 0.501314 -0.863775
outer loop
vertex -109.14770000 216.91580000 -1464.68990000
vertex -110.72980000 215.56580000 -1465.56640000
vertex -111.05630000 218.02540000 -1464.15810000
endloop
endfacet
facet normal -0.226099 0.707171 -0.669917
outer loop
vertex -109.14770000 216.91580000 -1464.68990000
vertex -106.80740000 217.46170000 -1464.90350000
vertex -108.13950000 215.97480000 -1466.02350000
endloop
endfacet
facet normal -0.102094 0.484050 -0.869064
outer loop
vertex -110.72980000 215.56580000 -1465.56640000
vertex -112.50400000 216.49990000 -1464.83770000
vertex -111.05630000 218.02540000 -1464.15810000
endloop
endfacet
facet normal 0.102641 0.321891 -0.941197
outer loop
vertex -111.05630000 218.02540000 -1464.15810000
vertex -112.50400000 216.49990000 -1464.83770000
vertex -113.55760000 218.29170000 -1464.33980000
endloop
endfacet
facet normal 0.041063 0.488393 -0.871657
outer loop
vertex -111.05630000 218.02540000 -1464.15810000
vertex -108.73860000 218.61100000 -1463.72080000
vertex -109.14770000 216.91580000 -1464.68990000
endloop
endfacet
facet normal 0.126834 0.183713 -0.974763
outer loop
vertex -115.28990000 220.17690000 -1464.20990000
vertex -112.55380000 220.34130000 -1463.82290000
vertex -113.55760000 218.29170000 -1464.33980000
endloop
endfacet
facet normal -0.127915 0.604091 -0.786582
outer loop
vertex -103.78000000 220.40740000 -1463.71300000
vertex -102.24050000 220.88560000 -1463.59610000
vertex -102.44430000 219.94830000 -1464.28280000
endloop
endfacet
facet normal 0.137073 0.047786 -0.989408
outer loop
vertex -112.55380000 220.34130000 -1463.82290000
vertex -115.28990000 220.17690000 -1464.20990000
vertex -114.14650000 222.71520000 -1463.92890000
endloop
endfacet
facet normal 0.210824 0.098018 -0.972597
outer loop
vertex -114.14650000 222.71520000 -1463.92890000
vertex -110.91020000 222.34000000 -1463.26520000
vertex -112.55380000 220.34130000 -1463.82290000
endloop
endfacet
facet normal 0.203679 0.025593 -0.978703
outer loop
vertex -114.14650000 222.71520000 -1463.92890000
vertex -112.15170000 224.29680000 -1463.47240000
vertex -110.91020000 222.34000000 -1463.26520000
endloop
endfacet
facet normal 0.030908 0.058110 -0.997832
outer loop
vertex -116.52370000 224.56790000 -1464.06270000
vertex -117.33130000 222.06800000 -1464.23330000
vertex -119.60240000 224.22040000 -1464.17830000
endloop
endfacet
facet normal -0.055880 0.118837 -0.991340
outer loop
vertex -104.79880000 221.87980000 -1463.19080000
vertex -106.64640000 222.50590000 -1463.01160000
vertex -104.86940000 223.54170000 -1462.98760000
endloop
endfacet
facet normal 0.120723 0.083462 -0.989171
outer loop
vertex -113.99050000 225.47500000 -1463.67700000
vertex -114.14650000 222.71520000 -1463.92890000
vertex -116.52370000 224.56790000 -1464.06270000
endloop
endfacet
facet normal 0.161137 0.080672 -0.983629
outer loop
vertex -112.15170000 224.29680000 -1463.47240000
vertex -114.14650000 222.71520000 -1463.92890000
vertex -113.99050000 225.47500000 -1463.67700000
endloop
endfacet
facet normal -0.267421 0.144637 -0.952663
outer loop
vertex -99.69820000 225.17320000 -1463.31060000
vertex -99.14880000 223.69070000 -1463.68990000
vertex -100.96830000 223.54020000 -1463.20200000
endloop
endfacet
facet normal -0.342724 0.111643 -0.932779
outer loop
vertex -99.69820000 225.17320000 -1463.31060000
vertex -97.84680000 224.75250000 -1464.04120000
vertex -99.14880000 223.69070000 -1463.68990000
endloop
endfacet
facet normal 0.062147 0.145986 -0.987333
outer loop
vertex -116.02620000 226.92680000 -1463.68260000
vertex -116.52370000 224.56790000 -1464.06270000
vertex -118.25640000 226.23140000 -1463.92580000
endloop
endfacet
facet normal 0.100785 0.137519 -0.985358
outer loop
vertex -113.99050000 225.47500000 -1463.67700000
vertex -116.52370000 224.56790000 -1464.06270000
vertex -116.02620000 226.92680000 -1463.68260000
endloop
endfacet
facet normal 0.174901 0.102924 -0.979192
outer loop
vertex -112.15170000 224.29680000 -1463.47240000
vertex -113.99050000 225.47500000 -1463.67700000
vertex -112.09750000 226.17500000 -1463.26530000
endloop
endfacet
facet normal 0.183239 0.102519 -0.977708
outer loop
vertex -112.15170000 224.29680000 -1463.47240000
vertex -112.09750000 226.17500000 -1463.26530000
vertex -110.08720000 225.05000000 -1463.00650000
endloop
endfacet
facet normal -0.279141 0.334631 -0.900057
outer loop
vertex -97.84680000 224.75250000 -1464.04120000
vertex -99.69820000 225.17320000 -1463.31060000
vertex -98.32660000 226.36900000 -1463.29140000
endloop
endfacet
facet normal -0.119521 0.388350 -0.913728
outer loop
vertex -97.84680000 224.75250000 -1464.04120000
vertex -98.32660000 226.36900000 -1463.29140000
vertex -96.55020000 226.45550000 -1463.48700000
endloop
endfacet
facet normal 0.067989 0.099795 -0.992682
outer loop
vertex -120.86480000 227.08300000 -1463.87620000
vertex -122.08000000 225.06600000 -1464.16220000
vertex -123.99290000 227.05060000 -1464.09370000
endloop
endfacet
facet normal 0.034479 0.119914 -0.992185
outer loop
vertex -119.60240000 224.22040000 -1464.17830000
vertex -122.08000000 225.06600000 -1464.16220000
vertex -120.86480000 227.08300000 -1463.87620000
endloop
endfacet
facet normal 0.017918 0.112745 -0.993462
outer loop
vertex -118.25640000 226.23140000 -1463.92580000
vertex -119.60240000 224.22040000 -1464.17830000
vertex -120.86480000 227.08300000 -1463.87620000
endloop
endfacet
facet normal 0.066394 0.179180 -0.981573
outer loop
vertex -120.86480000 227.08300000 -1463.87620000
vertex -123.99290000 227.05060000 -1464.09370000
vertex -122.77570000 229.18580000 -1463.62160000
endloop
endfacet
facet normal 0.052976 0.219007 -0.974284
outer loop
vertex -118.18660000 228.14790000 -1463.49120000
vertex -118.25640000 226.23140000 -1463.92580000
vertex -120.86480000 227.08300000 -1463.87620000
endloop
endfacet
facet normal 0.003605 0.331965 -0.943285
outer loop
vertex -118.18660000 228.14790000 -1463.49120000
vertex -120.86480000 227.08300000 -1463.87620000
vertex -120.19140000 229.62140000 -1462.98030000
endloop
endfacet
facet normal 0.185841 0.282814 -0.940999
outer loop
vertex -120.86480000 227.08300000 -1463.87620000
vertex -122.77570000 229.18580000 -1463.62160000
vertex -120.19140000 229.62140000 -1462.98030000
endloop
endfacet
facet normal -0.102718 0.088797 -0.990739
outer loop
vertex -127.15580000 231.38660000 -1463.86010000
vertex -128.67430000 229.62000000 -1463.86100000
vertex -129.35270000 231.20730000 -1463.64840000
endloop
endfacet
facet normal 0.360210 0.293797 -0.885399
outer loop
vertex -122.77570000 229.18580000 -1463.62160000
vertex -123.75970000 231.15800000 -1463.36750000
vertex -122.13000000 231.21280000 -1462.68630000
endloop
endfacet
facet normal -0.033144 0.352495 -0.935227
outer loop
vertex -116.17090000 228.91010000 -1463.30930000
vertex -117.79840000 230.05500000 -1462.82010000
vertex -115.79970000 230.65470000 -1462.66490000
endloop
endfacet
facet normal -0.405455 -0.087743 -0.909894
outer loop
vertex -94.12720000 229.74950000 -1463.55750000
vertex -94.52750000 231.55260000 -1463.55300000
vertex -92.72520000 231.59390000 -1464.36010000
endloop
endfacet
facet normal 0.110658 0.195825 -0.974375
outer loop
vertex -127.15580000 231.38660000 -1463.86010000
vertex -125.14610000 232.16910000 -1463.47460000
vertex -124.96960000 229.90640000 -1463.90930000
endloop
endfacet
facet normal -0.114555 0.277283 -0.953935
outer loop
vertex -127.15580000 231.38660000 -1463.86010000
vertex -129.35270000 231.20730000 -1463.64840000
vertex -128.74460000 233.14530000 -1463.15810000
endloop
endfacet
facet normal -0.174188 -0.022650 -0.984452
outer loop
vertex -95.68850000 233.39270000 -1463.41930000
vertex -96.19640000 231.81790000 -1463.29320000
vertex -97.80270000 232.95740000 -1463.03520000
endloop
endfacet
facet normal -0.210672 -0.076317 -0.974573
outer loop
vertex -96.19640000 231.81790000 -1463.29320000
vertex -97.51550000 231.28090000 -1462.96600000
vertex -97.80270000 232.95740000 -1463.03520000
endloop
endfacet
facet normal -0.122729 -0.005326 -0.992426
outer loop
vertex -93.67720000 233.44330000 -1463.66830000
vertex -94.52750000 231.55260000 -1463.55300000
vertex -95.68850000 233.39270000 -1463.41930000
endloop
endfacet
facet normal -0.158109 -0.028042 -0.987023
outer loop
vertex -94.52750000 231.55260000 -1463.55300000
vertex -96.19640000 231.81790000 -1463.29320000
vertex -95.68850000 233.39270000 -1463.41930000
endloop
endfacet
facet normal -0.407778 0.128259 -0.904028
outer loop
vertex -94.52750000 231.55260000 -1463.55300000
vertex -93.67720000 233.44330000 -1463.66830000
vertex -92.72520000 231.59390000 -1464.36010000
endloop
endfacet
facet normal -0.004015 0.367583 -0.929982
outer loop
vertex -127.15580000 231.38660000 -1463.86010000
vertex -128.74460000 233.14530000 -1463.15810000
vertex -126.36930000 233.74960000 -1462.92950000
endloop
endfacet
facet normal 0.041304 0.354185 -0.934263
outer loop
vertex -125.14610000 232.16910000 -1463.47460000
vertex -127.15580000 231.38660000 -1463.86010000
vertex -126.36930000 233.74960000 -1462.92950000
endloop
endfacet
facet normal 0.087519 0.350061 -0.932629
outer loop
vertex -108.73860000 218.61100000 -1463.72080000
vertex -111.05630000 218.02540000 -1464.15810000
vertex -110.30560000 220.04100000 -1463.33110000
endloop
endfacet
facet normal -0.008485 0.254254 -0.967100
outer loop
vertex -108.31680000 220.88560000 -1463.12650000
vertex -108.73860000 218.61100000 -1463.72080000
vertex -110.30560000 220.04100000 -1463.33110000
endloop
endfacet
facet normal 0.223935 0.086717 -0.970739
outer loop
vertex -110.91020000 222.34000000 -1463.26520000
vertex -110.30560000 220.04100000 -1463.33110000
vertex -112.55380000 220.34130000 -1463.82290000
endloop
endfacet
facet normal -0.120961 0.256410 -0.958969
outer loop
vertex -105.87980000 220.53470000 -1463.41410000
vertex -104.79880000 221.87980000 -1463.19080000
vertex -103.78000000 220.40740000 -1463.71300000
endloop
endfacet
facet normal -0.009734 0.080713 -0.996690
outer loop
vertex -106.64640000 222.50590000 -1463.01160000
vertex -108.31680000 220.88560000 -1463.12650000
vertex -108.66490000 223.14910000 -1462.93980000
endloop
endfacet
facet normal -0.021605 0.120433 -0.992486
outer loop
vertex -102.88150000 222.31440000 -1463.17980000
vertex -104.79880000 221.87980000 -1463.19080000
vertex -104.86940000 223.54170000 -1462.98760000
endloop
endfacet
facet normal -0.115117 0.229922 -0.966377
outer loop
vertex -102.24050000 220.88560000 -1463.59610000
vertex -102.88150000 222.31440000 -1463.17980000
vertex -101.02130000 221.64650000 -1463.56030000
endloop
endfacet
facet normal -0.131648 0.187846 -0.973336
outer loop
vertex -101.02130000 221.64650000 -1463.56030000
vertex -102.88150000 222.31440000 -1463.17980000
vertex -100.96830000 223.54020000 -1463.20200000
endloop
endfacet
facet normal 0.209754 0.029595 -0.977306
outer loop
vertex -110.08720000 225.05000000 -1463.00650000
vertex -110.91020000 222.34000000 -1463.26520000
vertex -112.15170000 224.29680000 -1463.47240000
endloop
endfacet
facet normal 0.122960 0.057237 -0.990760
outer loop
vertex -108.66490000 223.14910000 -1462.93980000
vertex -110.91020000 222.34000000 -1463.26520000
vertex -110.08720000 225.05000000 -1463.00650000
endloop
endfacet
facet normal -0.007545 0.087518 -0.996134
outer loop
vertex -107.23530000 224.87380000 -1462.79910000
vertex -106.64640000 222.50590000 -1463.01160000
vertex -108.66490000 223.14910000 -1462.93980000
endloop
endfacet
facet normal -0.033760 0.081000 -0.996142
outer loop
vertex -106.64640000 222.50590000 -1463.01160000
vertex -107.23530000 224.87380000 -1462.79910000
vertex -104.86940000 223.54170000 -1462.98760000
endloop
endfacet
facet normal -0.076554 0.101521 -0.991884
outer loop
vertex -103.08490000 224.10530000 -1462.98080000
vertex -100.96830000 223.54020000 -1463.20200000
vertex -102.88150000 222.31440000 -1463.17980000
endloop
endfacet
facet normal 0.073759 0.020202 -0.997072
outer loop
vertex -107.23530000 224.87380000 -1462.79910000
vertex -108.66490000 223.14910000 -1462.93980000
vertex -110.08720000 225.05000000 -1463.00650000
endloop
endfacet
facet normal -0.011107 0.120735 -0.992623
outer loop
vertex -104.81220000 225.43050000 -1462.75850000
vertex -104.86940000 223.54170000 -1462.98760000
vertex -107.23530000 224.87380000 -1462.79910000
endloop
endfacet
facet normal -0.077633 0.097603 -0.992193
outer loop
vertex -100.96830000 223.54020000 -1463.20200000
vertex -103.08490000 224.10530000 -1462.98080000
vertex -102.19240000 225.72400000 -1462.89140000
endloop
endfacet
facet normal -0.153879 0.054070 -0.986609
outer loop
vertex -99.69820000 225.17320000 -1463.31060000
vertex -100.96830000 223.54020000 -1463.20200000
vertex -102.19240000 225.72400000 -1462.89140000
endloop
endfacet
facet normal 0.082783 0.187894 -0.978694
outer loop
vertex -109.02120000 227.21910000 -1462.49990000
vertex -107.23530000 224.87380000 -1462.79910000
vertex -110.08720000 225.05000000 -1463.00650000
endloop
endfacet
facet normal -0.060317 0.088170 -0.994278
outer loop
vertex -102.19240000 225.72400000 -1462.89140000
vertex -103.08490000 224.10530000 -1462.98080000
vertex -104.81220000 225.43050000 -1462.75850000
endloop
endfacet
facet normal 0.061085 0.171947 -0.983210
outer loop
vertex -109.02120000 227.21910000 -1462.49990000
vertex -106.79200000 227.27230000 -1462.35210000
vertex -107.23530000 224.87380000 -1462.79910000
endloop
endfacet
facet normal -0.032879 0.181524 -0.982837
outer loop
vertex -104.52410000 227.39450000 -1462.40540000
vertex -104.81220000 225.43050000 -1462.75850000
vertex -106.79200000 227.27230000 -1462.35210000
endloop
endfacet
facet normal -0.026723 0.187918 -0.981821
outer loop
vertex -104.81220000 225.43050000 -1462.75850000
vertex -107.23530000 224.87380000 -1462.79910000
vertex -106.79200000 227.27230000 -1462.35210000
endloop
endfacet
facet normal -0.089754 0.160682 -0.982917
outer loop
vertex -102.15510000 227.98800000 -1462.52470000
vertex -102.19240000 225.72400000 -1462.89140000
vertex -104.52410000 227.39450000 -1462.40540000
endloop
endfacet
facet normal -0.070607 0.186531 -0.979909
outer loop
vertex -102.19240000 225.72400000 -1462.89140000
vertex -104.81220000 225.43050000 -1462.75850000
vertex -104.52410000 227.39450000 -1462.40540000
endloop
endfacet
facet normal -0.124819 0.177695 -0.976138
outer loop
vertex -99.98130000 227.10850000 -1462.92210000
vertex -99.69820000 225.17320000 -1463.31060000
vertex -102.19240000 225.72400000 -1462.89140000
endloop
endfacet
facet normal -0.114219 0.160673 -0.980376
outer loop
vertex -99.98130000 227.10850000 -1462.92210000
vertex -102.19240000 225.72400000 -1462.89140000
vertex -102.15510000 227.98800000 -1462.52470000
endloop
endfacet
facet normal -0.139181 0.175291 -0.974629
outer loop
vertex -98.32660000 226.36900000 -1463.29140000
vertex -99.69820000 225.17320000 -1463.31060000
vertex -99.98130000 227.10850000 -1462.92210000
endloop
endfacet
facet normal 0.117332 0.191957 -0.974364
outer loop
vertex -113.84540000 228.40740000 -1463.12830000
vertex -116.02620000 226.92680000 -1463.68260000
vertex -116.17090000 228.91010000 -1463.30930000
endloop
endfacet
facet normal 0.128388 0.176260 -0.975935
outer loop
vertex -113.99050000 225.47500000 -1463.67700000
vertex -116.02620000 226.92680000 -1463.68260000
vertex -113.84540000 228.40740000 -1463.12830000
endloop
endfacet
facet normal 0.198591 0.214183 -0.956393
outer loop
vertex -111.26620000 227.62660000 -1462.76760000
vertex -112.09750000 226.17500000 -1463.26530000
vertex -113.84540000 228.40740000 -1463.12830000
endloop
endfacet
facet normal 0.147060 0.174889 -0.973544
outer loop
vertex -112.09750000 226.17500000 -1463.26530000
vertex -113.99050000 225.47500000 -1463.67700000
vertex -113.84540000 228.40740000 -1463.12830000
endloop
endfacet
facet normal -0.095266 0.265893 -0.959284
outer loop
vertex -97.95260000 228.03270000 -1462.86740000
vertex -98.32660000 226.36900000 -1463.29140000
vertex -99.98130000 227.10850000 -1462.92210000
endloop
endfacet
facet normal -0.137056 0.285368 -0.948568
outer loop
vertex -96.55020000 226.45550000 -1463.48700000
vertex -95.76470000 228.44790000 -1463.00110000
vertex -94.94990000 226.95950000 -1463.56660000
endloop
endfacet
facet normal 0.214012 0.273767 -0.937684
outer loop
vertex -113.84540000 228.40740000 -1463.12830000
vertex -112.34500000 229.63550000 -1462.42730000
vertex -111.26620000 227.62660000 -1462.76760000
endloop
endfacet
facet normal -0.110199 0.170098 -0.979246
outer loop
vertex -99.98130000 227.10850000 -1462.92210000
vertex -102.15510000 227.98800000 -1462.52470000
vertex -99.89680000 229.13500000 -1462.57960000
endloop
endfacet
facet normal -0.050206 0.168472 -0.984427
outer loop
vertex -97.95260000 228.03270000 -1462.86740000
vertex -99.98130000 227.10850000 -1462.92210000
vertex -99.89680000 229.13500000 -1462.57960000
endloop
endfacet
facet normal 0.164653 0.369527 -0.914516
outer loop
vertex -120.19140000 229.62140000 -1462.98030000
vertex -122.77570000 229.18580000 -1463.62160000
vertex -122.13000000 231.21280000 -1462.68630000
endloop
endfacet
facet normal 0.003119 0.331376 -0.943493
outer loop
vertex -117.79840000 230.05500000 -1462.82010000
vertex -118.18660000 228.14790000 -1463.49120000
vertex -120.19140000 229.62140000 -1462.98030000
endloop
endfacet
facet normal -0.043590 0.339511 -0.939592
outer loop
vertex -118.18660000 228.14790000 -1463.49120000
vertex -117.79840000 230.05500000 -1462.82010000
vertex -116.17090000 228.91010000 -1463.30930000
endloop
endfacet
facet normal -0.166540 -0.029887 -0.985582
outer loop
vertex -97.76320000 229.84610000 -1462.70580000
vertex -95.84770000 230.32180000 -1463.04390000
vertex -95.76470000 228.44790000 -1463.00110000
endloop
endfacet
facet normal -0.296521 -0.034932 -0.954387
outer loop
vertex -95.84770000 230.32180000 -1463.04390000
vertex -94.12720000 229.74950000 -1463.55750000
vertex -95.76470000 228.44790000 -1463.00110000
endloop
endfacet
facet normal -0.042240 0.542981 -0.838682
outer loop
vertex -117.79840000 230.05500000 -1462.82010000
vertex -120.19140000 229.62140000 -1462.98030000
vertex -119.03330000 230.76490000 -1462.29830000
endloop
endfacet
facet normal 0.185801 0.305977 -0.933732
outer loop
vertex -113.84540000 228.40740000 -1463.12830000
vertex -113.80870000 231.06140000 -1462.25130000
vertex -112.34500000 229.63550000 -1462.42730000
endloop
endfacet
facet normal -0.230161 -0.135039 -0.963738
outer loop
vertex -97.51550000 231.28090000 -1462.96600000
vertex -97.76320000 229.84610000 -1462.70580000
vertex -99.62270000 231.45750000 -1462.48750000
endloop
endfacet
facet normal -0.075028 0.048352 -0.996009
outer loop
vertex -97.76320000 229.84610000 -1462.70580000
vertex -99.89680000 229.13500000 -1462.57960000
vertex -99.62270000 231.45750000 -1462.48750000
endloop
endfacet
facet normal -0.134452 -0.154299 -0.978833
outer loop
vertex -97.51550000 231.28090000 -1462.96600000
vertex -95.84770000 230.32180000 -1463.04390000
vertex -97.76320000 229.84610000 -1462.70580000
endloop
endfacet
facet normal -0.305350 -0.065419 -0.949990
outer loop
vertex -94.52750000 231.55260000 -1463.55300000
vertex -94.12720000 229.74950000 -1463.55750000
vertex -95.84770000 230.32180000 -1463.04390000
endloop
endfacet
facet normal -0.159186 -0.198259 -0.967137
outer loop
vertex -97.51550000 231.28090000 -1462.96600000
vertex -96.19640000 231.81790000 -1463.29320000
vertex -95.84770000 230.32180000 -1463.04390000
endloop
endfacet
facet normal -0.182012 -0.202751 -0.962166
outer loop
vertex -96.19640000 231.81790000 -1463.29320000
vertex -94.52750000 231.55260000 -1463.55300000
vertex -95.84770000 230.32180000 -1463.04390000
endloop
endfacet
facet normal 0.074467 0.508087 -0.858080
outer loop
vertex -113.80870000 231.06140000 -1462.25130000
vertex -115.79970000 230.65470000 -1462.66490000
vertex -115.55770000 232.65260000 -1461.46090000
endloop
endfacet
facet normal -0.330418 0.056912 -0.942117
outer loop
vertex -99.62270000 231.45750000 -1462.48750000
vertex -99.78450000 234.07720000 -1462.27250000
vertex -97.80270000 232.95740000 -1463.03520000
endloop
endfacet
facet normal -0.227038 -0.078960 -0.970680
outer loop
vertex -97.51550000 231.28090000 -1462.96600000
vertex -99.62270000 231.45750000 -1462.48750000
vertex -97.80270000 232.95740000 -1463.03520000
endloop
endfacet
facet normal 0.270802 0.494445 -0.825948
outer loop
vertex -124.00070000 233.28590000 -1462.43050000
vertex -125.14610000 232.16910000 -1463.47460000
vertex -126.36930000 233.74960000 -1462.92950000
endloop
endfacet
facet normal -0.055364 0.536233 -0.842252
outer loop
vertex -126.36930000 233.74960000 -1462.92950000
vertex -128.74460000 233.14530000 -1463.15810000
vertex -127.89270000 235.36860000 -1461.79860000
endloop
endfacet
facet normal -0.326678 0.064104 -0.942959
outer loop
vertex -97.80270000 232.95740000 -1463.03520000
vertex -99.78450000 234.07720000 -1462.27250000
vertex -97.21200000 235.38660000 -1463.07470000
endloop
endfacet
facet normal -0.184427 0.028872 -0.982422
outer loop
vertex -95.68850000 233.39270000 -1463.41930000
vertex -97.80270000 232.95740000 -1463.03520000
vertex -97.21200000 235.38660000 -1463.07470000
endloop
endfacet
facet normal -0.102928 0.092518 -0.990377
outer loop
vertex -94.85050000 235.06040000 -1463.35060000
vertex -95.68850000 233.39270000 -1463.41930000
vertex -97.21200000 235.38660000 -1463.07470000
endloop
endfacet
facet normal -0.124765 0.103343 -0.986790
outer loop
vertex -95.68850000 233.39270000 -1463.41930000
vertex -94.85050000 235.06040000 -1463.35060000
vertex -93.67720000 233.44330000 -1463.66830000
endloop
endfacet
facet normal -0.303521 0.012615 -0.952741
outer loop
vertex -99.78450000 234.07720000 -1462.27250000
vertex -99.67720000 237.11190000 -1462.26650000
vertex -97.21200000 235.38660000 -1463.07470000
endloop
endfacet
facet normal -0.308763 0.004370 -0.951129
outer loop
vertex -99.67720000 237.11190000 -1462.26650000
vertex -96.93150000 237.51070000 -1463.15600000
vertex -97.21200000 235.38660000 -1463.07470000
endloop
endfacet
facet normal 0.212932 0.273254 -0.938079
outer loop
vertex -111.26620000 227.62660000 -1462.76760000
vertex -112.34500000 229.63550000 -1462.42730000
vertex -110.51130000 229.39750000 -1462.08040000
endloop
endfacet
facet normal 0.165696 0.294582 -0.941151
outer loop
vertex -109.02120000 227.21910000 -1462.49990000
vertex -111.26620000 227.62660000 -1462.76760000
vertex -110.51130000 229.39750000 -1462.08040000
endloop
endfacet
facet normal 0.109414 0.259615 -0.959494
outer loop
vertex -110.51130000 229.39750000 -1462.08040000
vertex -108.40470000 229.41590000 -1461.83520000
vertex -109.02120000 227.21910000 -1462.49990000
endloop
endfacet
facet normal 0.057095 0.274424 -0.959912
outer loop
vertex -108.40470000 229.41590000 -1461.83520000
vertex -106.79200000 227.27230000 -1462.35210000
vertex -109.02120000 227.21910000 -1462.49990000
endloop
endfacet
facet normal -0.036565 0.257430 -0.965605
outer loop
vertex -104.52410000 227.39450000 -1462.40540000
vertex -106.79200000 227.27230000 -1462.35210000
vertex -106.27060000 229.42250000 -1461.79860000
endloop
endfacet
facet normal -0.075352 0.225723 -0.971273
outer loop
vertex -104.08900000 229.44380000 -1461.96290000
vertex -104.52410000 227.39450000 -1462.40540000
vertex -106.27060000 229.42250000 -1461.79860000
endloop
endfacet
facet normal -0.106680 0.231448 -0.966981
outer loop
vertex -104.52410000 227.39450000 -1462.40540000
vertex -104.08900000 229.44380000 -1461.96290000
vertex -102.15510000 227.98800000 -1462.52470000
endloop
endfacet
facet normal -0.140784 0.188084 -0.972010
outer loop
vertex -101.91750000 230.17980000 -1462.13500000
vertex -102.15510000 227.98800000 -1462.52470000
vertex -104.08900000 229.44380000 -1461.96290000
endloop
endfacet
facet normal -0.118304 0.186242 -0.975355
outer loop
vertex -101.91750000 230.17980000 -1462.13500000
vertex -99.89680000 229.13500000 -1462.57960000
vertex -102.15510000 227.98800000 -1462.52470000
endloop
endfacet
facet normal 0.254618 0.466646 -0.847002
outer loop
vertex -120.20900000 231.60400000 -1461.89330000
vertex -120.19140000 229.62140000 -1462.98030000
vertex -122.13000000 231.21280000 -1462.68630000
endloop
endfacet
facet normal 0.041279 0.480626 -0.875954
outer loop
vertex -119.03330000 230.76490000 -1462.29830000
vertex -120.19140000 229.62140000 -1462.98030000
vertex -120.20900000 231.60400000 -1461.89330000
endloop
endfacet
facet normal 0.231401 0.349595 -0.907875
outer loop
vertex -113.80870000 231.06140000 -1462.25130000
vertex -111.82880000 231.27840000 -1461.66310000
vertex -112.34500000 229.63550000 -1462.42730000
endloop
endfacet
facet normal 0.218027 0.354459 -0.909298
outer loop
vertex -110.51130000 229.39750000 -1462.08040000
vertex -112.34500000 229.63550000 -1462.42730000
vertex -111.82880000 231.27840000 -1461.66310000
endloop
endfacet
facet normal 0.163948 0.321732 -0.932529
outer loop
vertex -109.78110000 231.41780000 -1461.25500000
vertex -110.51130000 229.39750000 -1462.08040000
vertex -111.82880000 231.27840000 -1461.66310000
endloop
endfacet
facet normal 0.105639 0.343133 -0.933328
outer loop
vertex -108.40470000 229.41590000 -1461.83520000
vertex -110.51130000 229.39750000 -1462.08040000
vertex -109.78110000 231.41780000 -1461.25500000
endloop
endfacet
facet normal -0.074821 0.279314 -0.957280
outer loop
vertex -104.08900000 229.44380000 -1461.96290000
vertex -106.27060000 229.42250000 -1461.79860000
vertex -105.34820000 231.41920000 -1461.28810000
endloop
endfacet
facet normal -0.127315 0.246993 -0.960617
outer loop
vertex -104.08900000 229.44380000 -1461.96290000
vertex -105.34820000 231.41920000 -1461.28810000
vertex -103.51400000 231.30950000 -1461.55940000
endloop
endfacet
facet normal -0.162331 0.256120 -0.952917
outer loop
vertex -101.91750000 230.17980000 -1462.13500000
vertex -104.08900000 229.44380000 -1461.96290000
vertex -103.51400000 231.30950000 -1461.55940000
endloop
endfacet
facet normal -0.184465 0.060671 -0.980965
outer loop
vertex -99.62270000 231.45750000 -1462.48750000
vertex -99.89680000 229.13500000 -1462.57960000
vertex -101.91750000 230.17980000 -1462.13500000
endloop
endfacet
facet normal 0.002349 0.437343 -0.899292
outer loop
vertex -119.03330000 230.76490000 -1462.29830000
vertex -120.20900000 231.60400000 -1461.89330000
vertex -117.99190000 231.85550000 -1461.76520000
endloop
endfacet
facet normal -0.078935 0.497612 -0.863801
outer loop
vertex -119.03330000 230.76490000 -1462.29830000
vertex -117.99190000 231.85550000 -1461.76520000
vertex -117.79840000 230.05500000 -1462.82010000
endloop
endfacet
facet normal -0.064114 0.520776 -0.851282
outer loop
vertex -115.79970000 230.65470000 -1462.66490000
vertex -117.99190000 231.85550000 -1461.76520000
vertex -115.55770000 232.65260000 -1461.46090000
endloop
endfacet
facet normal -0.082121 0.497225 -0.863726
outer loop
vertex -115.79970000 230.65470000 -1462.66490000
vertex -117.79840000 230.05500000 -1462.82010000
vertex -117.99190000 231.85550000 -1461.76520000
endloop
endfacet
facet normal -0.250474 0.187845 -0.949725
outer loop
vertex -99.62270000 231.45750000 -1462.48750000
vertex -101.91750000 230.17980000 -1462.13500000
vertex -101.82290000 232.52750000 -1461.69560000
endloop
endfacet
facet normal 0.385390 0.447347 -0.807066
outer loop
vertex -122.13000000 231.21280000 -1462.68630000
vertex -124.00070000 233.28590000 -1462.43050000
vertex -121.87590000 233.25950000 -1461.43050000
endloop
endfacet
facet normal 0.247825 0.484124 -0.839170
outer loop
vertex -120.20900000 231.60400000 -1461.89330000
vertex -122.13000000 231.21280000 -1462.68630000
vertex -121.87590000 233.25950000 -1461.43050000
endloop
endfacet
facet normal 0.069981 0.504418 -0.860619
outer loop
vertex -113.17550000 232.80000000 -1461.18080000
vertex -113.80870000 231.06140000 -1462.25130000
vertex -115.55770000 232.65260000 -1461.46090000
endloop
endfacet
facet normal 0.206851 0.457239 -0.864954
outer loop
vertex -111.82880000 231.27840000 -1461.66310000
vertex -113.80870000 231.06140000 -1462.25130000
vertex -113.17550000 232.80000000 -1461.18080000
endloop
endfacet
facet normal 0.079166 0.429778 -0.899457
outer loop
vertex -115.55770000 232.65260000 -1461.46090000
vertex -114.23490000 234.34670000 -1460.53500000
vertex -113.17550000 232.80000000 -1461.18080000
endloop
endfacet
facet normal 0.057420 0.607450 -0.792280
outer loop
vertex -126.36930000 233.74960000 -1462.92950000
vertex -127.89270000 235.36860000 -1461.79860000
vertex -125.52100000 235.45470000 -1461.56070000
endloop
endfacet
facet normal 0.308523 0.532404 -0.788263
outer loop
vertex -123.46450000 235.15310000 -1460.95950000
vertex -124.00070000 233.28590000 -1462.43050000
vertex -125.52100000 235.45470000 -1461.56070000
endloop
endfacet
facet normal 0.272152 0.516407 -0.811946
outer loop
vertex -125.52100000 235.45470000 -1461.56070000
vertex -124.00070000 233.28590000 -1462.43050000
vertex -126.36930000 233.74960000 -1462.92950000
endloop
endfacet
facet normal 0.372440 0.505966 -0.778002
outer loop
vertex -124.00070000 233.28590000 -1462.43050000
vertex -123.46450000 235.15310000 -1460.95950000
vertex -121.87590000 233.25950000 -1461.43050000
endloop
endfacet
facet normal -0.384674 0.015426 -0.922924
outer loop
vertex -101.91380000 234.90940000 -1461.37110000
vertex -99.67720000 237.11190000 -1462.26650000
vertex -99.78450000 234.07720000 -1462.27250000
endloop
endfacet
facet normal -0.295762 -0.064013 -0.953114
outer loop
vertex -102.79940000 237.17630000 -1461.18750000
vertex -103.23960000 239.71940000 -1461.22170000
vertex -101.35290000 239.07820000 -1461.76410000
endloop
endfacet
facet normal -0.191525 0.043037 -0.980544
outer loop
vertex -99.45200000 240.21040000 -1462.08570000
vertex -101.35290000 239.07820000 -1461.76410000
vertex -101.48160000 241.55620000 -1461.63020000
endloop
endfacet
facet normal 0.033598 0.299454 -0.953519
outer loop
vertex -107.57150000 231.84780000 -1461.04210000
vertex -108.40470000 229.41590000 -1461.83520000
vertex -109.78110000 231.41780000 -1461.25500000
endloop
endfacet
facet normal -0.054151 0.270749 -0.961126
outer loop
vertex -106.27060000 229.42250000 -1461.79860000
vertex -107.57150000 231.84780000 -1461.04210000
vertex -105.34820000 231.41920000 -1461.28810000
endloop
endfacet
facet normal 0.228384 0.468532 -0.853416
outer loop
vertex -119.76510000 233.40490000 -1460.78580000
vertex -120.20900000 231.60400000 -1461.89330000
vertex -121.87590000 233.25950000 -1461.43050000
endloop
endfacet
facet normal -0.010485 0.525687 -0.850614
outer loop
vertex -120.20900000 231.60400000 -1461.89330000
vertex -119.76510000 233.40490000 -1460.78580000
vertex -117.99190000 231.85550000 -1461.76520000
endloop
endfacet
facet normal -0.000435 0.533962 -0.845509
outer loop
vertex -117.99190000 231.85550000 -1461.76520000
vertex -119.76510000 233.40490000 -1460.78580000
vertex -117.61390000 233.70260000 -1460.59890000
endloop
endfacet
facet normal -0.073294 0.543143 -0.836435
outer loop
vertex -117.61390000 233.70260000 -1460.59890000
vertex -115.55770000 232.65260000 -1461.46090000
vertex -117.99190000 231.85550000 -1461.76520000
endloop
endfacet
facet normal 0.147143 0.414841 -0.897917
outer loop
vertex -113.17550000 232.80000000 -1461.18080000
vertex -111.18960000 233.09560000 -1460.71880000
vertex -111.82880000 231.27840000 -1461.66310000
endloop
endfacet
facet normal 0.150797 0.413550 -0.897907
outer loop
vertex -109.78110000 231.41780000 -1461.25500000
vertex -111.82880000 231.27840000 -1461.66310000
vertex -111.18960000 233.09560000 -1460.71880000
endloop
endfacet
facet normal 0.040367 0.334758 -0.941439
outer loop
vertex -109.37220000 233.62030000 -1460.45430000
vertex -109.78110000 231.41780000 -1461.25500000
vertex -111.18960000 233.09560000 -1460.71880000
endloop
endfacet
facet normal 0.024998 0.337455 -0.941010
outer loop
vertex -107.57150000 231.84780000 -1461.04210000
vertex -109.78110000 231.41780000 -1461.25500000
vertex -109.37220000 233.62030000 -1460.45430000
endloop
endfacet
facet normal -0.053582 0.273303 -0.960435
outer loop
vertex -106.05440000 233.23990000 -1460.73060000
vertex -105.34820000 231.41920000 -1461.28810000
vertex -107.57150000 231.84780000 -1461.04210000
endloop
endfacet
facet normal -0.113055 0.488774 -0.865054
outer loop
vertex -117.61390000 233.70260000 -1460.59890000
vertex -115.92780000 234.33790000 -1460.46030000
vertex -115.55770000 232.65260000 -1461.46090000
endloop
endfacet
facet normal -0.040700 0.503475 -0.863051
outer loop
vertex -114.23490000 234.34670000 -1460.53500000
vertex -115.55770000 232.65260000 -1461.46090000
vertex -115.92780000 234.33790000 -1460.46030000
endloop
endfacet
facet normal 0.103677 0.442859 -0.890577
outer loop
vertex -112.51620000 234.30390000 -1460.35620000
vertex -113.17550000 232.80000000 -1461.18080000
vertex -114.23490000 234.34670000 -1460.53500000
endloop
endfacet
facet normal 0.144275 0.426372 -0.892968
outer loop
vertex -111.18960000 233.09560000 -1460.71880000
vertex -113.17550000 232.80000000 -1461.18080000
vertex -112.51620000 234.30390000 -1460.35620000
endloop
endfacet
facet normal 0.282568 0.448028 -0.848190
outer loop
vertex -121.30800000 235.04420000 -1460.29860000
vertex -121.87590000 233.25950000 -1461.43050000
vertex -123.46450000 235.15310000 -1460.95950000
endloop
endfacet
facet normal 0.228375 0.468574 -0.853395
outer loop
vertex -121.87590000 233.25950000 -1461.43050000
vertex -121.30800000 235.04420000 -1460.29860000
vertex -119.76510000 233.40490000 -1460.78580000
endloop
endfacet
facet normal -0.110159 0.170791 -0.979130
outer loop
vertex -106.05440000 233.23990000 -1460.73060000
vertex -107.58750000 234.32810000 -1460.36830000
vertex -105.65480000 234.90450000 -1460.48520000
endloop
endfacet
facet normal -0.184975 0.124642 -0.974807
outer loop
vertex -103.80400000 235.38000000 -1460.77560000
vertex -104.00200000 233.40780000 -1460.99020000
vertex -105.65480000 234.90450000 -1460.48520000
endloop
endfacet
facet normal -0.137728 0.176737 -0.974574
outer loop
vertex -104.00200000 233.40780000 -1460.99020000
vertex -106.05440000 233.23990000 -1460.73060000
vertex -105.65480000 234.90450000 -1460.48520000
endloop
endfacet
facet normal -0.156293 0.005132 -0.987697
outer loop
vertex -103.80400000 235.38000000 -1460.77560000
vertex -105.65480000 234.90450000 -1460.48520000
vertex -105.21190000 236.55660000 -1460.54670000
endloop
endfacet
facet normal -0.159681 0.503619 -0.849041
outer loop
vertex -128.43070000 237.29660000 -1460.55380000
vertex -126.44960000 237.58470000 -1460.75550000
vertex -127.89270000 235.36860000 -1461.79860000
endloop
endfacet
facet normal 0.078477 0.382268 -0.920713
outer loop
vertex -127.89270000 235.36860000 -1461.79860000
vertex -126.44960000 237.58470000 -1460.75550000
vertex -125.52100000 235.45470000 -1461.56070000
endloop
endfacet
facet normal 0.217844 0.426777 -0.877727
outer loop
vertex -126.44960000 237.58470000 -1460.75550000
vertex -124.44770000 237.08750000 -1460.50040000
vertex -125.52100000 235.45470000 -1461.56070000
endloop
endfacet
facet normal 0.310175 0.365901 -0.877444
outer loop
vertex -123.46450000 235.15310000 -1460.95950000
vertex -125.52100000 235.45470000 -1461.56070000
vertex -124.44770000 237.08750000 -1460.50040000
endloop
endfacet
facet normal -0.310203 -0.044273 -0.949639
outer loop
vertex -101.91380000 234.90940000 -1461.37110000
vertex -103.80400000 235.38000000 -1460.77560000
vertex -102.79940000 237.17630000 -1461.18750000
endloop
endfacet
facet normal -0.178192 -0.015357 -0.983876
outer loop
vertex -107.00770000 237.79730000 -1460.33360000
vertex -106.69690000 239.25230000 -1460.41260000
vertex -105.00000000 238.32140000 -1460.70540000
endloop
endfacet
facet normal -0.017974 -0.017328 -0.999688
outer loop
vertex -115.55320000 238.82750000 -1460.17570000
vertex -114.04170000 239.90770000 -1460.22160000
vertex -113.55830000 238.21210000 -1460.20090000
endloop
endfacet
facet normal -0.163170 0.187159 -0.968683
outer loop
vertex -114.04170000 239.90770000 -1460.22160000
vertex -115.55320000 238.82750000 -1460.17570000
vertex -115.76300000 240.58600000 -1459.80060000
endloop
endfacet
facet normal 0.027969 0.110645 -0.993466
outer loop
vertex -110.24150000 239.01870000 -1460.25390000
vertex -112.06550000 239.59650000 -1460.24090000
vertex -110.10420000 241.10480000 -1460.01770000
endloop
endfacet
facet normal -0.018915 0.113716 -0.993333
outer loop
vertex -108.48550000 239.27410000 -1460.25810000
vertex -110.24150000 239.01870000 -1460.25390000
vertex -110.10420000 241.10480000 -1460.01770000
endloop
endfacet
facet normal -0.250483 0.006650 -0.968098
outer loop
vertex -103.68730000 242.20030000 -1461.09850000
vertex -105.33320000 240.37250000 -1460.68520000
vertex -105.91980000 242.44330000 -1460.51920000
endloop
endfacet
facet normal -0.247208 0.003507 -0.968956
outer loop
vertex -103.23960000 239.71940000 -1461.22170000
vertex -105.33320000 240.37250000 -1460.68520000
vertex -103.68730000 242.20030000 -1461.09850000
endloop
endfacet
facet normal -0.255963 0.019649 -0.966487
outer loop
vertex -104.45300000 244.11890000 -1460.87360000
vertex -105.91980000 242.44330000 -1460.51920000
vertex -106.34180000 244.62910000 -1460.36300000
endloop
endfacet
facet normal -0.249732 0.013829 -0.968216
outer loop
vertex -103.68730000 242.20030000 -1461.09850000
vertex -105.91980000 242.44330000 -1460.51920000
vertex -104.45300000 244.11890000 -1460.87360000
endloop
endfacet
facet normal -0.236895 -0.019873 -0.971332
outer loop
vertex -104.27460000 246.47850000 -1460.90500000
vertex -106.34180000 244.62910000 -1460.36300000
vertex -106.59070000 246.79450000 -1460.34660000
endloop
endfacet
facet normal -0.259258 0.006749 -0.965785
outer loop
vertex -104.45300000 244.11890000 -1460.87360000
vertex -106.34180000 244.62910000 -1460.36300000
vertex -104.27460000 246.47850000 -1460.90500000
endloop
endfacet
facet normal -0.171224 -0.000165 -0.985232
outer loop
vertex -101.88590000 244.48420000 -1461.31980000
vertex -104.45300000 244.11890000 -1460.87360000
vertex -104.27460000 246.47850000 -1460.90500000
endloop
endfacet
facet normal -0.235717 -0.010477 -0.971765
outer loop
vertex -106.59070000 246.79450000 -1460.34660000
vertex -105.71330000 248.99030000 -1460.58310000
vertex -104.27460000 246.47850000 -1460.90500000
endloop
endfacet
facet normal -0.121861 0.057190 -0.990898
outer loop
vertex -103.09640000 248.90240000 -1460.91000000
vertex -104.27460000 246.47850000 -1460.90500000
vertex -105.71330000 248.99030000 -1460.58310000
endloop
endfacet
facet normal 0.118499 0.383712 -0.915818
outer loop
vertex -119.10960000 235.20040000 -1459.94870000
vertex -119.76510000 233.40490000 -1460.78580000
vertex -121.30800000 235.04420000 -1460.29860000
endloop
endfacet
facet normal 0.021411 0.416025 -0.909101
outer loop
vertex -117.61390000 233.70260000 -1460.59890000
vertex -119.76510000 233.40490000 -1460.78580000
vertex -119.10960000 235.20040000 -1459.94870000
endloop
endfacet
facet normal -0.069858 0.337712 -0.938653
outer loop
vertex -117.10610000 235.59010000 -1459.95760000
vertex -117.61390000 233.70260000 -1460.59890000
vertex -119.10960000 235.20040000 -1459.94870000
endloop
endfacet
facet normal -0.048014 0.332886 -0.941744
outer loop
vertex -117.61390000 233.70260000 -1460.59890000
vertex -117.10610000 235.59010000 -1459.95760000
vertex -115.92780000 234.33790000 -1460.46030000
endloop
endfacet
facet normal 0.140394 0.197413 -0.970215
outer loop
vertex -119.10960000 235.20040000 -1459.94870000
vertex -121.30800000 235.04420000 -1460.29860000
vertex -120.38100000 236.73710000 -1459.82000000
endloop
endfacet
facet normal 0.048070 0.228458 -0.972366
outer loop
vertex -113.02570000 236.06120000 -1460.07240000
vertex -114.23490000 234.34670000 -1460.53500000
vertex -115.14480000 236.40280000 -1460.09690000
endloop
endfacet
facet normal 0.106261 0.188481 -0.976311
outer loop
vertex -112.51620000 234.30390000 -1460.35620000
vertex -114.23490000 234.34670000 -1460.53500000
vertex -113.02570000 236.06120000 -1460.07240000
endloop
endfacet
facet normal 0.074016 0.179873 -0.980901
outer loop
vertex -111.13660000 235.12680000 -1460.10120000
vertex -112.51620000 234.30390000 -1460.35620000
vertex -113.02570000 236.06120000 -1460.07240000
endloop
endfacet
facet normal -0.085838 0.091992 -0.992053
outer loop
vertex -107.38390000 236.18100000 -1460.21410000
vertex -107.58750000 234.32810000 -1460.36830000
vertex -109.39880000 235.77940000 -1460.07700000
endloop
endfacet
facet normal -0.087480 0.092159 -0.991894
outer loop
vertex -105.65480000 234.90450000 -1460.48520000
vertex -107.58750000 234.32810000 -1460.36830000
vertex -107.38390000 236.18100000 -1460.21410000
endloop
endfacet
facet normal 0.137092 0.199248 -0.970312
outer loop
vertex -122.46690000 236.72010000 -1460.11820000
vertex -120.38100000 236.73710000 -1459.82000000
vertex -121.30800000 235.04420000 -1460.29860000
endloop
endfacet
facet normal -0.010913 0.074484 -0.997162
outer loop
vertex -119.10960000 235.20040000 -1459.94870000
vertex -120.38100000 236.73710000 -1459.82000000
vertex -118.43470000 237.12000000 -1459.81270000
endloop
endfacet
facet normal -0.019498 0.077477 -0.996803
outer loop
vertex -117.10610000 235.59010000 -1459.95760000
vertex -119.10960000 235.20040000 -1459.94870000
vertex -118.43470000 237.12000000 -1459.81270000
endloop
endfacet
facet normal -0.061018 -0.034407 -0.997543
outer loop
vertex -107.38390000 236.18100000 -1460.21410000
vertex -109.39880000 235.77940000 -1460.07700000
vertex -109.08000000 237.59140000 -1460.15900000
endloop
endfacet
facet normal -0.144580 -0.039448 -0.988707
outer loop
vertex -107.38390000 236.18100000 -1460.21410000
vertex -107.00770000 237.79730000 -1460.33360000
vertex -105.21190000 236.55660000 -1460.54670000
endloop
endfacet
facet normal 0.199450 0.057699 -0.978208
outer loop
vertex -123.00680000 238.50840000 -1460.12280000
vertex -122.46690000 236.72010000 -1460.11820000
vertex -124.44770000 237.08750000 -1460.50040000
endloop
endfacet
facet normal 0.141598 -0.010631 -0.989867
outer loop
vertex -120.38100000 236.73710000 -1459.82000000
vertex -122.46690000 236.72010000 -1460.11820000
vertex -121.14640000 238.32100000 -1459.94650000
endloop
endfacet
facet normal 0.096975 0.026718 -0.994928
outer loop
vertex -121.14640000 238.32100000 -1459.94650000
vertex -122.46690000 236.72010000 -1460.11820000
vertex -123.00680000 238.50840000 -1460.12280000
endloop
endfacet
facet normal -0.111200 -0.050985 -0.992489
outer loop
vertex -115.55320000 238.82750000 -1460.17570000
vertex -115.14480000 236.40280000 -1460.09690000
vertex -116.78420000 237.49450000 -1459.96930000
endloop
endfacet
facet normal -0.023877 -0.036490 -0.999049
outer loop
vertex -113.55830000 238.21210000 -1460.20090000
vertex -115.14480000 236.40280000 -1460.09690000
vertex -115.55320000 238.82750000 -1460.17570000
endloop
endfacet
facet normal 0.002008 -0.059141 -0.998248
outer loop
vertex -113.02570000 236.06120000 -1460.07240000
vertex -115.14480000 236.40280000 -1460.09690000
vertex -113.55830000 238.21210000 -1460.20090000
endloop
endfacet
facet normal 0.020068 -0.054672 -0.998303
outer loop
vertex -111.31190000 237.43710000 -1460.11330000
vertex -113.02570000 236.06120000 -1460.07240000
vertex -113.55830000 238.21210000 -1460.20090000
endloop
endfacet
facet normal -0.017543 -0.042120 -0.998959
outer loop
vertex -109.08000000 237.59140000 -1460.15900000
vertex -109.39880000 235.77940000 -1460.07700000
vertex -111.31190000 237.43710000 -1460.11330000
endloop
endfacet
facet normal -0.014985 -0.078471 -0.996804
outer loop
vertex -109.08000000 237.59140000 -1460.15900000
vertex -111.31190000 237.43710000 -1460.11330000
vertex -110.24150000 239.01870000 -1460.25390000
endloop
endfacet
facet normal -0.078366 -0.055353 -0.995387
outer loop
vertex -107.00770000 237.79730000 -1460.33360000
vertex -107.38390000 236.18100000 -1460.21410000
vertex -109.08000000 237.59140000 -1460.15900000
endloop
endfacet
facet normal -0.032245 0.239274 -0.970416
outer loop
vertex -126.51740000 239.48700000 -1460.28420000
vertex -126.44960000 237.58470000 -1460.75550000
vertex -128.00610000 238.98910000 -1460.35750000
endloop
endfacet
facet normal -0.120970 0.144256 -0.982118
outer loop
vertex -126.44960000 237.58470000 -1460.75550000
vertex -128.43070000 237.29660000 -1460.55380000
vertex -128.00610000 238.98910000 -1460.35750000
endloop
endfacet
facet normal 0.163777 0.159977 -0.973439
outer loop
vertex -124.72380000 239.20900000 -1460.19820000
vertex -124.44770000 237.08750000 -1460.50040000
vertex -126.44960000 237.58470000 -1460.75550000
endloop
endfacet
facet normal 0.083922 0.242451 -0.966527
outer loop
vertex -124.72380000 239.20900000 -1460.19820000
vertex -126.44960000 237.58470000 -1460.75550000
vertex -126.51740000 239.48700000 -1460.28420000
endloop
endfacet
facet normal 0.105866 0.153721 -0.982427
outer loop
vertex -123.00680000 238.50840000 -1460.12280000
vertex -124.44770000 237.08750000 -1460.50040000
vertex -124.72380000 239.20900000 -1460.19820000
endloop
endfacet
facet normal 0.011244 -0.081530 -0.996607
outer loop
vertex -117.73880000 239.20600000 -1459.97550000
vertex -118.43470000 237.12000000 -1459.81270000
vertex -119.51280000 238.30860000 -1459.92210000
endloop
endfacet
facet normal -0.083099 -0.049954 -0.995288
outer loop
vertex -116.78420000 237.49450000 -1459.96930000
vertex -118.43470000 237.12000000 -1459.81270000
vertex -117.73880000 239.20600000 -1459.97550000
endloop
endfacet
facet normal -0.101376 -0.060140 -0.993029
outer loop
vertex -115.55320000 238.82750000 -1460.17570000
vertex -116.78420000 237.49450000 -1459.96930000
vertex -117.73880000 239.20600000 -1459.97550000
endloop
endfacet
facet normal 0.021124 -0.051626 -0.998443
outer loop
vertex -113.55830000 238.21210000 -1460.20090000
vertex -112.06550000 239.59650000 -1460.24090000
vertex -111.31190000 237.43710000 -1460.11330000
endloop
endfacet
facet normal -0.028976 -0.069037 -0.997193
outer loop
vertex -112.06550000 239.59650000 -1460.24090000
vertex -110.24150000 239.01870000 -1460.25390000
vertex -111.31190000 237.43710000 -1460.11330000
endloop
endfacet
facet normal 0.006496 -0.061077 -0.998112
outer loop
vertex -108.48550000 239.27410000 -1460.25810000
vertex -109.08000000 237.59140000 -1460.15900000
vertex -110.24150000 239.01870000 -1460.25390000
endloop
endfacet
facet normal -0.086436 -0.035594 -0.995621
outer loop
vertex -106.69690000 239.25230000 -1460.41260000
vertex -107.00770000 237.79730000 -1460.33360000
vertex -108.48550000 239.27410000 -1460.25810000
endloop
endfacet
facet normal -0.080951 -0.030073 -0.996264
outer loop
vertex -107.00770000 237.79730000 -1460.33360000
vertex -109.08000000 237.59140000 -1460.15900000
vertex -108.48550000 239.27410000 -1460.25810000
endloop
endfacet
facet normal -0.021752 0.121636 -0.992336
outer loop
vertex -121.71710000 240.05210000 -1459.72180000
vertex -119.65210000 239.81440000 -1459.79620000
vertex -121.14640000 238.32100000 -1459.94650000
endloop
endfacet
facet normal 0.015524 0.084735 -0.996283
outer loop
vertex -121.14640000 238.32100000 -1459.94650000
vertex -119.65210000 239.81440000 -1459.79620000
vertex -119.51280000 238.30860000 -1459.92210000
endloop
endfacet
facet normal -0.068792 0.076801 -0.994671
outer loop
vertex -119.65210000 239.81440000 -1459.79620000
vertex -117.73880000 239.20600000 -1459.97550000
vertex -119.51280000 238.30860000 -1459.92210000
endloop
endfacet
facet normal -0.097930 0.043968 -0.994222
outer loop
vertex -110.10420000 241.10480000 -1460.01770000
vertex -107.46770000 240.84910000 -1460.28870000
vertex -108.48550000 239.27410000 -1460.25810000
endloop
endfacet
facet normal -0.085569 0.035952 -0.995683
outer loop
vertex -106.69690000 239.25230000 -1460.41260000
vertex -108.48550000 239.27410000 -1460.25810000
vertex -107.46770000 240.84910000 -1460.28870000
endloop
endfacet
facet normal -0.064670 0.402612 -0.913083
outer loop
vertex -114.04170000 239.90770000 -1460.22160000
vertex -115.76300000 240.58600000 -1459.80060000
vertex -113.27780000 241.34170000 -1459.64340000
endloop
endfacet
facet normal -0.085306 0.338062 -0.937250
outer loop
vertex -111.73420000 242.62060000 -1459.32260000
vertex -110.10420000 241.10480000 -1460.01770000
vertex -113.27780000 241.34170000 -1459.64340000
endloop
endfacet
facet normal -0.091788 0.103257 -0.990411
outer loop
vertex -108.01930000 242.89290000 -1460.02450000
vertex -107.46770000 240.84910000 -1460.28870000
vertex -110.10420000 241.10480000 -1460.01770000
endloop
endfacet
facet normal -0.202052 0.220325 -0.954270
outer loop
vertex -110.10420000 241.10480000 -1460.01770000
vertex -111.73420000 242.62060000 -1459.32260000
vertex -109.95520000 243.54780000 -1459.48520000
endloop
endfacet
facet normal -0.191947 0.220171 -0.956390
outer loop
vertex -108.01930000 242.89290000 -1460.02450000
vertex -110.10420000 241.10480000 -1460.01770000
vertex -109.95520000 243.54780000 -1459.48520000
endloop
endfacet
facet normal -0.247446 0.064641 -0.966743
outer loop
vertex -108.01930000 242.89290000 -1460.02450000
vertex -109.95520000 243.54780000 -1459.48520000
vertex -108.37570000 245.53670000 -1459.75650000
endloop
endfacet
facet normal -0.296650 -0.026868 -0.954608
outer loop
vertex -106.34180000 244.62910000 -1460.36300000
vertex -108.37570000 245.53670000 -1459.75650000
vertex -106.59070000 246.79450000 -1460.34660000
endloop
endfacet
facet normal -0.286374 -0.042651 -0.957168
outer loop
vertex -106.59070000 246.79450000 -1460.34660000
vertex -108.37570000 245.53670000 -1459.75650000
vertex -107.97700000 248.27490000 -1459.99780000
endloop
endfacet
facet normal -0.390791 0.085243 -0.916524
outer loop
vertex -107.97700000 248.27490000 -1459.99780000
vertex -109.94340000 247.63150000 -1459.21920000
vertex -109.35180000 249.88670000 -1459.26170000
endloop
endfacet
facet normal -0.248882 -0.004867 -0.968522
outer loop
vertex -105.71330000 248.99030000 -1460.58310000
vertex -106.59070000 246.79450000 -1460.34660000
vertex -107.97700000 248.27490000 -1459.99780000
endloop
endfacet
facet normal -0.402763 0.073137 -0.912378
outer loop
vertex -107.97700000 248.27490000 -1459.99780000
vertex -109.35180000 249.88670000 -1459.26170000
vertex -107.53960000 250.15720000 -1460.04000000
endloop
endfacet
facet normal -0.261728 0.039199 -0.964345
outer loop
vertex -107.53960000 250.15720000 -1460.04000000
vertex -105.71330000 248.99030000 -1460.58310000
vertex -107.97700000 248.27490000 -1459.99780000
endloop
endfacet
facet normal 0.018493 -0.074992 -0.997013
outer loop
vertex -118.43470000 237.12000000 -1459.81270000
vertex -120.38100000 236.73710000 -1459.82000000
vertex -119.51280000 238.30860000 -1459.92210000
endloop
endfacet
facet normal 0.014343 -0.072715 -0.997250
outer loop
vertex -119.51280000 238.30860000 -1459.92210000
vertex -120.38100000 236.73710000 -1459.82000000
vertex -121.14640000 238.32100000 -1459.94650000
endloop
endfacet
facet normal -0.222775 0.441513 -0.869159
outer loop
vertex -113.27780000 241.34170000 -1459.64340000
vertex -115.71830000 242.19090000 -1458.58650000
vertex -113.74510000 243.30050000 -1458.52860000
endloop
endfacet
facet normal -0.132660 0.600325 -0.788677
outer loop
vertex -113.27780000 241.34170000 -1459.64340000
vertex -115.76300000 240.58600000 -1459.80060000
vertex -115.71830000 242.19090000 -1458.58650000
endloop
endfacet
facet normal -0.191983 0.450433 -0.871925
outer loop
vertex -113.27780000 241.34170000 -1459.64340000
vertex -113.74510000 243.30050000 -1458.52860000
vertex -111.73420000 242.62060000 -1459.32260000
endloop
endfacet
facet normal -0.285051 0.240487 -0.927854
outer loop
vertex -111.73420000 242.62060000 -1459.32260000
vertex -113.74510000 243.30050000 -1458.52860000
vertex -111.91940000 244.48800000 -1458.78170000
endloop
endfacet
facet normal -0.217342 0.251620 -0.943107
outer loop
vertex -111.73420000 242.62060000 -1459.32260000
vertex -111.91940000 244.48800000 -1458.78170000
vertex -109.95520000 243.54780000 -1459.48520000
endloop
endfacet
facet normal -0.284323 0.117929 -0.951448
outer loop
vertex -110.31480000 245.53850000 -1459.13100000
vertex -109.95520000 243.54780000 -1459.48520000
vertex -111.91940000 244.48800000 -1458.78170000
endloop
endfacet
facet normal -0.304928 0.113171 -0.945627
outer loop
vertex -110.31480000 245.53850000 -1459.13100000
vertex -108.37570000 245.53670000 -1459.75650000
vertex -109.95520000 243.54780000 -1459.48520000
endloop
endfacet
facet normal -0.292285 0.131487 -0.947249
outer loop
vertex -111.91940000 244.48800000 -1458.78170000
vertex -111.98370000 246.86940000 -1458.43130000
vertex -110.31480000 245.53850000 -1459.13100000
endloop
endfacet
facet normal -0.368637 0.026257 -0.929203
outer loop
vertex -109.94340000 247.63150000 -1459.21920000
vertex -110.31480000 245.53850000 -1459.13100000
vertex -111.98370000 246.86940000 -1458.43130000
endloop
endfacet
facet normal -0.313445 0.289113 -0.904525
outer loop
vertex -113.74510000 243.30050000 -1458.52860000
vertex -113.90160000 245.63060000 -1457.72960000
vertex -111.91940000 244.48800000 -1458.78170000
endloop
endfacet
facet normal -0.409561 0.121970 -0.904092
outer loop
vertex -111.91940000 244.48800000 -1458.78170000
vertex -113.90160000 245.63060000 -1457.72960000
vertex -111.98370000 246.86940000 -1458.43130000
endloop
endfacet
facet normal 0.025131 0.107965 -0.993837
outer loop
vertex -116.52370000 224.56790000 -1464.06270000
vertex -119.60240000 224.22040000 -1464.17830000
vertex -118.25640000 226.23140000 -1463.92580000
endloop
endfacet
facet normal 0.167916 0.120604 -0.978396
outer loop
vertex -122.77570000 229.18580000 -1463.62160000
vertex -123.99290000 227.05060000 -1464.09370000
vertex -124.96960000 229.90640000 -1463.90930000
endloop
endfacet
facet normal -0.039820 0.034737 -0.998603
outer loop
vertex -126.84580000 228.28650000 -1463.98030000
vertex -128.67430000 229.62000000 -1463.86100000
vertex -127.15580000 231.38660000 -1463.86010000
endloop
endfacet
facet normal 0.015863 0.245650 -0.969229
outer loop
vertex -106.27060000 229.42250000 -1461.79860000
vertex -106.79200000 227.27230000 -1462.35210000
vertex -108.40470000 229.41590000 -1461.83520000
endloop
endfacet
facet normal 0.015385 0.305247 -0.952149
outer loop
vertex -106.27060000 229.42250000 -1461.79860000
vertex -108.40470000 229.41590000 -1461.83520000
vertex -107.57150000 231.84780000 -1461.04210000
endloop
endfacet
facet normal -0.164277 -0.068763 -0.984015
outer loop
vertex -107.00770000 237.79730000 -1460.33360000
vertex -105.00000000 238.32140000 -1460.70540000
vertex -105.21190000 236.55660000 -1460.54670000
endloop
endfacet
facet normal -0.012236 -0.015694 -0.999802
outer loop
vertex -112.06550000 239.59650000 -1460.24090000
vertex -113.55830000 238.21210000 -1460.20090000
vertex -114.04170000 239.90770000 -1460.22160000
endloop
endfacet
facet normal -0.180452 -0.019630 -0.983388
outer loop
vertex -106.69690000 239.25230000 -1460.41260000
vertex -105.33320000 240.37250000 -1460.68520000
vertex -105.00000000 238.32140000 -1460.70540000
endloop
endfacet
facet normal -0.257558 -0.032329 -0.965722
outer loop
vertex -103.23960000 239.71940000 -1461.22170000
vertex -105.00000000 238.32140000 -1460.70540000
vertex -105.33320000 240.37250000 -1460.68520000
endloop
endfacet
facet normal -0.054576 0.202071 -0.977849
outer loop
vertex -115.55320000 238.82750000 -1460.17570000
vertex -117.73880000 239.20600000 -1459.97550000
vertex -115.76300000 240.58600000 -1459.80060000
endloop
endfacet
facet normal -0.152035 0.003966 -0.988367
outer loop
vertex -105.65480000 234.90450000 -1460.48520000
vertex -107.38390000 236.18100000 -1460.21410000
vertex -105.21190000 236.55660000 -1460.54670000
endloop
endfacet
facet normal -0.185487 -0.013298 -0.982557
outer loop
vertex -106.69690000 239.25230000 -1460.41260000
vertex -107.46770000 240.84910000 -1460.28870000
vertex -105.33320000 240.37250000 -1460.68520000
endloop
endfacet
facet normal -0.176310 0.028929 -0.983910
outer loop
vertex -107.46770000 240.84910000 -1460.28870000
vertex -105.91980000 242.44330000 -1460.51920000
vertex -105.33320000 240.37250000 -1460.68520000
endloop
endfacet
facet normal -0.215017 0.067909 -0.974246
outer loop
vertex -105.91980000 242.44330000 -1460.51920000
vertex -107.46770000 240.84910000 -1460.28870000
vertex -108.01930000 242.89290000 -1460.02450000
endloop
endfacet
facet normal -0.223909 0.026392 -0.974253
outer loop
vertex -108.01930000 242.89290000 -1460.02450000
vertex -106.34180000 244.62910000 -1460.36300000
vertex -105.91980000 242.44330000 -1460.51920000
endloop
endfacet
facet normal -0.259391 0.062726 -0.963733
outer loop
vertex -106.34180000 244.62910000 -1460.36300000
vertex -108.01930000 242.89290000 -1460.02450000
vertex -108.37570000 245.53670000 -1459.75650000
endloop
endfacet
facet normal -0.115839 0.307137 -0.944589
outer loop
vertex -105.87980000 220.53470000 -1463.41410000
vertex -103.78000000 220.40740000 -1463.71300000
vertex -106.89150000 219.10870000 -1463.75370000
endloop
endfacet
facet normal -0.198323 0.501545 -0.842093
outer loop
vertex -105.07370000 218.83320000 -1464.34590000
vertex -106.89150000 219.10870000 -1463.75370000
vertex -103.78000000 220.40740000 -1463.71300000
endloop
endfacet
facet normal -0.386110 0.083975 -0.918622
outer loop
vertex -109.94340000 247.63150000 -1459.21920000
vertex -111.98370000 246.86940000 -1458.43130000
vertex -109.35180000 249.88670000 -1459.26170000
endloop
endfacet
facet normal -0.190402 0.496877 -0.846676
outer loop
vertex -103.78000000 220.40740000 -1463.71300000
vertex -102.44430000 219.94830000 -1464.28280000
vertex -105.07370000 218.83320000 -1464.34590000
endloop
endfacet
facet normal -0.268814 0.186323 -0.944999
outer loop
vertex -100.96830000 223.54020000 -1463.20200000
vertex -99.14880000 223.69070000 -1463.68990000
vertex -101.02130000 221.64650000 -1463.56030000
endloop
endfacet
facet normal 0.228559 0.131338 -0.964630
outer loop
vertex -112.55380000 220.34130000 -1463.82290000
vertex -110.30560000 220.04100000 -1463.33110000
vertex -113.55760000 218.29170000 -1464.33980000
endloop
endfacet
facet normal 0.104409 0.343986 -0.933152
outer loop
vertex -111.05630000 218.02540000 -1464.15810000
vertex -113.55760000 218.29170000 -1464.33980000
vertex -110.30560000 220.04100000 -1463.33110000
endloop
endfacet
facet normal 0.121803 0.060431 -0.990713
outer loop
vertex -110.91020000 222.34000000 -1463.26520000
vertex -108.66490000 223.14910000 -1462.93980000
vertex -110.30560000 220.04100000 -1463.33110000
endloop
endfacet
facet normal 0.063291 0.091703 -0.993773
outer loop
vertex -108.31680000 220.88560000 -1463.12650000
vertex -110.30560000 220.04100000 -1463.33110000
vertex -108.66490000 223.14910000 -1462.93980000
endloop
endfacet
facet normal -0.081859 0.226895 -0.970473
outer loop
vertex -105.87980000 220.53470000 -1463.41410000
vertex -108.31680000 220.88560000 -1463.12650000
vertex -104.79880000 221.87980000 -1463.19080000
endloop
endfacet
facet normal -0.053565 0.125471 -0.990650
outer loop
vertex -106.64640000 222.50590000 -1463.01160000
vertex -104.79880000 221.87980000 -1463.19080000
vertex -108.31680000 220.88560000 -1463.12650000
endloop
endfacet
facet normal 0.290071 0.358068 -0.887494
outer loop
vertex -123.46450000 235.15310000 -1460.95950000
vertex -124.44770000 237.08750000 -1460.50040000
vertex -121.30800000 235.04420000 -1460.29860000
endloop
endfacet
facet normal 0.229146 0.259446 -0.938179
outer loop
vertex -122.46690000 236.72010000 -1460.11820000
vertex -121.30800000 235.04420000 -1460.29860000
vertex -124.44770000 237.08750000 -1460.50040000
endloop
endfacet
facet normal 0.099309 0.050998 -0.993749
outer loop
vertex -123.00680000 238.50840000 -1460.12280000
vertex -123.24490000 239.73980000 -1460.08340000
vertex -121.14640000 238.32100000 -1459.94650000
endloop
endfacet
facet normal 0.189740 0.187647 -0.963736
outer loop
vertex -121.71710000 240.05210000 -1459.72180000
vertex -121.14640000 238.32100000 -1459.94650000
vertex -123.24490000 239.73980000 -1460.08340000
endloop
endfacet
facet normal 0.057314 0.049531 -0.997127
outer loop
vertex -117.33130000 222.06800000 -1464.23330000
vertex -116.52370000 224.56790000 -1464.06270000
vertex -115.28990000 220.17690000 -1464.20990000
endloop
endfacet
facet normal 0.104730 0.062700 -0.992522
outer loop
vertex -114.14650000 222.71520000 -1463.92890000
vertex -115.28990000 220.17690000 -1464.20990000
vertex -116.52370000 224.56790000 -1464.06270000
endloop
endfacet
facet normal 0.025615 0.256466 -0.966214
outer loop
vertex -111.13660000 235.12680000 -1460.10120000
vertex -109.37220000 233.62030000 -1460.45430000
vertex -112.51620000 234.30390000 -1460.35620000
endloop
endfacet
facet normal 0.042185 0.329378 -0.943255
outer loop
vertex -111.18960000 233.09560000 -1460.71880000
vertex -112.51620000 234.30390000 -1460.35620000
vertex -109.37220000 233.62030000 -1460.45430000
endloop
endfacet
facet normal -0.076866 0.407798 -0.909831
outer loop
vertex -113.27780000 241.34170000 -1459.64340000
vertex -110.10420000 241.10480000 -1460.01770000
vertex -114.04170000 239.90770000 -1460.22160000
endloop
endfacet
facet normal 0.011137 0.132192 -0.991162
outer loop
vertex -112.06550000 239.59650000 -1460.24090000
vertex -114.04170000 239.90770000 -1460.22160000
vertex -110.10420000 241.10480000 -1460.01770000
endloop
endfacet
facet normal -0.119049 -0.022272 -0.992639
outer loop
vertex -97.21200000 235.38660000 -1463.07470000
vertex -96.93150000 237.51070000 -1463.15600000
vertex -94.85050000 235.06040000 -1463.35060000
endloop
endfacet
facet normal -0.154608 0.518189 -0.841176
outer loop
vertex -108.73860000 218.61100000 -1463.72080000
vertex -106.89150000 219.10870000 -1463.75370000
vertex -109.14770000 216.91580000 -1464.68990000
endloop
endfacet
facet normal 0.001336 0.033505 -0.999438
outer loop
vertex -111.13660000 235.12680000 -1460.10120000
vertex -113.02570000 236.06120000 -1460.07240000
vertex -109.39880000 235.77940000 -1460.07700000
endloop
endfacet
facet normal -0.003261 -0.025654 -0.999666
outer loop
vertex -111.31190000 237.43710000 -1460.11330000
vertex -109.39880000 235.77940000 -1460.07700000
vertex -113.02570000 236.06120000 -1460.07240000
endloop
endfacet
facet normal -0.023969 0.036339 -0.999052
outer loop
vertex -126.84580000 228.28650000 -1463.98030000
vertex -127.15580000 231.38660000 -1463.86010000
vertex -123.99290000 227.05060000 -1464.09370000
endloop
endfacet
facet normal 0.027520 0.073782 -0.996895
outer loop
vertex -124.96960000 229.90640000 -1463.90930000
vertex -123.99290000 227.05060000 -1464.09370000
vertex -127.15580000 231.38660000 -1463.86010000
endloop
endfacet
facet normal -0.029970 0.194691 -0.980407
outer loop
vertex -109.37220000 233.62030000 -1460.45430000
vertex -111.13660000 235.12680000 -1460.10120000
vertex -107.58750000 234.32810000 -1460.36830000
endloop
endfacet
facet normal -0.041351 0.146762 -0.988307
outer loop
vertex -109.39880000 235.77940000 -1460.07700000
vertex -107.58750000 234.32810000 -1460.36830000
vertex -111.13660000 235.12680000 -1460.10120000
endloop
endfacet
facet normal -0.375812 0.027653 -0.926283
outer loop
vertex -109.94340000 247.63150000 -1459.21920000
vertex -107.97700000 248.27490000 -1459.99780000
vertex -110.31480000 245.53850000 -1459.13100000
endloop
endfacet
facet normal -0.306793 -0.039132 -0.950971
outer loop
vertex -108.37570000 245.53670000 -1459.75650000
vertex -110.31480000 245.53850000 -1459.13100000
vertex -107.97700000 248.27490000 -1459.99780000
endloop
endfacet
facet normal -0.284635 0.118732 -0.951255
outer loop
vertex -101.82290000 232.52750000 -1461.69560000
vertex -101.91380000 234.90940000 -1461.37110000
vertex -99.62270000 231.45750000 -1462.48750000
endloop
endfacet
facet normal -0.371612 0.053117 -0.926867
outer loop
vertex -99.78450000 234.07720000 -1462.27250000
vertex -99.62270000 231.45750000 -1462.48750000
vertex -101.91380000 234.90940000 -1461.37110000
endloop
endfacet
facet normal 0.351938 0.420748 -0.836128
outer loop
vertex -124.00070000 233.28590000 -1462.43050000
vertex -122.13000000 231.21280000 -1462.68630000
vertex -125.14610000 232.16910000 -1463.47460000
endloop
endfacet
facet normal 0.345310 0.382715 -0.856907
outer loop
vertex -123.75970000 231.15800000 -1463.36750000
vertex -125.14610000 232.16910000 -1463.47460000
vertex -122.13000000 231.21280000 -1462.68630000
endloop
endfacet
facet normal -0.131907 0.150393 -0.979787
outer loop
vertex -115.14480000 236.40280000 -1460.09690000
vertex -114.23490000 234.34670000 -1460.53500000
vertex -117.10610000 235.59010000 -1459.95760000
endloop
endfacet
facet normal -0.043253 0.336887 -0.940551
outer loop
vertex -115.92780000 234.33790000 -1460.46030000
vertex -117.10610000 235.59010000 -1459.95760000
vertex -114.23490000 234.34670000 -1460.53500000
endloop
endfacet
facet normal 0.191566 0.199562 -0.960977
outer loop
vertex -124.96960000 229.90640000 -1463.90930000
vertex -125.14610000 232.16910000 -1463.47460000
vertex -122.77570000 229.18580000 -1463.62160000
endloop
endfacet
facet normal 0.251897 0.246262 -0.935897
outer loop
vertex -123.75970000 231.15800000 -1463.36750000
vertex -122.77570000 229.18580000 -1463.62160000
vertex -125.14610000 232.16910000 -1463.47460000
endloop
endfacet
facet normal -0.075270 0.265117 -0.961274
outer loop
vertex -108.31680000 220.88560000 -1463.12650000
vertex -105.87980000 220.53470000 -1463.41410000
vertex -108.73860000 218.61100000 -1463.72080000
endloop
endfacet
facet normal -0.096359 0.294771 -0.950697
outer loop
vertex -106.89150000 219.10870000 -1463.75370000
vertex -108.73860000 218.61100000 -1463.72080000
vertex -105.87980000 220.53470000 -1463.41410000
endloop
endfacet
facet normal -0.232937 0.187967 -0.954153
outer loop
vertex -101.82290000 232.52750000 -1461.69560000
vertex -101.91750000 230.17980000 -1462.13500000
vertex -104.00200000 233.40780000 -1460.99020000
endloop
endfacet
facet normal -0.193193 0.214771 -0.957366
outer loop
vertex -103.51400000 231.30950000 -1461.55940000
vertex -104.00200000 233.40780000 -1460.99020000
vertex -101.91750000 230.17980000 -1462.13500000
endloop
endfacet
facet normal -0.185298 0.540903 -0.820420
outer loop
vertex -106.89150000 219.10870000 -1463.75370000
vertex -105.07370000 218.83320000 -1464.34590000
vertex -109.14770000 216.91580000 -1464.68990000
endloop
endfacet
facet normal -0.207519 0.581991 -0.786271
outer loop
vertex -106.80740000 217.46170000 -1464.90350000
vertex -109.14770000 216.91580000 -1464.68990000
vertex -105.07370000 218.83320000 -1464.34590000
endloop
endfacet
facet normal -0.181593 0.078838 -0.980208
outer loop
vertex -101.88590000 244.48420000 -1461.31980000
vertex -101.48160000 241.55620000 -1461.63020000
vertex -104.45300000 244.11890000 -1460.87360000
endloop
endfacet
facet normal -0.227886 0.023157 -0.973412
outer loop
vertex -103.68730000 242.20030000 -1461.09850000
vertex -104.45300000 244.11890000 -1460.87360000
vertex -101.48160000 241.55620000 -1461.63020000
endloop
endfacet
facet normal 0.157537 0.238353 -0.958316
outer loop
vertex -111.26620000 227.62660000 -1462.76760000
vertex -109.02120000 227.21910000 -1462.49990000
vertex -112.09750000 226.17500000 -1463.26530000
endloop
endfacet
facet normal 0.197705 0.129766 -0.971634
outer loop
vertex -110.08720000 225.05000000 -1463.00650000
vertex -112.09750000 226.17500000 -1463.26530000
vertex -109.02120000 227.21910000 -1462.49990000
endloop
endfacet
facet normal -0.090163 -0.019012 -0.995746
outer loop
vertex -116.78420000 237.49450000 -1459.96930000
vertex -115.14480000 236.40280000 -1460.09690000
vertex -118.43470000 237.12000000 -1459.81270000
endloop
endfacet
facet normal -0.080801 0.024205 -0.996436
outer loop
vertex -117.10610000 235.59010000 -1459.95760000
vertex -118.43470000 237.12000000 -1459.81270000
vertex -115.14480000 236.40280000 -1460.09690000
endloop
endfacet
facet normal -0.052816 0.257428 -0.964853
outer loop
vertex -102.88150000 222.31440000 -1463.17980000
vertex -102.24050000 220.88560000 -1463.59610000
vertex -104.79880000 221.87980000 -1463.19080000
endloop
endfacet
facet normal -0.026705 0.317676 -0.947823
outer loop
vertex -103.78000000 220.40740000 -1463.71300000
vertex -104.79880000 221.87980000 -1463.19080000
vertex -102.24050000 220.88560000 -1463.59610000
endloop
endfacet
facet normal -0.049271 0.268932 -0.961898
outer loop
vertex -107.57150000 231.84780000 -1461.04210000
vertex -109.37220000 233.62030000 -1460.45430000
vertex -106.05440000 233.23990000 -1460.73060000
endloop
endfacet
facet normal -0.052030 0.248707 -0.967180
outer loop
vertex -107.58750000 234.32810000 -1460.36830000
vertex -106.05440000 233.23990000 -1460.73060000
vertex -109.37220000 233.62030000 -1460.45430000
endloop
endfacet
facet normal -0.222800 0.041059 -0.973999
outer loop
vertex -101.48160000 241.55620000 -1461.63020000
vertex -101.35290000 239.07820000 -1461.76410000
vertex -103.68730000 242.20030000 -1461.09850000
endloop
endfacet
facet normal -0.277008 -0.002272 -0.960865
outer loop
vertex -103.23960000 239.71940000 -1461.22170000
vertex -103.68730000 242.20030000 -1461.09850000
vertex -101.35290000 239.07820000 -1461.76410000
endloop
endfacet
facet normal -0.127521 0.244840 -0.961141
outer loop
vertex -105.34820000 231.41920000 -1461.28810000
vertex -106.05440000 233.23990000 -1460.73060000
vertex -103.51400000 231.30950000 -1461.55940000
endloop
endfacet
facet normal -0.140549 0.228628 -0.963315
outer loop
vertex -104.00200000 233.40780000 -1460.99020000
vertex -103.51400000 231.30950000 -1461.55940000
vertex -106.05440000 233.23990000 -1460.73060000
endloop
endfacet
facet normal 0.129828 0.319131 -0.938776
outer loop
vertex -115.79970000 230.65470000 -1462.66490000
vertex -113.80870000 231.06140000 -1462.25130000
vertex -116.17090000 228.91010000 -1463.30930000
endloop
endfacet
facet normal 0.139999 0.308922 -0.940727
outer loop
vertex -113.84540000 228.40740000 -1463.12830000
vertex -116.17090000 228.91010000 -1463.30930000
vertex -113.80870000 231.06140000 -1462.25130000
endloop
endfacet
facet normal -0.405164 0.122428 -0.906010
outer loop
vertex -95.76470000 228.44790000 -1463.00110000
vertex -94.12720000 229.74950000 -1463.55750000
vertex -94.94990000 226.95950000 -1463.56660000
endloop
endfacet
facet normal -0.271074 0.119771 -0.955078
outer loop
vertex -101.91380000 234.90940000 -1461.37110000
vertex -101.82290000 232.52750000 -1461.69560000
vertex -103.80400000 235.38000000 -1460.77560000
endloop
endfacet
facet normal -0.257427 0.130033 -0.957509
outer loop
vertex -104.00200000 233.40780000 -1460.99020000
vertex -103.80400000 235.38000000 -1460.77560000
vertex -101.82290000 232.52750000 -1461.69560000
endloop
endfacet
facet normal 0.048301 0.188160 -0.980950
outer loop
vertex -116.02620000 226.92680000 -1463.68260000
vertex -118.25640000 226.23140000 -1463.92580000
vertex -116.17090000 228.91010000 -1463.30930000
endloop
endfacet
facet normal 0.004444 0.220996 -0.975264
outer loop
vertex -118.18660000 228.14790000 -1463.49120000
vertex -116.17090000 228.91010000 -1463.30930000
vertex -118.25640000 226.23140000 -1463.92580000
endloop
endfacet
facet normal -0.021238 0.121018 -0.992423
outer loop
vertex -104.86940000 223.54170000 -1462.98760000
vertex -104.81220000 225.43050000 -1462.75850000
vertex -102.88150000 222.31440000 -1463.17980000
endloop
endfacet
facet normal -0.047278 0.105008 -0.993347
outer loop
vertex -103.08490000 224.10530000 -1462.98080000
vertex -102.88150000 222.31440000 -1463.17980000
vertex -104.81220000 225.43050000 -1462.75850000
endloop
endfacet
facet normal -0.210770 -0.062419 -0.975541
outer loop
vertex -105.21190000 236.55660000 -1460.54670000
vertex -105.00000000 238.32140000 -1460.70540000
vertex -103.80400000 235.38000000 -1460.77560000
endloop
endfacet
facet normal -0.282179 -0.061719 -0.957374
outer loop
vertex -102.79940000 237.17630000 -1461.18750000
vertex -103.80400000 235.38000000 -1460.77560000
vertex -103.23960000 239.71940000 -1461.22170000
endloop
endfacet
facet normal -0.229150 -0.070003 -0.970871
outer loop
vertex -105.00000000 238.32140000 -1460.70540000
vertex -103.23960000 239.71940000 -1461.22170000
vertex -103.80400000 235.38000000 -1460.77560000
endloop
endfacet
facet normal -0.177797 0.424310 -0.887890
outer loop
vertex -96.55020000 226.45550000 -1463.48700000
vertex -94.94990000 226.95950000 -1463.56660000
vertex -97.84680000 224.75250000 -1464.04120000
endloop
endfacet
facet normal -0.087088 0.085150 -0.992555
outer loop
vertex -97.76320000 229.84610000 -1462.70580000
vertex -95.76470000 228.44790000 -1463.00110000
vertex -99.89680000 229.13500000 -1462.57960000
endloop
endfacet
facet normal -0.082087 0.113727 -0.990115
outer loop
vertex -97.95260000 228.03270000 -1462.86740000
vertex -99.89680000 229.13500000 -1462.57960000
vertex -95.76470000 228.44790000 -1463.00110000
endloop
endfacet
facet normal -0.118517 0.279119 -0.952915
outer loop
vertex -96.55020000 226.45550000 -1463.48700000
vertex -98.32660000 226.36900000 -1463.29140000
vertex -95.76470000 228.44790000 -1463.00110000
endloop
endfacet
facet normal -0.109439 0.268507 -0.957041
outer loop
vertex -97.95260000 228.03270000 -1462.86740000
vertex -95.76470000 228.44790000 -1463.00110000
vertex -98.32660000 226.36900000 -1463.29140000
endloop
endfacet
facet normal -0.316194 -0.046783 -0.947540
outer loop
vertex -102.79940000 237.17630000 -1461.18750000
vertex -101.35290000 239.07820000 -1461.76410000
vertex -101.91380000 234.90940000 -1461.37110000
endloop
endfacet
facet normal -0.333781 -0.043860 -0.941630
outer loop
vertex -99.67720000 237.11190000 -1462.26650000
vertex -101.91380000 234.90940000 -1461.37110000
vertex -101.35290000 239.07820000 -1461.76410000
endloop
endfacet
facet normal -0.305853 -0.017431 -0.951919
outer loop
vertex -99.67720000 237.11190000 -1462.26650000
vertex -101.35290000 239.07820000 -1461.76410000
vertex -96.93150000 237.51070000 -1463.15600000
endloop
endfacet
facet normal -0.249334 0.146715 -0.957239
outer loop
vertex -99.45200000 240.21040000 -1462.08570000
vertex -96.93150000 237.51070000 -1463.15600000
vertex -101.35290000 239.07820000 -1461.76410000
endloop
endfacet
endsolid Surface
