solid Surface
facet normal -0.766680 -0.133519 -0.627992
outer loop
vertex -74.19860000 198.03830000 -1335.78410000
vertex -74.41280000 200.01610000 -1335.94310000
vertex -73.08580000 198.99660000 -1337.34640000
endloop
endfacet
facet normal -0.221952 -0.281085 -0.933664
outer loop
vertex -82.06540000 206.95080000 -1335.10410000
vertex -79.89600000 208.73880000 -1336.15810000
vertex -79.05130000 207.06900000 -1335.85620000
endloop
endfacet
facet normal -0.576673 -0.309242 -0.756186
outer loop
vertex -76.33810000 200.11770000 -1334.51640000
vertex -74.41280000 200.01610000 -1335.94310000
vertex -75.53550000 198.25740000 -1334.36770000
endloop
endfacet
facet normal -0.730948 -0.132974 -0.669352
outer loop
vertex -74.41280000 200.01610000 -1335.94310000
vertex -74.19860000 198.03830000 -1335.78410000
vertex -75.53550000 198.25740000 -1334.36770000
endloop
endfacet
facet normal -0.595484 -0.110613 -0.795716
outer loop
vertex -75.13670000 201.86660000 -1335.65860000
vertex -74.41280000 200.01610000 -1335.94310000
vertex -76.33810000 200.11770000 -1334.51640000
endloop
endfacet
facet normal -0.482163 -0.197349 -0.853565
outer loop
vertex -77.14530000 201.59680000 -1334.46160000
vertex -76.88550000 203.47800000 -1335.04330000
vertex -75.13670000 201.86660000 -1335.65860000
endloop
endfacet
facet normal -0.506395 -0.245736 -0.826546
outer loop
vertex -76.33810000 200.11770000 -1334.51640000
vertex -78.17480000 200.46610000 -1333.49470000
vertex -77.14530000 201.59680000 -1334.46160000
endloop
endfacet
facet normal -0.475640 -0.228099 -0.849551
outer loop
vertex -75.13670000 201.86660000 -1335.65860000
vertex -76.33810000 200.11770000 -1334.51640000
vertex -77.14530000 201.59680000 -1334.46160000
endloop
endfacet
facet normal -0.382219 -0.224400 -0.896411
outer loop
vertex -76.88550000 203.47800000 -1335.04330000
vertex -77.14530000 201.59680000 -1334.46160000
vertex -79.44990000 202.43270000 -1333.68820000
endloop
endfacet
facet normal -0.303185 -0.385795 -0.871344
outer loop
vertex -76.88550000 203.47800000 -1335.04330000
vertex -79.44990000 202.43270000 -1333.68820000
vertex -79.47870000 205.06330000 -1334.84290000
endloop
endfacet
facet normal -0.240092 -0.439170 -0.865728
outer loop
vertex -82.06540000 206.95080000 -1335.10410000
vertex -82.21240000 204.11150000 -1333.62300000
vertex -84.80300000 205.05860000 -1333.38500000
endloop
endfacet
facet normal -0.233637 -0.440163 -0.866989
outer loop
vertex -79.47870000 205.06330000 -1334.84290000
vertex -82.21240000 204.11150000 -1333.62300000
vertex -82.06540000 206.95080000 -1335.10410000
endloop
endfacet
facet normal -0.206252 -0.405866 -0.890356
outer loop
vertex -79.05130000 207.06900000 -1335.85620000
vertex -79.47870000 205.06330000 -1334.84290000
vertex -82.06540000 206.95080000 -1335.10410000
endloop
endfacet
facet normal -0.263608 -0.411332 -0.872535
outer loop
vertex -82.06540000 206.95080000 -1335.10410000
vertex -84.80300000 205.05860000 -1333.38500000
vertex -85.18660000 207.77950000 -1334.55180000
endloop
endfacet
facet normal -0.356043 -0.257782 -0.898210
outer loop
vertex -85.53230000 210.01380000 -1335.05600000
vertex -85.18660000 207.77950000 -1334.55180000
vertex -88.03140000 208.74870000 -1333.70230000
endloop
endfacet
facet normal -0.031546 -0.008834 -0.999463
outer loop
vertex -91.50810000 183.59480000 -1332.59630000
vertex -92.52910000 180.93890000 -1332.54060000
vertex -94.20070000 182.06580000 -1332.49780000
endloop
endfacet
facet normal 0.149949 -0.078315 -0.985587
outer loop
vertex -92.52910000 180.93890000 -1332.54060000
vertex -91.50810000 183.59480000 -1332.59630000
vertex -89.97160000 181.02830000 -1332.15860000
endloop
endfacet
facet normal -0.088796 0.092482 -0.991747
outer loop
vertex -91.50810000 183.59480000 -1332.59630000
vertex -94.20070000 182.06580000 -1332.49780000
vertex -94.78500000 184.78410000 -1332.19200000
endloop
endfacet
facet normal -0.584221 -0.247014 -0.773092
outer loop
vertex -76.41380000 196.03160000 -1332.99280000
vertex -77.50990000 198.62340000 -1332.99260000
vertex -75.53550000 198.25740000 -1334.36770000
endloop
endfacet
facet normal -0.502920 -0.391445 -0.770612
outer loop
vertex -78.17480000 200.46610000 -1333.49470000
vertex -76.33810000 200.11770000 -1334.51640000
vertex -77.50990000 198.62340000 -1332.99260000
endloop
endfacet
facet normal -0.581326 -0.310909 -0.751928
outer loop
vertex -77.50990000 198.62340000 -1332.99260000
vertex -76.33810000 200.11770000 -1334.51640000
vertex -75.53550000 198.25740000 -1334.36770000
endloop
endfacet
facet normal -0.275543 -0.387583 -0.879690
outer loop
vertex -79.87700000 199.61280000 -1332.31200000
vertex -81.71060000 201.78360000 -1332.69410000
vertex -79.44990000 202.43270000 -1333.68820000
endloop
endfacet
facet normal -0.410410 -0.348995 -0.842476
outer loop
vertex -78.17480000 200.46610000 -1333.49470000
vertex -79.87700000 199.61280000 -1332.31200000
vertex -79.44990000 202.43270000 -1333.68820000
endloop
endfacet
facet normal -0.409346 -0.348381 -0.843248
outer loop
vertex -77.14530000 201.59680000 -1334.46160000
vertex -78.17480000 200.46610000 -1333.49470000
vertex -79.44990000 202.43270000 -1333.68820000
endloop
endfacet
facet normal -0.306695 -0.411321 -0.858343
outer loop
vertex -84.80300000 205.05860000 -1333.38500000
vertex -87.18770000 205.87470000 -1332.92400000
vertex -85.18660000 207.77950000 -1334.55180000
endloop
endfacet
facet normal -0.435926 -0.088514 -0.895619
outer loop
vertex -90.79830000 208.19560000 -1332.30090000
vertex -90.22120000 211.41230000 -1332.89970000
vertex -88.03140000 208.74870000 -1333.70230000
endloop
endfacet
facet normal 0.226554 -0.030396 -0.973524
outer loop
vertex -91.50810000 183.59480000 -1332.59630000
vertex -88.21790000 183.86000000 -1331.83890000
vertex -89.97160000 181.02830000 -1332.15860000
endloop
endfacet
facet normal 0.121681 0.252284 -0.959972
outer loop
vertex -91.87340000 186.41060000 -1331.90260000
vertex -89.34600000 186.72620000 -1331.49930000
vertex -91.50810000 183.59480000 -1332.59630000
endloop
endfacet
facet normal 0.205145 0.194396 -0.959232
outer loop
vertex -88.21790000 183.86000000 -1331.83890000
vertex -91.50810000 183.59480000 -1332.59630000
vertex -89.34600000 186.72620000 -1331.49930000
endloop
endfacet
facet normal -0.091360 0.050941 -0.994514
outer loop
vertex -102.34450000 186.35370000 -1331.54680000
vertex -103.56370000 187.94090000 -1331.35350000
vertex -101.13270000 188.28100000 -1331.55940000
endloop
endfacet
facet normal -0.703226 0.033745 -0.710165
outer loop
vertex -77.88330000 194.58070000 -1331.60660000
vertex -76.41380000 196.03160000 -1332.99280000
vertex -76.59640000 193.19020000 -1332.94700000
endloop
endfacet
facet normal -0.553440 -0.233994 -0.799344
outer loop
vertex -76.41380000 196.03160000 -1332.99280000
vertex -78.71190000 196.76070000 -1331.61510000
vertex -77.50990000 198.62340000 -1332.99260000
endloop
endfacet
facet normal -0.396725 -0.371831 -0.839256
outer loop
vertex -79.87700000 199.61280000 -1332.31200000
vertex -78.17480000 200.46610000 -1333.49470000
vertex -77.50990000 198.62340000 -1332.99260000
endloop
endfacet
facet normal -0.191430 -0.351412 -0.916441
outer loop
vertex -81.71060000 201.78360000 -1332.69410000
vertex -82.33740000 199.50830000 -1331.69070000
vertex -84.15960000 201.93370000 -1332.24010000
endloop
endfacet
facet normal -0.128832 -0.310154 -0.941917
outer loop
vertex -82.33740000 199.50830000 -1331.69070000
vertex -84.36160000 199.08180000 -1331.27340000
vertex -84.15960000 201.93370000 -1332.24010000
endloop
endfacet
facet normal -0.216198 -0.343484 -0.913935
outer loop
vertex -79.87700000 199.61280000 -1332.31200000
vertex -82.33740000 199.50830000 -1331.69070000
vertex -81.71060000 201.78360000 -1332.69410000
endloop
endfacet
facet normal -0.245488 -0.377653 -0.892812
outer loop
vertex -84.15960000 201.93370000 -1332.24010000
vertex -86.70280000 202.98450000 -1331.98530000
vertex -84.80300000 205.05860000 -1333.38500000
endloop
endfacet
facet normal -0.312189 -0.340440 -0.886927
outer loop
vertex -88.84990000 203.92410000 -1331.59020000
vertex -87.18770000 205.87470000 -1332.92400000
vertex -86.70280000 202.98450000 -1331.98530000
endloop
endfacet
facet normal -0.289146 -0.339247 -0.895157
outer loop
vertex -84.80300000 205.05860000 -1333.38500000
vertex -86.70280000 202.98450000 -1331.98530000
vertex -87.18770000 205.87470000 -1332.92400000
endloop
endfacet
facet normal -0.340329 -0.315651 -0.885743
outer loop
vertex -87.18770000 205.87470000 -1332.92400000
vertex -88.84990000 203.92410000 -1331.59020000
vertex -89.18900000 206.43300000 -1332.35400000
endloop
endfacet
facet normal -0.377019 -0.318022 -0.869896
outer loop
vertex -89.18900000 206.43300000 -1332.35400000
vertex -90.79830000 208.19560000 -1332.30090000
vertex -88.03140000 208.74870000 -1333.70230000
endloop
endfacet
facet normal -0.475016 0.185107 -0.860288
outer loop
vertex -93.25600000 210.04270000 -1331.51870000
vertex -92.70620000 212.98540000 -1331.18910000
vertex -90.22120000 211.41230000 -1332.89970000
endloop
endfacet
facet normal 0.271941 -0.059981 -0.960443
outer loop
vertex -89.97160000 181.02830000 -1332.15860000
vertex -88.21790000 183.86000000 -1331.83890000
vertex -86.65460000 180.82620000 -1331.20680000
endloop
endfacet
facet normal 0.267520 -0.062485 -0.961524
outer loop
vertex -85.33660000 184.11620000 -1331.05390000
vertex -86.65460000 180.82620000 -1331.20680000
vertex -88.21790000 183.86000000 -1331.83890000
endloop
endfacet
facet normal -0.023494 0.055801 -0.998165
outer loop
vertex -83.21180000 181.72480000 -1331.23760000
vertex -86.65460000 180.82620000 -1331.20680000
vertex -85.33660000 184.11620000 -1331.05390000
endloop
endfacet
facet normal -0.405268 0.147787 -0.902174
outer loop
vertex -81.12360000 183.37520000 -1331.77310000
vertex -82.63030000 184.89750000 -1330.84690000
vertex -80.01360000 186.20970000 -1331.80740000
endloop
endfacet
facet normal -0.151780 0.137731 -0.978771
outer loop
vertex -94.78500000 184.78410000 -1332.19200000
vertex -99.19600000 185.02130000 -1331.47460000
vertex -96.37330000 187.06810000 -1331.62430000
endloop
endfacet
facet normal 0.220316 0.199835 -0.954739
outer loop
vertex -86.69610000 186.80650000 -1330.87100000
vertex -88.21790000 183.86000000 -1331.83890000
vertex -89.34600000 186.72620000 -1331.49930000
endloop
endfacet
facet normal 0.242670 0.187341 -0.951848
outer loop
vertex -85.33660000 184.11620000 -1331.05390000
vertex -88.21790000 183.86000000 -1331.83890000
vertex -86.69610000 186.80650000 -1330.87100000
endloop
endfacet
facet normal 0.015923 -0.016547 -0.999736
outer loop
vertex -102.34450000 186.35370000 -1331.54680000
vertex -101.13270000 188.28100000 -1331.55940000
vertex -99.19600000 185.02130000 -1331.47460000
endloop
endfacet
facet normal 0.068042 0.014474 -0.997577
outer loop
vertex -98.49510000 188.24630000 -1331.38000000
vertex -99.19600000 185.02130000 -1331.47460000
vertex -101.13270000 188.28100000 -1331.55940000
endloop
endfacet
facet normal -0.087762 0.048259 -0.994972
outer loop
vertex -96.37330000 187.06810000 -1331.62430000
vertex -99.19600000 185.02130000 -1331.47460000
vertex -98.49510000 188.24630000 -1331.38000000
endloop
endfacet
facet normal 0.023464 0.367083 -0.929892
outer loop
vertex -90.85580000 189.31420000 -1330.73070000
vertex -91.87340000 186.41060000 -1331.90260000
vertex -93.75470000 187.85850000 -1331.37850000
endloop
endfacet
facet normal 0.106685 0.339755 -0.934444
outer loop
vertex -89.34600000 186.72620000 -1331.49930000
vertex -91.87340000 186.41060000 -1331.90260000
vertex -90.85580000 189.31420000 -1330.73070000
endloop
endfacet
facet normal -0.570667 0.256234 -0.780181
outer loop
vertex -80.01360000 186.20970000 -1331.80740000
vertex -79.53060000 189.25600000 -1331.16020000
vertex -78.46290000 188.12630000 -1332.31220000
endloop
endfacet
facet normal 0.041977 0.274774 -0.960592
outer loop
vertex -96.37330000 187.06810000 -1331.62430000
vertex -98.49510000 188.24630000 -1331.38000000
vertex -96.31160000 189.39780000 -1330.95520000
endloop
endfacet
facet normal 0.006954 0.275868 -0.961170
outer loop
vertex -93.75470000 187.85850000 -1331.37850000
vertex -96.37330000 187.06810000 -1331.62430000
vertex -96.31160000 189.39780000 -1330.95520000
endloop
endfacet
facet normal -0.097317 0.095881 -0.990624
outer loop
vertex -103.56370000 187.94090000 -1331.35350000
vertex -103.26990000 190.20420000 -1331.16330000
vertex -101.13270000 188.28100000 -1331.55940000
endloop
endfacet
facet normal 0.046512 0.335956 -0.940728
outer loop
vertex -93.75470000 187.85850000 -1331.37850000
vertex -96.31160000 189.39780000 -1330.95520000
vertex -93.79560000 190.41510000 -1330.46750000
endloop
endfacet
facet normal -0.236267 0.198967 -0.951100
outer loop
vertex -105.70560000 191.64540000 -1330.71030000
vertex -107.53570000 193.22610000 -1329.92500000
vertex -105.33890000 194.25440000 -1330.25560000
endloop
endfacet
facet normal -0.385960 0.000110 -0.922516
outer loop
vertex -77.88330000 194.58070000 -1331.60660000
vertex -78.65340000 192.13300000 -1331.28470000
vertex -80.14450000 194.28770000 -1330.66060000
endloop
endfacet
facet normal -0.658100 0.109078 -0.744988
outer loop
vertex -78.65340000 192.13300000 -1331.28470000
vertex -77.88330000 194.58070000 -1331.60660000
vertex -76.59640000 193.19020000 -1332.94700000
endloop
endfacet
facet normal -0.366193 -0.142772 -0.919521
outer loop
vertex -77.88330000 194.58070000 -1331.60660000
vertex -80.14450000 194.28770000 -1330.66060000
vertex -78.71190000 196.76070000 -1331.61510000
endloop
endfacet
facet normal -0.551164 -0.212639 -0.806848
outer loop
vertex -77.88330000 194.58070000 -1331.60660000
vertex -78.71190000 196.76070000 -1331.61510000
vertex -76.41380000 196.03160000 -1332.99280000
endloop
endfacet
facet normal -0.126983 -0.304809 -0.943911
outer loop
vertex -82.33740000 199.50830000 -1331.69070000
vertex -81.19740000 196.91800000 -1331.00760000
vertex -83.33500000 197.24120000 -1330.82440000
endloop
endfacet
facet normal -0.130717 -0.303172 -0.943928
outer loop
vertex -82.33740000 199.50830000 -1331.69070000
vertex -83.33500000 197.24120000 -1330.82440000
vertex -84.36160000 199.08180000 -1331.27340000
endloop
endfacet
facet normal -0.217019 -0.337103 -0.916113
outer loop
vertex -79.87700000 199.61280000 -1332.31200000
vertex -81.19740000 196.91800000 -1331.00760000
vertex -82.33740000 199.50830000 -1331.69070000
endloop
endfacet
facet normal -0.243940 -0.323079 -0.914392
outer loop
vertex -81.19740000 196.91800000 -1331.00760000
vertex -79.87700000 199.61280000 -1332.31200000
vertex -78.71190000 196.76070000 -1331.61510000
endloop
endfacet
facet normal -0.395556 -0.367280 -0.841808
outer loop
vertex -79.87700000 199.61280000 -1332.31200000
vertex -77.50990000 198.62340000 -1332.99260000
vertex -78.71190000 196.76070000 -1331.61510000
endloop
endfacet
facet normal -0.159195 -0.169286 -0.972625
outer loop
vertex -88.48000000 198.12480000 -1330.58020000
vertex -90.86410000 199.36420000 -1330.40570000
vertex -88.62840000 201.02160000 -1331.06010000
endloop
endfacet
facet normal -0.164149 -0.169400 -0.971781
outer loop
vertex -86.40340000 199.96470000 -1331.25170000
vertex -88.48000000 198.12480000 -1330.58020000
vertex -88.62840000 201.02160000 -1331.06010000
endloop
endfacet
facet normal -0.143427 -0.308580 -0.940323
outer loop
vertex -86.40340000 199.96470000 -1331.25170000
vertex -84.15960000 201.93370000 -1332.24010000
vertex -84.36160000 199.08180000 -1331.27340000
endloop
endfacet
facet normal -0.200322 -0.249989 -0.947300
outer loop
vertex -86.40340000 199.96470000 -1331.25170000
vertex -88.62840000 201.02160000 -1331.06010000
vertex -86.70280000 202.98450000 -1331.98530000
endloop
endfacet
facet normal -0.198207 -0.249893 -0.947770
outer loop
vertex -84.15960000 201.93370000 -1332.24010000
vertex -86.40340000 199.96470000 -1331.25170000
vertex -86.70280000 202.98450000 -1331.98530000
endloop
endfacet
facet normal -0.288562 -0.193287 -0.937748
outer loop
vertex -88.62840000 201.02160000 -1331.06010000
vertex -90.71880000 202.20370000 -1330.66050000
vertex -88.84990000 203.92410000 -1331.59020000
endloop
endfacet
facet normal -0.258482 -0.192612 -0.946619
outer loop
vertex -86.70280000 202.98450000 -1331.98530000
vertex -88.62840000 201.02160000 -1331.06010000
vertex -88.84990000 203.92410000 -1331.59020000
endloop
endfacet
facet normal -0.329324 -0.315449 -0.889965
outer loop
vertex -88.84990000 203.92410000 -1331.59020000
vertex -91.23660000 205.16850000 -1331.14810000
vertex -89.18900000 206.43300000 -1332.35400000
endloop
endfacet
facet normal -0.346608 -0.289584 -0.892191
outer loop
vertex -89.18900000 206.43300000 -1332.35400000
vertex -91.23660000 205.16850000 -1331.14810000
vertex -90.79830000 208.19560000 -1332.30090000
endloop
endfacet
facet normal -0.335510 -0.292448 -0.895492
outer loop
vertex -90.79830000 208.19560000 -1332.30090000
vertex -91.23660000 205.16850000 -1331.14810000
vertex -92.86340000 207.33370000 -1331.24570000
endloop
endfacet
facet normal -0.510887 0.003870 -0.859639
outer loop
vertex -95.05670000 208.02970000 -1330.45760000
vertex -95.57140000 209.96460000 -1330.14300000
vertex -93.25600000 210.04270000 -1331.51870000
endloop
endfacet
facet normal -0.505879 0.194511 -0.840388
outer loop
vertex -95.57140000 209.96460000 -1330.14300000
vertex -94.71320000 211.67380000 -1330.26400000
vertex -93.25600000 210.04270000 -1331.51870000
endloop
endfacet
facet normal -0.510377 0.189313 -0.838854
outer loop
vertex -93.25600000 210.04270000 -1331.51870000
vertex -94.71320000 211.67380000 -1330.26400000
vertex -92.70620000 212.98540000 -1331.18910000
endloop
endfacet
facet normal 0.042900 0.114359 -0.992513
outer loop
vertex -85.33660000 184.11620000 -1331.05390000
vertex -82.63030000 184.89750000 -1330.84690000
vertex -83.21180000 181.72480000 -1331.23760000
endloop
endfacet
facet normal -0.375972 0.180825 -0.908817
outer loop
vertex -81.12360000 183.37520000 -1331.77310000
vertex -83.21180000 181.72480000 -1331.23760000
vertex -82.63030000 184.89750000 -1330.84690000
endloop
endfacet
facet normal 0.011820 0.217632 -0.975959
outer loop
vertex -82.63030000 184.89750000 -1330.84690000
vertex -85.33660000 184.11620000 -1331.05390000
vertex -84.41330000 186.56030000 -1330.49770000
endloop
endfacet
facet normal 0.175682 0.154872 -0.972188
outer loop
vertex -85.33660000 184.11620000 -1331.05390000
vertex -86.69610000 186.80650000 -1330.87100000
vertex -84.41330000 186.56030000 -1330.49770000
endloop
endfacet
facet normal -0.057640 0.145610 -0.987662
outer loop
vertex -82.36670000 188.20000000 -1330.37540000
vertex -82.63030000 184.89750000 -1330.84690000
vertex -84.41330000 186.56030000 -1330.49770000
endloop
endfacet
facet normal -0.033345 0.115664 -0.992729
outer loop
vertex -82.36670000 188.20000000 -1330.37540000
vertex -84.41330000 186.56030000 -1330.49770000
vertex -85.05080000 188.66470000 -1330.23110000
endloop
endfacet
facet normal 0.057097 0.314696 -0.947474
outer loop
vertex -87.41320000 189.89480000 -1330.33040000
vertex -89.34600000 186.72620000 -1331.49930000
vertex -90.85580000 189.31420000 -1330.73070000
endloop
endfacet
facet normal 0.218951 0.217349 -0.951220
outer loop
vertex -86.69610000 186.80650000 -1330.87100000
vertex -89.34600000 186.72620000 -1331.49930000
vertex -87.41320000 189.89480000 -1330.33040000
endloop
endfacet
facet normal 0.069045 0.232225 -0.970208
outer loop
vertex -98.49510000 188.24630000 -1331.38000000
vertex -101.13270000 188.28100000 -1331.55940000
vertex -99.97680000 191.13550000 -1330.79390000
endloop
endfacet
facet normal 0.041567 0.335959 -0.940959
outer loop
vertex -90.85580000 189.31420000 -1330.73070000
vertex -93.75470000 187.85850000 -1331.37850000
vertex -93.79560000 190.41510000 -1330.46750000
endloop
endfacet
facet normal -0.033590 0.114296 -0.992879
outer loop
vertex -82.36670000 188.20000000 -1330.37540000
vertex -85.05080000 188.66470000 -1330.23110000
vertex -84.33390000 191.03060000 -1329.98300000
endloop
endfacet
facet normal -0.095890 0.070997 -0.992857
outer loop
vertex -81.37400000 191.40630000 -1330.24200000
vertex -82.36670000 188.20000000 -1330.37540000
vertex -84.33390000 191.03060000 -1329.98300000
endloop
endfacet
facet normal -0.310736 0.135350 -0.940810
outer loop
vertex -79.53060000 189.25600000 -1331.16020000
vertex -82.36670000 188.20000000 -1330.37540000
vertex -81.37400000 191.40630000 -1330.24200000
endloop
endfacet
facet normal 0.072457 0.279750 -0.957335
outer loop
vertex -93.79560000 190.41510000 -1330.46750000
vertex -96.31160000 189.39780000 -1330.95520000
vertex -96.66880000 191.69860000 -1330.30990000
endloop
endfacet
facet normal 0.012150 0.263083 -0.964697
outer loop
vertex -90.85580000 189.31420000 -1330.73070000
vertex -93.79560000 190.41510000 -1330.46750000
vertex -91.98230000 192.15380000 -1329.97050000
endloop
endfacet
facet normal -0.374080 0.074053 -0.924435
outer loop
vertex -78.65340000 192.13300000 -1331.28470000
vertex -79.53060000 189.25600000 -1331.16020000
vertex -81.37400000 191.40630000 -1330.24200000
endloop
endfacet
facet normal -0.082381 0.169464 -0.982087
outer loop
vertex -103.32490000 192.58250000 -1330.74830000
vertex -103.26990000 190.20420000 -1331.16330000
vertex -105.70560000 191.64540000 -1330.71030000
endloop
endfacet
facet normal 0.096725 0.258028 -0.961284
outer loop
vertex -96.66880000 191.69860000 -1330.30990000
vertex -99.97680000 191.13550000 -1330.79390000
vertex -99.00760000 193.55700000 -1330.04640000
endloop
endfacet
facet normal 0.048107 0.227125 -0.972677
outer loop
vertex -93.79560000 190.41510000 -1330.46750000
vertex -96.66880000 191.69860000 -1330.30990000
vertex -94.62290000 192.86180000 -1329.93710000
endloop
endfacet
facet normal 0.048639 0.227291 -0.972611
outer loop
vertex -93.79560000 190.41510000 -1330.46750000
vertex -94.62290000 192.86180000 -1329.93710000
vertex -91.98230000 192.15380000 -1329.97050000
endloop
endfacet
facet normal 0.053401 0.205754 -0.977146
outer loop
vertex -96.82460000 193.65150000 -1329.90720000
vertex -96.66880000 191.69860000 -1330.30990000
vertex -99.00760000 193.55700000 -1330.04640000
endloop
endfacet
facet normal -0.081396 -0.045118 -0.995660
outer loop
vertex -83.29910000 194.32760000 -1330.21700000
vertex -81.37400000 191.40630000 -1330.24200000
vertex -84.33390000 191.03060000 -1329.98300000
endloop
endfacet
facet normal -0.139799 -0.083683 -0.986637
outer loop
vertex -80.14450000 194.28770000 -1330.66060000
vertex -81.37400000 191.40630000 -1330.24200000
vertex -83.29910000 194.32760000 -1330.21700000
endloop
endfacet
facet normal -0.362280 0.019207 -0.931871
outer loop
vertex -78.65340000 192.13300000 -1331.28470000
vertex -81.37400000 191.40630000 -1330.24200000
vertex -80.14450000 194.28770000 -1330.66060000
endloop
endfacet
facet normal -0.087654 0.182976 -0.979202
outer loop
vertex -105.70560000 191.64540000 -1330.71030000
vertex -105.33890000 194.25440000 -1330.25560000
vertex -103.32490000 192.58250000 -1330.74830000
endloop
endfacet
facet normal 0.037578 0.323859 -0.945359
outer loop
vertex -103.32490000 192.58250000 -1330.74830000
vertex -105.33890000 194.25440000 -1330.25560000
vertex -102.17070000 194.45600000 -1330.06060000
endloop
endfacet
facet normal 0.055716 0.163749 -0.984927
outer loop
vertex -96.82460000 193.65150000 -1329.90720000
vertex -99.00760000 193.55700000 -1330.04640000
vertex -97.98920000 195.76320000 -1329.62200000
endloop
endfacet
facet normal 0.006270 0.106405 -0.994303
outer loop
vertex -94.62290000 192.86180000 -1329.93710000
vertex -95.49030000 195.26400000 -1329.68550000
vertex -93.16570000 194.77380000 -1329.72330000
endloop
endfacet
facet normal -0.078742 -0.204379 -0.975720
outer loop
vertex -83.33500000 197.24120000 -1330.82440000
vertex -83.29910000 194.32760000 -1330.21700000
vertex -85.91050000 196.70720000 -1330.50470000
endloop
endfacet
facet normal -0.114186 -0.204096 -0.972269
outer loop
vertex -81.19740000 196.91800000 -1331.00760000
vertex -83.29910000 194.32760000 -1330.21700000
vertex -83.33500000 197.24120000 -1330.82440000
endloop
endfacet
facet normal -0.139153 -0.184067 -0.973014
outer loop
vertex -80.14450000 194.28770000 -1330.66060000
vertex -83.29910000 194.32760000 -1330.21700000
vertex -81.19740000 196.91800000 -1331.00760000
endloop
endfacet
facet normal -0.244741 -0.222469 -0.943721
outer loop
vertex -80.14450000 194.28770000 -1330.66060000
vertex -81.19740000 196.91800000 -1331.00760000
vertex -78.71190000 196.76070000 -1331.61510000
endloop
endfacet
facet normal -0.089423 0.002152 -0.995991
outer loop
vertex -96.67170000 199.72660000 -1329.60020000
vertex -95.94540000 197.55530000 -1329.67010000
vertex -97.98050000 198.01060000 -1329.48640000
endloop
endfacet
facet normal -0.118196 -0.007570 -0.992961
outer loop
vertex -96.67170000 199.72660000 -1329.60020000
vertex -93.79940000 199.22820000 -1329.93830000
vertex -95.94540000 197.55530000 -1329.67010000
endloop
endfacet
facet normal -0.150677 -0.120229 -0.981245
outer loop
vertex -92.07340000 197.01040000 -1329.93160000
vertex -93.79940000 199.22820000 -1329.93830000
vertex -90.86410000 199.36420000 -1330.40570000
endloop
endfacet
facet normal -0.115984 -0.138516 -0.983545
outer loop
vertex -92.07340000 197.01040000 -1329.93160000
vertex -90.86410000 199.36420000 -1330.40570000
vertex -90.16940000 196.79790000 -1330.12620000
endloop
endfacet
facet normal -0.147765 -0.146527 -0.978108
outer loop
vertex -90.86410000 199.36420000 -1330.40570000
vertex -88.48000000 198.12480000 -1330.58020000
vertex -90.16940000 196.79790000 -1330.12620000
endloop
endfacet
facet normal -0.157023 -0.005042 -0.987582
outer loop
vertex -93.79940000 199.22820000 -1329.93830000
vertex -92.57700000 201.17540000 -1330.14260000
vertex -90.86410000 199.36420000 -1330.40570000
endloop
endfacet
facet normal -0.228787 -0.075384 -0.970553
outer loop
vertex -90.86410000 199.36420000 -1330.40570000
vertex -92.57700000 201.17540000 -1330.14260000
vertex -90.71880000 202.20370000 -1330.66050000
endloop
endfacet
facet normal -0.228209 -0.075426 -0.970686
outer loop
vertex -90.86410000 199.36420000 -1330.40570000
vertex -90.71880000 202.20370000 -1330.66050000
vertex -88.62840000 201.02160000 -1331.06010000
endloop
endfacet
facet normal -0.240139 -0.054202 -0.969224
outer loop
vertex -90.71880000 202.20370000 -1330.66050000
vertex -92.57700000 201.17540000 -1330.14260000
vertex -92.71620000 203.11000000 -1330.21630000
endloop
endfacet
facet normal -0.287695 -0.215606 -0.933138
outer loop
vertex -91.23660000 205.16850000 -1331.14810000
vertex -92.71620000 203.11000000 -1330.21630000
vertex -94.32220000 205.20710000 -1330.20570000
endloop
endfacet
facet normal -0.285294 -0.255986 -0.923622
outer loop
vertex -91.23660000 205.16850000 -1331.14810000
vertex -94.32220000 205.20710000 -1330.20570000
vertex -92.86340000 207.33370000 -1331.24570000
endloop
endfacet
facet normal -0.382823 -0.180476 -0.906021
outer loop
vertex -92.86340000 207.33370000 -1331.24570000
vertex -94.32220000 205.20710000 -1330.20570000
vertex -95.05670000 208.02970000 -1330.45760000
endloop
endfacet
facet normal -0.046933 0.111428 -0.992664
outer loop
vertex -87.41320000 189.89480000 -1330.33040000
vertex -89.31160000 192.28090000 -1329.97280000
vertex -86.51600000 193.28290000 -1329.99250000
endloop
endfacet
facet normal 0.083716 0.076916 -0.993517
outer loop
vertex -84.33390000 191.03060000 -1329.98300000
vertex -87.41320000 189.89480000 -1330.33040000
vertex -86.51600000 193.28290000 -1329.99250000
endloop
endfacet
facet normal 0.060706 0.206228 -0.976619
outer loop
vertex -96.82460000 193.65150000 -1329.90720000
vertex -94.62290000 192.86180000 -1329.93710000
vertex -96.66880000 191.69860000 -1330.30990000
endloop
endfacet
facet normal -0.051896 -0.054484 -0.997165
outer loop
vertex -84.33390000 191.03060000 -1329.98300000
vertex -86.51600000 193.28290000 -1329.99250000
vertex -83.29910000 194.32760000 -1330.21700000
endloop
endfacet
facet normal 0.014318 0.100332 -0.994851
outer loop
vertex -91.98230000 192.15380000 -1329.97050000
vertex -94.62290000 192.86180000 -1329.93710000
vertex -93.16570000 194.77380000 -1329.72330000
endloop
endfacet
facet normal -0.310286 0.383170 -0.870002
outer loop
vertex -107.35610000 196.00150000 -1328.76670000
vertex -105.33890000 194.25440000 -1330.25560000
vertex -107.53570000 193.22610000 -1329.92500000
endloop
endfacet
facet normal -0.024744 0.199848 -0.979514
outer loop
vertex -99.00760000 193.55700000 -1330.04640000
vertex -100.34800000 195.60250000 -1329.59520000
vertex -97.98920000 195.76320000 -1329.62200000
endloop
endfacet
facet normal -0.251271 0.443199 -0.860487
outer loop
vertex -107.35610000 196.00150000 -1328.76670000
vertex -104.63280000 196.25940000 -1329.42910000
vertex -105.33890000 194.25440000 -1330.25560000
endloop
endfacet
facet normal 0.037445 0.324178 -0.945255
outer loop
vertex -100.34800000 195.60250000 -1329.59520000
vertex -102.17070000 194.45600000 -1330.06060000
vertex -102.44020000 197.07320000 -1329.17370000
endloop
endfacet
facet normal -0.018561 -0.010925 -0.999768
outer loop
vertex -94.04640000 196.92890000 -1329.73050000
vertex -93.16570000 194.77380000 -1329.72330000
vertex -95.49030000 195.26400000 -1329.68550000
endloop
endfacet
facet normal -0.065221 0.188080 -0.979986
outer loop
vertex -100.34800000 195.60250000 -1329.59520000
vertex -102.44020000 197.07320000 -1329.17370000
vertex -100.07070000 197.55880000 -1329.23820000
endloop
endfacet
facet normal -0.023615 0.182711 -0.982883
outer loop
vertex -97.98920000 195.76320000 -1329.62200000
vertex -100.34800000 195.60250000 -1329.59520000
vertex -100.07070000 197.55880000 -1329.23820000
endloop
endfacet
facet normal -0.130527 0.060215 -0.989614
outer loop
vertex -97.98920000 195.76320000 -1329.62200000
vertex -100.07070000 197.55880000 -1329.23820000
vertex -97.98050000 198.01060000 -1329.48640000
endloop
endfacet
facet normal -0.076337 0.060346 -0.995254
outer loop
vertex -95.94540000 197.55530000 -1329.67010000
vertex -97.98920000 195.76320000 -1329.62200000
vertex -97.98050000 198.01060000 -1329.48640000
endloop
endfacet
facet normal -0.025055 0.001742 -0.999685
outer loop
vertex -95.49030000 195.26400000 -1329.68550000
vertex -97.98920000 195.76320000 -1329.62200000
vertex -95.94540000 197.55530000 -1329.67010000
endloop
endfacet
facet normal -0.031648 0.000432 -0.999499
outer loop
vertex -94.04640000 196.92890000 -1329.73050000
vertex -95.49030000 195.26400000 -1329.68550000
vertex -95.94540000 197.55530000 -1329.67010000
endloop
endfacet
facet normal -0.095012 0.339305 -0.935866
outer loop
vertex -102.00980000 199.30980000 -1328.40650000
vertex -100.07070000 197.55880000 -1329.23820000
vertex -102.44020000 197.07320000 -1329.17370000
endloop
endfacet
facet normal -0.251935 0.173241 -0.952112
outer loop
vertex -102.00980000 199.30980000 -1328.40650000
vertex -99.36690000 199.65180000 -1329.04360000
vertex -100.07070000 197.55880000 -1329.23820000
endloop
endfacet
facet normal -0.059196 -0.083541 -0.994745
outer loop
vertex -95.94540000 197.55530000 -1329.67010000
vertex -93.79940000 199.22820000 -1329.93830000
vertex -94.04640000 196.92890000 -1329.73050000
endloop
endfacet
facet normal -0.097846 -0.079146 -0.992049
outer loop
vertex -93.79940000 199.22820000 -1329.93830000
vertex -92.07340000 197.01040000 -1329.93160000
vertex -94.04640000 196.92890000 -1329.73050000
endloop
endfacet
facet normal -0.203935 0.153437 -0.966886
outer loop
vertex -96.67170000 199.72660000 -1329.60020000
vertex -99.36690000 199.65180000 -1329.04360000
vertex -98.09630000 201.74450000 -1328.97950000
endloop
endfacet
facet normal -0.113664 0.018805 -0.993341
outer loop
vertex -96.67170000 199.72660000 -1329.60020000
vertex -95.01990000 202.05130000 -1329.74520000
vertex -93.79940000 199.22820000 -1329.93830000
endloop
endfacet
facet normal -0.161351 -0.002253 -0.986894
outer loop
vertex -92.57700000 201.17540000 -1330.14260000
vertex -93.79940000 199.22820000 -1329.93830000
vertex -95.01990000 202.05130000 -1329.74520000
endloop
endfacet
facet normal -0.250928 0.118370 -0.960741
outer loop
vertex -95.01990000 202.05130000 -1329.74520000
vertex -96.67170000 199.72660000 -1329.60020000
vertex -98.09630000 201.74450000 -1328.97950000
endloop
endfacet
facet normal -0.245523 0.045219 -0.968336
outer loop
vertex -95.01990000 202.05130000 -1329.74520000
vertex -98.09630000 201.74450000 -1328.97950000
vertex -96.95170000 204.18180000 -1329.15590000
endloop
endfacet
facet normal -0.177885 -0.050239 -0.982768
outer loop
vertex -92.57700000 201.17540000 -1330.14260000
vertex -95.01990000 202.05130000 -1329.74520000
vertex -92.71620000 203.11000000 -1330.21630000
endloop
endfacet
facet normal -0.350215 -0.058982 -0.934811
outer loop
vertex -94.32220000 205.20710000 -1330.20570000
vertex -95.01990000 202.05130000 -1329.74520000
vertex -96.95170000 204.18180000 -1329.15590000
endloop
endfacet
facet normal -0.150301 -0.110137 -0.982486
outer loop
vertex -95.01990000 202.05130000 -1329.74520000
vertex -94.32220000 205.20710000 -1330.20570000
vertex -92.71620000 203.11000000 -1330.21630000
endloop
endfacet
facet normal -0.348588 -0.063474 -0.935124
outer loop
vertex -94.32220000 205.20710000 -1330.20570000
vertex -96.95170000 204.18180000 -1329.15590000
vertex -96.45640000 206.48690000 -1329.49700000
endloop
endfacet
facet normal -0.408308 -0.186007 -0.893692
outer loop
vertex -94.32220000 205.20710000 -1330.20570000
vertex -96.45640000 206.48690000 -1329.49700000
vertex -95.05670000 208.02970000 -1330.45760000
endloop
endfacet
facet normal -0.249823 0.484005 -0.838646
outer loop
vertex -104.63280000 196.25940000 -1329.42910000
vertex -107.35610000 196.00150000 -1328.76670000
vertex -104.96720000 198.43550000 -1328.07360000
endloop
endfacet
facet normal -0.263643 0.494513 -0.828221
outer loop
vertex -99.36690000 199.65180000 -1329.04360000
vertex -102.00980000 199.30980000 -1328.40650000
vertex -100.83390000 201.52160000 -1327.46020000
endloop
endfacet
facet normal -0.479888 0.316432 -0.818278
outer loop
vertex -98.09630000 201.74450000 -1328.97950000
vertex -99.36690000 199.65180000 -1329.04360000
vertex -100.83390000 201.52160000 -1327.46020000
endloop
endfacet
facet normal -0.480776 0.307367 -0.821207
outer loop
vertex -98.09630000 201.74450000 -1328.97950000
vertex -100.83390000 201.52160000 -1327.46020000
vertex -99.03670000 203.64770000 -1327.71660000
endloop
endfacet
facet normal -0.591793 0.221828 -0.774967
outer loop
vertex -96.95170000 204.18180000 -1329.15590000
vertex -98.09630000 201.74450000 -1328.97950000
vertex -99.03670000 203.64770000 -1327.71660000
endloop
endfacet
facet normal -0.372308 -0.104869 -0.922165
outer loop
vertex -90.22120000 211.41230000 -1332.89970000
vertex -90.79830000 208.19560000 -1332.30090000
vertex -93.25600000 210.04270000 -1331.51870000
endloop
endfacet
facet normal 0.066901 0.231205 -0.970602
outer loop
vertex -96.31160000 189.39780000 -1330.95520000
vertex -98.49510000 188.24630000 -1331.38000000
vertex -99.97680000 191.13550000 -1330.79390000
endloop
endfacet
facet normal 0.091710 0.282084 -0.954996
outer loop
vertex -96.66880000 191.69860000 -1330.30990000
vertex -96.31160000 189.39780000 -1330.95520000
vertex -99.97680000 191.13550000 -1330.79390000
endloop
endfacet
facet normal 0.082918 0.079049 -0.993416
outer loop
vertex -84.33390000 191.03060000 -1329.98300000
vertex -85.05080000 188.66470000 -1330.23110000
vertex -87.41320000 189.89480000 -1330.33040000
endloop
endfacet
facet normal -0.065038 -0.118432 -0.990830
outer loop
vertex -88.59650000 195.19540000 -1330.03790000
vertex -90.85730000 194.54700000 -1329.81200000
vertex -90.16940000 196.79790000 -1330.12620000
endloop
endfacet
facet normal -0.112560 -0.103547 -0.988235
outer loop
vertex -90.16940000 196.79790000 -1330.12620000
vertex -90.85730000 194.54700000 -1329.81200000
vertex -92.07340000 197.01040000 -1329.93160000
endloop
endfacet
facet normal -0.156002 0.077246 -0.984732
outer loop
vertex -94.78500000 184.78410000 -1332.19200000
vertex -94.20070000 182.06580000 -1332.49780000
vertex -99.19600000 185.02130000 -1331.47460000
endloop
endfacet
facet normal -0.238503 0.486792 -0.840327
outer loop
vertex -104.96720000 198.43550000 -1328.07360000
vertex -102.00980000 199.30980000 -1328.40650000
vertex -104.63280000 196.25940000 -1329.42910000
endloop
endfacet
facet normal -0.011026 0.326341 -0.945188
outer loop
vertex -102.44020000 197.07320000 -1329.17370000
vertex -104.63280000 196.25940000 -1329.42910000
vertex -102.00980000 199.30980000 -1328.40650000
endloop
endfacet
facet normal -0.070436 -0.100183 -0.992473
outer loop
vertex -88.59650000 195.19540000 -1330.03790000
vertex -86.51600000 193.28290000 -1329.99250000
vertex -90.85730000 194.54700000 -1329.81200000
endloop
endfacet
facet normal -0.438338 -0.090925 -0.894200
outer loop
vertex -88.03140000 208.74870000 -1333.70230000
vertex -90.22120000 211.41230000 -1332.89970000
vertex -85.53230000 210.01380000 -1335.05600000
endloop
endfacet
facet normal 0.084474 0.226041 -0.970448
outer loop
vertex -99.97680000 191.13550000 -1330.79390000
vertex -101.13270000 188.28100000 -1331.55940000
vertex -103.32490000 192.58250000 -1330.74830000
endloop
endfacet
facet normal -0.028477 0.171188 -0.984827
outer loop
vertex -103.26990000 190.20420000 -1331.16330000
vertex -103.32490000 192.58250000 -1330.74830000
vertex -101.13270000 188.28100000 -1331.55940000
endloop
endfacet
facet normal 0.063827 0.281630 -0.957398
outer loop
vertex -90.85580000 189.31420000 -1330.73070000
vertex -91.98230000 192.15380000 -1329.97050000
vertex -87.41320000 189.89480000 -1330.33040000
endloop
endfacet
facet normal -0.007623 0.142274 -0.989798
outer loop
vertex -89.31160000 192.28090000 -1329.97280000
vertex -87.41320000 189.89480000 -1330.33040000
vertex -91.98230000 192.15380000 -1329.97050000
endloop
endfacet
facet normal -0.045701 -0.073365 -0.996257
outer loop
vertex -86.51600000 193.28290000 -1329.99250000
vertex -88.59650000 195.19540000 -1330.03790000
vertex -83.29910000 194.32760000 -1330.21700000
endloop
endfacet
facet normal -0.064054 -0.188770 -0.979930
outer loop
vertex -85.91050000 196.70720000 -1330.50470000
vertex -83.29910000 194.32760000 -1330.21700000
vertex -88.59650000 195.19540000 -1330.03790000
endloop
endfacet
facet normal -0.765243 -0.048174 -0.641937
outer loop
vertex -74.81170000 196.04840000 -1334.90390000
vertex -76.41380000 196.03160000 -1332.99280000
vertex -74.19860000 198.03830000 -1335.78410000
endloop
endfacet
facet normal -0.731085 -0.125750 -0.670598
outer loop
vertex -75.53550000 198.25740000 -1334.36770000
vertex -74.19860000 198.03830000 -1335.78410000
vertex -76.41380000 196.03160000 -1332.99280000
endloop
endfacet
facet normal -0.097007 -0.095986 -0.990644
outer loop
vertex -92.07340000 197.01040000 -1329.93160000
vertex -90.85730000 194.54700000 -1329.81200000
vertex -94.04640000 196.92890000 -1329.73050000
endloop
endfacet
facet normal -0.040333 -0.019820 -0.998990
outer loop
vertex -93.16570000 194.77380000 -1329.72330000
vertex -94.04640000 196.92890000 -1329.73050000
vertex -90.85730000 194.54700000 -1329.81200000
endloop
endfacet
facet normal -0.639228 0.162373 -0.751680
outer loop
vertex -79.53060000 189.25600000 -1331.16020000
vertex -78.65340000 192.13300000 -1331.28470000
vertex -78.46290000 188.12630000 -1332.31220000
endloop
endfacet
facet normal -0.667895 0.154925 -0.727952
outer loop
vertex -78.65340000 192.13300000 -1331.28470000
vertex -76.59640000 193.19020000 -1332.94700000
vertex -78.46290000 188.12630000 -1332.31220000
endloop
endfacet
facet normal -0.203909 0.158391 -0.966092
outer loop
vertex -99.36690000 199.65180000 -1329.04360000
vertex -96.67170000 199.72660000 -1329.60020000
vertex -100.07070000 197.55880000 -1329.23820000
endloop
endfacet
facet normal -0.124004 0.028801 -0.991864
outer loop
vertex -97.98050000 198.01060000 -1329.48640000
vertex -100.07070000 197.55880000 -1329.23820000
vertex -96.67170000 199.72660000 -1329.60020000
endloop
endfacet
facet normal -0.765930 0.038878 -0.641747
outer loop
vertex -76.41380000 196.03160000 -1332.99280000
vertex -74.81170000 196.04840000 -1334.90390000
vertex -76.59640000 193.19020000 -1332.94700000
endloop
endfacet
facet normal -0.235811 -0.265034 -0.934960
outer loop
vertex -82.06540000 206.95080000 -1335.10410000
vertex -85.18660000 207.77950000 -1334.55180000
vertex -79.89600000 208.73880000 -1336.15810000
endloop
endfacet
facet normal -0.239784 -0.248860 -0.938388
outer loop
vertex -85.53230000 210.01380000 -1335.05600000
vertex -79.89600000 208.73880000 -1336.15810000
vertex -85.18660000 207.77950000 -1334.55180000
endloop
endfacet
facet normal -0.251305 -0.404965 -0.879119
outer loop
vertex -82.21240000 204.11150000 -1333.62300000
vertex -79.47870000 205.06330000 -1334.84290000
vertex -81.71060000 201.78360000 -1332.69410000
endloop
endfacet
facet normal -0.274959 -0.388963 -0.879264
outer loop
vertex -79.44990000 202.43270000 -1333.68820000
vertex -81.71060000 201.78360000 -1332.69410000
vertex -79.47870000 205.06330000 -1334.84290000
endloop
endfacet
facet normal -0.389420 -0.132140 -0.911532
outer loop
vertex -93.25600000 210.04270000 -1331.51870000
vertex -90.79830000 208.19560000 -1332.30090000
vertex -95.05670000 208.02970000 -1330.45760000
endloop
endfacet
facet normal -0.384131 -0.186637 -0.904218
outer loop
vertex -92.86340000 207.33370000 -1331.24570000
vertex -95.05670000 208.02970000 -1330.45760000
vertex -90.79830000 208.19560000 -1332.30090000
endloop
endfacet
facet normal -0.005217 0.091597 -0.995782
outer loop
vertex -91.98230000 192.15380000 -1329.97050000
vertex -93.16570000 194.77380000 -1329.72330000
vertex -89.31160000 192.28090000 -1329.97280000
endloop
endfacet
facet normal -0.317802 0.158823 -0.934761
outer loop
vertex -82.36670000 188.20000000 -1330.37540000
vertex -79.53060000 189.25600000 -1331.16020000
vertex -82.63030000 184.89750000 -1330.84690000
endloop
endfacet
facet normal -0.442630 0.252952 -0.860287
outer loop
vertex -80.01360000 186.20970000 -1331.80740000
vertex -82.63030000 184.89750000 -1330.84690000
vertex -79.53060000 189.25600000 -1331.16020000
endloop
endfacet
facet normal -0.010442 0.328319 -0.944509
outer loop
vertex -93.75470000 187.85850000 -1331.37850000
vertex -91.87340000 186.41060000 -1331.90260000
vertex -96.37330000 187.06810000 -1331.62430000
endloop
endfacet
facet normal -0.025595 0.235997 -0.971417
outer loop
vertex -91.87340000 186.41060000 -1331.90260000
vertex -91.50810000 183.59480000 -1332.59630000
vertex -96.37330000 187.06810000 -1331.62430000
endloop
endfacet
facet normal -0.043311 0.212520 -0.976196
outer loop
vertex -94.78500000 184.78410000 -1332.19200000
vertex -96.37330000 187.06810000 -1331.62430000
vertex -91.50810000 183.59480000 -1332.59630000
endloop
endfacet
facet normal -0.124323 -0.175836 -0.976538
outer loop
vertex -90.16940000 196.79790000 -1330.12620000
vertex -88.48000000 198.12480000 -1330.58020000
vertex -88.59650000 195.19540000 -1330.03790000
endloop
endfacet
facet normal -0.069863 -0.178899 -0.981384
outer loop
vertex -85.91050000 196.70720000 -1330.50470000
vertex -88.59650000 195.19540000 -1330.03790000
vertex -88.48000000 198.12480000 -1330.58020000
endloop
endfacet
facet normal -0.293583 -0.187614 -0.937342
outer loop
vertex -90.71880000 202.20370000 -1330.66050000
vertex -92.71620000 203.11000000 -1330.21630000
vertex -88.84990000 203.92410000 -1331.59020000
endloop
endfacet
facet normal -0.285993 -0.216927 -0.933354
outer loop
vertex -91.23660000 205.16850000 -1331.14810000
vertex -88.84990000 203.92410000 -1331.59020000
vertex -92.71620000 203.11000000 -1330.21630000
endloop
endfacet
facet normal -0.004811 0.102448 -0.994727
outer loop
vertex -95.49030000 195.26400000 -1329.68550000
vertex -94.62290000 192.86180000 -1329.93710000
vertex -97.98920000 195.76320000 -1329.62200000
endloop
endfacet
facet normal 0.042879 0.156906 -0.986682
outer loop
vertex -96.82460000 193.65150000 -1329.90720000
vertex -97.98920000 195.76320000 -1329.62200000
vertex -94.62290000 192.86180000 -1329.93710000
endloop
endfacet
facet normal -0.143828 -0.309515 -0.939954
outer loop
vertex -84.36160000 199.08180000 -1331.27340000
vertex -83.33500000 197.24120000 -1330.82440000
vertex -86.40340000 199.96470000 -1331.25170000
endloop
endfacet
facet normal 0.037550 0.324186 -0.945248
outer loop
vertex -102.17070000 194.45600000 -1330.06060000
vertex -105.33890000 194.25440000 -1330.25560000
vertex -102.44020000 197.07320000 -1329.17370000
endloop
endfacet
facet normal -0.038603 0.392415 -0.918978
outer loop
vertex -104.63280000 196.25940000 -1329.42910000
vertex -102.44020000 197.07320000 -1329.17370000
vertex -105.33890000 194.25440000 -1330.25560000
endloop
endfacet
facet normal 0.098174 0.257450 -0.961291
outer loop
vertex -99.97680000 191.13550000 -1330.79390000
vertex -103.32490000 192.58250000 -1330.74830000
vertex -99.00760000 193.55700000 -1330.04640000
endloop
endfacet
facet normal 0.037733 0.323773 -0.945382
outer loop
vertex -102.17070000 194.45600000 -1330.06060000
vertex -100.34800000 195.60250000 -1329.59520000
vertex -103.32490000 192.58250000 -1330.74830000
endloop
endfacet
facet normal 0.094075 0.272842 -0.957448
outer loop
vertex -99.00760000 193.55700000 -1330.04640000
vertex -103.32490000 192.58250000 -1330.74830000
vertex -100.34800000 195.60250000 -1329.59520000
endloop
endfacet
facet normal -0.348484 -0.369896 -0.861241
outer loop
vertex -87.18770000 205.87470000 -1332.92400000
vertex -89.18900000 206.43300000 -1332.35400000
vertex -85.18660000 207.77950000 -1334.55180000
endloop
endfacet
facet normal -0.370009 -0.322350 -0.871311
outer loop
vertex -88.03140000 208.74870000 -1333.70230000
vertex -85.18660000 207.77950000 -1334.55180000
vertex -89.18900000 206.43300000 -1332.35400000
endloop
endfacet
facet normal -0.088919 -0.251393 -0.963792
outer loop
vertex -86.40340000 199.96470000 -1331.25170000
vertex -83.33500000 197.24120000 -1330.82440000
vertex -88.48000000 198.12480000 -1330.58020000
endloop
endfacet
facet normal -0.080306 -0.197594 -0.976989
outer loop
vertex -85.91050000 196.70720000 -1330.50470000
vertex -88.48000000 198.12480000 -1330.58020000
vertex -83.33500000 197.24120000 -1330.82440000
endloop
endfacet
facet normal -0.027560 0.057273 -0.997978
outer loop
vertex -89.31160000 192.28090000 -1329.97280000
vertex -93.16570000 194.77380000 -1329.72330000
vertex -86.51600000 193.28290000 -1329.99250000
endloop
endfacet
facet normal -0.036790 0.016327 -0.999190
outer loop
vertex -90.85730000 194.54700000 -1329.81200000
vertex -86.51600000 193.28290000 -1329.99250000
vertex -93.16570000 194.77380000 -1329.72330000
endloop
endfacet
facet normal 0.179801 0.209976 -0.961032
outer loop
vertex -86.69610000 186.80650000 -1330.87100000
vertex -87.41320000 189.89480000 -1330.33040000
vertex -84.41330000 186.56030000 -1330.49770000
endloop
endfacet
facet normal 0.125504 0.162018 -0.978774
outer loop
vertex -85.05080000 188.66470000 -1330.23110000
vertex -84.41330000 186.56030000 -1330.49770000
vertex -87.41320000 189.89480000 -1330.33040000
endloop
endfacet
facet normal -0.299201 -0.378714 -0.875816
outer loop
vertex -79.47870000 205.06330000 -1334.84290000
vertex -79.05130000 207.06900000 -1335.85620000
vertex -76.88550000 203.47800000 -1335.04330000
endloop
endfacet
facet normal -0.191186 -0.372137 -0.908274
outer loop
vertex -84.15960000 201.93370000 -1332.24010000
vertex -84.80300000 205.05860000 -1333.38500000
vertex -81.71060000 201.78360000 -1332.69410000
endloop
endfacet
facet normal -0.228719 -0.402920 -0.886196
outer loop
vertex -82.21240000 204.11150000 -1333.62300000
vertex -81.71060000 201.78360000 -1332.69410000
vertex -84.80300000 205.05860000 -1333.38500000
endloop
endfacet
endsolid Surface
